<?xml version="1.0" encoding="utf-8"?>
<!-- Generator: Adobe Illustrator 25.4.1, SVG Export Plug-In . SVG Version: 6.00 Build 0)  -->
<svg version="1.1" id="레이어_1" xmlns="http://www.w3.org/2000/svg" xmlns:xlink="http://www.w3.org/1999/xlink" x="0px"
	 y="0px" viewBox="0 0 620 347" style="enable-background:new 0 0 620 347;" xml:space="preserve">
<style type="text/css">
	.st0{fill:#D0B886;}
	.st1{fill:#33260E;}
	.st2{fill:#A55530;}
	.st3{fill:#DFBA33;}
</style>
<g>
	<path class="st0" d="M318,245.3c-2.6,0-12.9,0.5-14.8,0.5c0.4,2.9-0.3,5.6-2,7.6c-1.8,2.1-4.4,3.2-7.4,3.2c-7.6,0-9.7-5.7-9.7-5.7
		c-1.4,3.5-4.6,5.9-8.5,5.9c-4,0-9.5-2.6-10.2-10.7c-0.3,0-9.5-0.3-9.5-0.3s-2.5,0-2-3.3c1-7.3,3.3-25.4,5.1-34.3
		c-4,5.3-9.2,6.2-12.4,6.2l0,0c-6.8,0-13.2-4.2-15.6-6.8c-1.3-1.4-3.7-7.8,3.4-11.3c4.9-2.4,7.9-8,9-10.1c2.4-4.4,5.2-9.4,10.4-11.7
		c8.5-3.7,16.4-0.5,19,1.1c2.2-2.2,4.6-3.7,7.2-4.6c-2.1-5.7-3-11.8-3.3-15.2c-1.1-11.2,1-13.3,2.1-14.4c1.4-1.4,3.6-2.7,9.5-3.5
		c0,0,0,0,0,0c-0.6-0.6-1.4-2.6-0.3-4.6c-0.9-1.1-1.1-2.5-0.2-3.4c-1.5-1.8-1.9-7.4,0.5-8.4c-0.1-1.1,1.3-7.9,8.6-6.9
		c0.9-0.9,4-2.9,7.2-1.6c4.8-2.4,9.6,0.2,11,2.5c3.5,1.8,3.8,6.8,3.8,6.8c0.3,2-0.2,4-1.3,5.6c0.3,0.6,2.2,4.2,2.7,5.7
		c0.6,1.9,0.4,3.9-0.7,5.5c0.7,0.2,1.3,0.4,1.8,0.7c0.4-0.1,0.8-0.3,1.2-0.4c0-0.1-0.9-7,4.3-9.1l-6.5-23.3c0,0-2.3-14.5,5.4-16.5
		c7.7-2,12.6,11.4,12.6,11.4l6.4,23c5-0.4,7.9,3.5,8.6,7c0.7,3.2-0.5,6.2-2.9,7.9c0,0.1,0.1,3.6-0.4,4.8c0.1,0.4,0.3,0.6,0.3,1
		c0.6-0.3,1.1-0.6,1.7-0.9c1.9-2,4.4-4.3,6.7-6.3c5.1-4.3,11.8-6.3,14.9-1.8c1.8,2.6,0.7,5.5-0.7,9.3c3.7,2.4,5.8,6,8,11.2
		c1.1,2.7,3.1,14.9,3.6,16c0.5,1.2,5.7,11.1,6,12.2c1.1,4.3-2.1,9.7-2.2,10c-1.7,2.9-6.9,7.3-11.7,7.1c-4.9-0.2-5.9-1.2-13.2-10.4
		c-1.6-0.3-3.1-0.9-4.5-1.5c-0.7,1.8-1.6,3.8-2.7,6c5.6,0.4,9.9,1.4,12.5,4.7c2.4,3,3.1,7.1,1.9,11.2c-0.7,2.3-5.3,16.7-5.5,17.6
		c-1.2,4.8-4.8,7.9-9.3,7.9c-2.9,0-5.8-1.4-7.7-3.7c-1.8-2.1-2.5-4.9-2-7.6c0.4-1.9,1.7-8.5,1.9-9.1l-8.6,0.7
		c-0.4,9.6-1.1,27.3-1.8,31c-0.9,4.6-4.7,7.8-9.5,7.8C322.7,256.8,318.5,254.4,318,245.3z M335,153c-3,1.2-6.3,2.5-9.3,3.7
		c-0.4,3.8-1.4,9.5-3.4,14.7l0,0c4.9-1.4,8.7-6.2,12.7-11.1c1.3-1.6,2.7-3.3,4.1-4.9C337.5,155,336.1,154.1,335,153z"/>
	<g>
		<g>
			<path class="st1" d="M235,203.6c2.7,2.9,16,10.9,21.3-3.2c7-18.5,16.6-11,15.7-8.5c-1.4,4.1,9.4,16.3,9.8,16.3
				c0.8,0.1,40.4,0,40.4,0s1.6,35.8,1.8,39.5c0.2,3.7,6.9,4.6,7.8,0.2c0.8-4.4,1.9-35.4,1.9-35.4l21.5-1.7
				c-0.9,4.9-2.6,12.5-3.4,16.7c-0.7,3.9,6.1,6.7,7.5,0.9c0.5-2.1,4.3-13.4,5.6-17.8c0.4-1.5,0.7-4-0.9-5.9
				c-2.9-3.8-18.2-1.9-17.9-3.4c8.6-11.9,9.2-20.8,9.2-20.8s4.9,5.7,11.1,5.7c0,0,7.2,9.5,9.6,10c2.1,0.5,6.2-2.4,7.2-4.2
				c0.6-1,1.9-4.1,1.6-5.4c-0.3-1.1-4.6-8.7-5.8-11.6c-1.4-3.6-1.9-12-3.5-15.9c-2.9-7.2-5-9.1-10.9-10.5
				c-18.1-4.2-26.7,24.6-39.5,28c-11.8,3.1-36.5-6.9-50.8,7.5c-0.5,0.5-7-9.4-18.4-4.4c-5.5,2.4-7.5,10.5-11.7,15.6
				C240,200.7,234,202.4,235,203.6z M362.6,167.5c0.2-2.6,2.4-4.5,5-4.3c2.6,0.2,4.5,2.4,4.3,5c-0.2,2.6-2.4,4.5-5,4.3
				C364.4,172.3,362.4,170.1,362.6,167.5z"/>
		</g>
		<path class="st1" d="M296.9,243c0.3,1.7,0.4,3,0.5,3.5c0.8,5.7-7.2,5.7-7.9,2.1c-0.1-0.3-0.6-2.6-1.2-5.6H296.9z"/>
		<path class="st1" d="M278.4,243c0.3,2.4,0.5,4.1,0.4,4.5c-0.4,4.4-5.7,4.1-6.9,0.9c-0.3-0.7-0.8-2.8-1.3-5.4L278.4,243L278.4,243z
			"/>
	</g>
	<path class="st2" d="M345.6,154.8c2.8-2.4,10.3-12.6,25.2-3.8c7.1,4.2,7,17.3,8.2,23.9c0,0,3.6,7.2,5.2,10.3
		c-3.3,2.1-5.7,0.4-7.7-1.9c-2.9,3.1-6.9,6.9-7.4,7.3c-0.6,0.5-2-1-1.4-1.6c0.4-0.4,5.2-5.5,7.1-7.9c-1.1-1.3-3.1-3.5-3.3-4.1
		c-0.4-1.3,1.7-3.7,2.5-5.1c2.1-4-0.1-10.5-4.6-11.9c-6.6-2.1-11.7,3.6-12.3,5.4c-2.9,7.9-2,14.2-1.5,15.6
		c0.4,1.2-4.1,10.7-3.5,16.5c-1.6,0.2-7.8-0.8-8.8-2.1c-0.4-0.6,1.9-3,1.4-4.8c-0.3-0.9-4.3-3-5.2-2.3c-1,0.7-1.1,2.8-1.9,3.5
		c-0.9,0.5-6.6-2.9-7.1-4.5c-0.2-0.7,1.9-2.2,2-3.3c0.2-1.9-2.9-3.9-3.8-4.1c-0.9-0.2-2.9,2.2-3.4,1.8c-1-2.1-3-5.5-1.7-5.7
		C333.7,174.1,339.9,159.8,345.6,154.8z"/>
	<path class="st1" d="M354.6,150.5c3.2-3.8,12-11.7,13.6-11.4c1.5,0.4-1.8,6.5-3.4,13.1c0,0-2.5,2.1-5.6,1.6
		C356,153.3,354.6,150.5,354.6,150.5z"/>
	<path class="st1" d="M343.1,155.8c-2.7,2.5-5.8,5.7-8.3,8.5c-5.3,6.5-2.5,13,1.7,19.8c-0.6-5.2-1.2-11.4,0.3-16.3
		c0.8,4.3,4.7,8.7,7.7,12.7c-1.7-6.7-2.7-12.3-2.4-19.4c1.5,4.6,2.9,10.1,7.1,13.3c-2.5-6.7,0-18.3,2.1-24.4
		C351.3,150,345.6,153.5,343.1,155.8z"/>
	<path class="st2" d="M312.8,176.7c0,11.6,0.5,62-0.1,62.7c-0.4,0.5-5.5,0.5-6.7,0.5c-0.1-1.3,0.4-7-0.8-7.4c-1.2-0.4-4.4-0.1-5.7,0
		c-1.3,0.1-0.8,5.5-0.8,7c0,1.6-8.3,1.2-8.3,0.3c-0.1-1.4,0.3-6.3-0.3-6.9c-0.5-0.5-5.1-0.1-6.3-0.1c0,1.9-0.3,4-0.3,6
		c0,2.3-7.7,1.9-7.8,0.6c-0.1-1.2,0.1-5.6-0.1-6.9c-2.1-0.2-5-0.1-7.1-0.1c-0.1,1.9-0.2,6.5-0.6,7.1c-0.6,1.1-5.9,0.6-7.5,0.5
		c0.5-2.7,2.3-35.7,11.1-52.8c2.1-4.1,5.6-9,10.5-10.7C289.4,173.5,312.8,176.7,312.8,176.7z"/>
	<path class="st1" d="M292,168.8c0,0-0.7-19.4,2.9-24.7c1.5-2.2,1.1-3.3,1-4.5c-1-4.9-2.4-11.8-0.5-16.8c0.5-1.5,13.5-1.8,15,0.3
		c1,1.3,0.6,4.6,1.2,6.2c0.9,2.3,2.2,4.1,2.8,6c0.4,1.1-2.7,0.6-3.5,0.8c0,0-0.2,8.3-0.3,8.4c0.9,0.3,1.5,0.7,1.9,1.3
		c0.2,0.4,0.4,1.2,0.6,2.3c0.8,0.1,16.6-5,24.6-7.9c-0.4-1.1-0.7-2-0.7-2c-1.1,0.3-6.1,1.7-6.6,1.8c-2.5,0.4-3.5-3.7-1.3-4.4
		c0.7-0.2,2.5-0.8,4.7-1.5l-7.9-28.2c0,0-0.9-9.3,0.9-9.7c1.8-0.4,5.9,7.8,5.9,7.8l7.9,28.1c2.3-0.7,4.2-1.3,4.7-1.4
		c1.4-0.5,3.5,3.5,1.3,4.4c-0.7,0.3-4.5,1.5-6.5,2.2c0,0.1,0.2,0.9,0.5,1.9c0.3-0.1,0.6-0.2,0.8-0.3c2-1,4.7,3.2,2.5,4.1
		c-0.4,0.2-1,0.4-1.6,0.7c1,0.3,1.8,1.1,2.1,2.3c0.4,1.7-0.6,3.4-2.3,3.9c-1.7,0.4-3.4-0.6-3.8-2.3c-0.2-0.8-0.1-1.5,0.3-2.2
		c-8.9,3.7-23.9,9.7-25.1,9.6c0,3.5-3.8,19.4-3.8,19.4c7.3,6,8.5,8.2,9.9,8.8c0.6,0.3,1.3,10.8-0.7,10.5
		c-4.4-2.7-19.4-8.3-24.1-11.2C290.8,179.7,292,173,292,168.8z"/>
	<path class="st2" d="M293.5,127.8c0.6-1.2-1-2.7,1-3c-1.5-1.7-1.6-4.5,0.8-5c0.8-0.2,2.4,1,3.2,0.8c1.1-0.4,2-2.4,3.4-2.1
		c1.3,0.2,2.2,1,3.1,1.1c0.9,0.1,1-1.3,2.2-1.8c1.7-0.6,3.3,0.3,3.3,2.6l-5.7,3.8c0,0-2.9,3.9-3.4,4.5s0.1,1.9,0.6,2.7
		c0.5,0.9-0.7,2.6-0.7,2.6c0,0,8.4,2.1,9.8,2.1c0,0,0.8,1.4,1.3,3.6c0.5,2.6,0.9,5.1,0.1,5.3c-1.4,0.3-12.2-0.1-12.7-1.6
		c-0.2-0.5-0.6-2.9-0.9-5.3c-1.3,1.2-2.9,2.2-3.9,1.8c-1-0.5-1.1-2.9-0.7-3.7c-0.8-0.4-1.9-2.6-0.4-4.6
		C291.9,130.1,293,128.8,293.5,127.8z"/>
	<path class="st1" d="M282.7,145.5c1.6-1.6,8.8-2.5,18.4-2.5c9.6,0,16.8,0.9,18.4,2.5c1.4,1.4,0.8,16-3.3,25.2
		c-5.3,11.7-12.1,16.8-15.1,16.8c-3,0-9.8-5.1-15.1-16.8C281.9,161.5,281.3,146.9,282.7,145.5z"/>
	<path class="st3" d="M291.6,126.7c0.2,0.9,1,1.5,1.9,1.4l17.9-3c0.9-0.2,1.5-1,1.4-1.9l-0.3-1.5c-0.2-0.9-1-1.5-1.9-1.4l-17.9,3
		c-0.9,0.2-1.5,1-1.4,1.9L291.6,126.7z"/>
	<path class="st3" d="M291.6,161c6.3,0,6.8,7.9,6.8,7.9h2.3c0-2.5-1-5.8-1.7-7.3c-0.6-1.5-1.2-2.4-1.2-4.5c0-2.1,1.1-4,1.7-5.5
		c0.9-2.2,1.6-4.7,1.6-4.7s0.6,2.5,1.6,4.7c0.6,1.5,1.7,3.4,1.7,5.5c0,2.1-0.5,2.9-1.2,4.5c-0.7,1.6-1.7,4.8-1.7,7.3h2.3
		c0,0,0.5-7.9,6.8-7.9c2.7,0,4.7,1.5,4.7,4.2c0,3.1-2.1,3.7-2.1,3.7s0.5-3.7-2.2-3.7c-5.1,0-6.4,3.7-6.4,3.7h0.3
		c0.4,0,0.7,0.3,0.7,0.7c0,0.4-0.3,0.7-0.7,0.7h-0.3c0,0,0.1,2,2.5,2c2.1,0,1.7-3.5,1.7-3.5s1.3,1.7,1.3,3.7c0,1.8-1.7,2.5-3,2.2
		c-3-0.7-3.3-4.4-3.3-4.4h-2.3c0,0,1.1,2.4,1.1,3.5c-0.2,1.2-1.5,2.3-1.5,2.3s-1.3-1.1-1.5-2.3c0-1.1,1.1-3.5,1.1-3.5h-2.3
		c0,0-0.3,3.7-3.3,4.4c-1.3,0.3-3-0.4-3-2.2c0-1.9,1.3-3.7,1.3-3.7s-0.4,3.5,1.7,3.5c2.4,0,2.5-2,2.5-2h-0.3c-0.4,0-0.7-0.3-0.7-0.7
		s0.3-0.7,0.7-0.7h0.3c0,0-1.3-3.7-6.4-3.7c-2.7,0-2.2,3.7-2.2,3.7s-2.1-0.6-2.1-3.7C286.9,162.4,288.8,161,291.6,161z"/>
</g>
</svg>
