<?xml version="1.0" encoding="utf-8"?>
<!-- Generator: Adobe Illustrator 25.4.1, SVG Export Plug-In . SVG Version: 6.00 Build 0)  -->
<svg version="1.1" id="레이어_1" xmlns="http://www.w3.org/2000/svg" xmlns:xlink="http://www.w3.org/1999/xlink" x="0px"
	 y="0px" viewBox="0 0 512 512" style="enable-background:new 0 0 512 512;" xml:space="preserve">
<style type="text/css">
	.st0{fill:#D4BB88;}
	.st1{fill:#33260E;}
	.st2{fill:#AA5630;}
	.st3{fill:#E8C02A;}
</style>
<g>
	<path class="st0" d="M280.3,473.9c-8,0-39.1,1.5-45,1.5c1.2,8.8-0.9,17-6.1,23.1c-5.4,6.3-13.4,9.7-22.6,9.7
		c-23,0-29.5-17.3-29.6-17.4c-4.1,10.8-14,17.9-25.9,17.9c-12.1,0-29-8-30.9-32.3c-0.9,0-29-1-29-1s-7.6,0-6.2-10
		c3.1-22.3,9.9-77.2,15.4-104c-12.1,16.1-27.9,19-37.6,19l0,0c-20.6,0-40-12.7-47.5-20.7c-3.9-4.2-11.1-23.7,10.3-34.3
		c14.8-7.4,23.9-24.3,27.4-30.6c7.4-13.4,15.7-28.6,31.7-35.7c25.7-11.3,49.9-1.5,57.8,3.4c6.7-6.5,14-11.3,21.8-14.1
		c-6.5-17.3-9.1-35.9-10.1-46.1c-3.3-34,3-40.4,6.4-43.8c4.2-4.2,10.9-8.3,28.9-10.7c0,0,0,0,0-0.1c-1.7-1.8-4.1-7.9-0.9-13.9
		c-2.9-3.4-3.3-7.7-0.6-10.4c-4.7-5.5-5.7-22.3,1.4-25.6c-0.3-3.3,4-24.1,26-20.9c2.7-2.8,12.2-8.8,21.8-4.8
		c14.5-7.3,29,0.8,33.4,7.5c10.6,5.4,11.5,20.6,11.5,20.6c1,6.2-0.5,12.2-3.8,16.9c0.8,1.8,6.6,12.9,8.1,17.3
		c1.9,5.7,1.1,11.7-2.1,16.6c2,0.6,3.9,1.4,5.5,2.1c1.2-0.4,2.4-0.8,3.6-1.2c-0.1-0.3-2.7-21.4,13.2-27.5l-19.8-70.6
		c0,0-6.9-44.1,16.5-50.2c23.5-6.2,38.3,34.5,38.3,34.5l19.6,69.7c15.1-1.1,24,10.5,26.2,21.2c2,9.7-1.5,18.9-8.8,24.1
		c0.1,0.4,0.4,10.8-1.1,14.7c0.2,1.1,0.9,1.9,1,3.1c1.7-1,3.5-1.9,5.3-2.8c5.9-6.1,13.3-13.1,20.2-19c15.4-13.1,35.9-19.3,45.3-5.5
		c5.4,7.9,2.1,16.6-2,28.3c11.3,7.3,17.7,18.3,24.2,34.1c3.3,8.1,9.5,45.1,10.9,48.6c1.5,3.8,17.2,33.7,18.1,37.1
		c3.5,13.2-6.3,29.6-6.7,30.3c-5.3,8.8-21,22.1-35.6,21.5c-14.8-0.6-17.9-3.5-40.1-31.6c-5-1-9.6-2.6-13.7-4.5
		c-2.1,5.5-4.8,11.6-8.2,18.2c16.9,1.2,30.2,4.3,37.9,14.2c7.2,9.2,9.3,21.6,5.8,34c-2,7-16.2,50.8-16.8,53.3
		c-3.5,14.5-14.6,23.9-28.2,23.9c-8.9,0-17.6-4.1-23.3-11.1c-5.4-6.5-7.5-14.9-6-23c1.1-5.9,5.3-25.8,5.7-27.6l-26,2
		c-1.1,29.1-3.4,83-5.5,94.1c-2.6,14.1-14.3,23.6-28.9,23.6C294.5,509,281.9,501.6,280.3,473.9z M331.8,193.7
		c-9.1,3.7-19.1,7.7-28.2,11.3c-1.3,11.6-4.1,28.7-10.2,44.5l0.1,0c14.8-4.3,26.5-18.8,38.5-33.6c4-4.9,8.1-10,12.4-15
		C339.6,199.7,335.2,197.2,331.8,193.7z"/>
	<g>
		<g>
			<path class="st1" d="M28.4,347.5c8.3,9,48.4,33.2,64.6-9.6c21.2-56.1,50.3-33.4,47.8-25.9c-4.1,12.4,28.4,49.5,29.7,49.6
				c2.6,0.2,122.6,0,122.6,0s4.8,108.7,5.4,120c0.6,11.3,21.1,13.9,23.6,0.6c2.5-13.3,5.8-107.4,5.8-107.4l65.3-5.1
				c-2.8,14.9-7.9,37.9-10.3,50.6c-2.3,11.9,18.4,20.5,22.7,2.6c1.5-6.4,13.2-40.6,17-54c1.3-4.6,2-12-2.7-18
				c-8.9-11.4-55.2-5.9-54.2-10.2c26.3-36.2,28-63,28-63s14.9,17.3,33.7,17.4c0,0,21.9,28.8,29.1,30.5c6.4,1.5,18.7-7.4,22-12.7
				c1.8-3,5.8-12.4,4.7-16.5c-0.9-3.3-14.1-26.4-17.5-35.1c-4.2-11-5.8-36.3-10.7-48.3c-8.9-21.7-15-27.7-33-31.9
				c-55-12.9-81.2,74.9-120.1,85c-35.8,9.4-110.9-20.8-154.1,22.8c-1.6,1.6-21.3-28.6-56-13.4c-16.5,7.2-22.7,31.8-35.5,47.4
				C43.5,338.5,25.1,343.9,28.4,347.5z M415.8,237.7c0.5-7.8,7.3-13.7,15.1-13.1c7.8,0.6,13.6,7.4,13.1,15.2
				c-0.6,7.8-7.3,13.7-15.1,13.1C421.1,252.3,415.3,245.5,415.8,237.7z"/>
		</g>
		<path class="st1" d="M216.1,467.1c0.8,5.1,1.4,9,1.6,10.6c2.5,17.2-21.8,17.5-24.1,6.4c-0.2-1-1.7-7.8-3.7-17H216.1z"/>
		<path class="st1" d="M160,467.1c0.9,7.1,1.4,12.4,1.3,13.6c-1.2,13.4-17.2,12.6-20.9,2.8c-0.8-2.2-2.3-8.4-3.9-16.5L160,467.1
			L160,467.1z"/>
	</g>
	<path class="st2" d="M364.1,199.2c8.5-7.3,31.1-38.3,76.6-11.5c21.6,12.8,21.4,52.5,24.8,72.5c0,0,10.8,21.7,15.9,31.3
		c-10,6.3-17.2,1.1-23.4-5.8c-8.7,9.4-20.8,20.9-22.6,22.3c-1.9,1.5-6-3.2-4.4-5c1.2-1.3,15.8-16.6,21.5-23.9
		c-3.2-3.9-9.6-10.7-9.9-12.5c-1.3-3.8,5.3-11.2,7.5-15.5c6.2-12.2-0.4-31.9-14-36.2c-20-6.3-35.4,10.9-37.4,16.3
		c-8.9,23.8-6,43-4.4,47.5c1.3,3.6-12.4,32.4-10.5,50.2c-4.8,0.7-23.8-2.4-26.8-6.4c-1.3-1.7,5.8-9.2,4.2-14.7
		c-0.8-2.7-12.9-9-15.8-6.9c-3,2.2-3.5,8.6-5.8,10.7c-2.8,1.6-20.2-8.7-21.4-13.5c-0.7-2.1,5.7-6.7,6.1-10
		c0.7-5.8-8.7-11.9-11.4-12.4c-2.8-0.5-8.9,6.7-10.4,5.5c-3-6.4-9.1-16.7-5.3-17.5C328,257.8,346.7,214.3,364.1,199.2z"/>
	<path class="st1" d="M391.5,186c9.8-11.5,36.4-35.6,41.2-34.5c4.5,1.1-5.5,19.6-10.4,39.9c0,0-7.6,6.4-17.1,4.8
		S391.5,186,391.5,186z"/>
	<path class="st1" d="M356.6,202.2c-8.3,7.4-17.6,17.2-25.2,25.8c-16.1,19.6-7.6,39.4,5.1,60.3c-1.7-15.8-3.6-34.7,1.1-49.6
		c2.5,13.2,14.2,26.4,23.3,38.5c-5.1-20.4-8.3-37.5-7.4-58.8c4.7,14.1,8.9,30.7,21.6,40.5c-7.6-20.4-0.1-55.4,6.2-74.2
		C381.3,184.7,364.2,195.4,356.6,202.2z"/>
	<path class="st2" d="M264.5,265.7c0,35.1,1.6,188.4-0.3,190.4c-1.3,1.4-16.7,1.6-20.4,1.5c-0.2-3.9,1.1-21.3-2.5-22.5
		c-3.8-1.3-13.2-0.4-17.2,0s-2.5,16.8-2.5,21.4c0,4.8-25.1,3.5-25.1,1c-0.2-4.2,0.9-19.2-1.1-20.9c-1.6-1.4-15.4-0.4-19.2-0.2
		c-0.1,5.8-0.8,12.2-0.8,18.1c-0.1,6.9-23.5,5.8-23.7,1.7c-0.3-3.6,0.2-17-0.2-20.9c-6.3-0.6-15.3-0.4-21.6-0.4
		c-0.4,5.9-0.7,19.7-1.7,21.6c-1.9,3.4-18,1.8-22.9,1.6c1.6-8.3,7-108.4,33.7-160.4c6.4-12.5,17.1-27.5,31.8-32.6
		C193.6,256.1,264.5,265.7,264.5,265.7z"/>
	<path class="st1" d="M201.4,241.6c0,0-2.2-59.1,8.7-75c4.7-6.8,3.4-10,3.2-13.6c-3-14.9-7.2-35.8-1.6-50.9
		c1.7-4.4,40.9-5.4,45.6,0.8c3.1,4,1.7,14.1,3.6,18.9c2.7,6.9,6.6,12.3,8.5,18.1c1.1,3.5-8.3,1.9-10.5,2.6c0,0-0.7,25.4-0.8,25.6
		c2.6,1,4.6,2.2,5.6,3.8c0.8,1.2,1.3,3.6,1.7,6.9c2.5,0.4,50.5-15.2,74.8-24.1c-1.2-3.4-2-6.1-2-6.1c-3.3,0.9-18.5,5.1-20,5.3
		c-7.5,1.3-10.5-11.1-4.1-13.5c2.1-0.8,7.6-2.5,14.2-4.5l-24-85.7c0,0-2.8-28.2,2.7-29.4c5.6-1.2,17.9,23.6,17.9,23.6l24,85.4
		c7-2.1,12.7-3.8,14.3-4.4c4.4-1.5,10.7,10.5,4.1,13.4c-2.1,1-13.5,4.6-19.7,6.6c-0.1,0.3,0.5,2.6,1.4,5.8c0.9-0.4,1.8-0.7,2.5-1
		c5.9-2.9,14.3,9.6,7.5,12.3c-1.3,0.6-3,1.4-4.9,2.2c3.1,1,5.6,3.5,6.4,6.9c1.3,5.2-1.8,10.4-7,11.7c-5.1,1.3-10.4-1.8-11.7-7
		c-0.6-2.4-0.2-4.7,0.8-6.7c-26.9,11.3-72.5,29.4-76.2,29c0.1,10.7-11.7,58.9-11.7,58.9c22.2,18.3,25.8,24.9,30.1,26.6
		c1.9,0.8,3.9,32.9-2.1,31.9c-13.3-8.3-58.9-25.1-73.3-34.1C197.6,275,201.4,254.4,201.4,241.6z"/>
	<path class="st2" d="M205.8,117.3c1.9-3.8-2.9-8.3,3-9.1c-4.5-5.1-5-13.6,2.3-15.2c2.5-0.6,7.4,2.9,9.6,2.3
		c3.5-1.3,6.2-7.2,10.3-6.2c3.8,0.6,6.5,3.1,9.5,3.3c2.8,0.2,3.1-4,6.6-5.3c5.1-1.9,10,0.8,10,7.9l-17.4,11.5
		c0,0-8.7,11.7-10.3,13.6s0.2,5.6,1.8,8.3c1.5,2.7-2.1,8-2.1,8c0,0.1,25.4,6.3,29.8,6.3c0,0,2.5,4.2,3.9,10.8
		c1.6,7.9,2.7,15.6,0.3,16.1c-4.1,1-37.1-0.3-38.7-4.8c-0.6-1.6-1.8-8.8-2.6-16c-4.1,3.8-8.9,6.6-11.8,5.3
		c-3.1-1.4-3.5-8.8-2.2-11.3c-2.5-1.1-5.7-8-1.1-13.9C201.2,124.3,204.4,120.2,205.8,117.3z"/>
	<path class="st1" d="M173.1,171.1c5-5,26.7-7.6,55.9-7.7c29.2,0.1,50.9,2.7,55.9,7.7c4.2,4.2,2.5,48.6-10.2,76.7
		c-16.1,35.7-36.7,51.1-45.8,51.1s-29.6-15.4-45.8-51.1C170.5,219.7,168.9,175.3,173.1,171.1z"/>
	<path class="st3" d="M200.1,113.9c0.5,2.8,3.1,4.7,5.8,4.2l54.3-9.1c2.8-0.5,4.6-3.1,4.2-5.9l-0.8-4.6c-0.5-2.8-3.1-4.7-5.8-4.2
		l-54.3,9.1c-2.8,0.5-4.6,3.1-4.2,5.9L200.1,113.9z"/>
	<path class="st3" d="M200.1,218c19.1,0,20.7,24,20.7,24h7.1c0-7.6-3.1-17.5-5.1-22.2c-2-4.6-3.6-7.3-3.6-13.5s3.2-12,5.2-16.6
		c2.8-6.7,4.8-14.2,4.8-14.2s1.9,7.5,4.8,14.2c2,4.6,5.2,10.4,5.2,16.6c0,6.2-1.6,8.9-3.6,13.5c-2,4.7-5.1,14.6-5.1,22.2h7.1
		c0,0,1.6-24,20.7-24c8.3,0,14.3,4.4,14.3,12.9c0,9.3-6.4,11.1-6.4,11.1s1.6-11.1-6.8-11.1c-15.5,0-19.5,11.1-19.5,11.1h0.8
		c1.1,0,2,1,2,2.2c0,1.2-0.9,2.2-2,2.2h-0.8c0,0,0.4,6.2,7.5,6.2c6.4,0,5.2-10.6,5.2-10.6s4,5.3,4,11.1c0,5.3-5.2,7.6-9.1,6.7
		c-9.1-2.2-9.9-13.3-9.9-13.3h-7.1c0,0,3.3,7.4,3.4,10.8c-0.6,3.7-4.6,7-4.6,7s-3.9-3.3-4.6-7c0.1-3.3,3.4-10.8,3.4-10.8h-7.1
		c0,0-0.8,11.1-9.9,13.3c-4,1-9.1-1.3-9.1-6.7c0-5.8,4-11.1,4-11.1s-1.2,10.6,5.2,10.6c7.1,0,7.5-6.2,7.5-6.2h-0.8c-1.1,0-2-1-2-2.2
		s0.9-2.2,2-2.2h0.8c0,0-4-11.1-19.5-11.1c-8.3,0-6.8,11.1-6.8,11.1s-6.4-1.8-6.4-11.1C185.8,222.4,191.7,218,200.1,218z"/>
</g>
</svg>
