<?xml version="1.0" encoding="utf-8"?>
<!-- Generator: Adobe Illustrator 25.4.1, SVG Export Plug-In . SVG Version: 6.00 Build 0)  -->
<svg version="1.1" id="레이어_1" xmlns="http://www.w3.org/2000/svg" xmlns:xlink="http://www.w3.org/1999/xlink" x="0px"
	 y="0px" viewBox="0 0 512 512" style="enable-background:new 0 0 512 512;" xml:space="preserve">
<style type="text/css">
	.st0{fill:#D4BB88;}
	.st1{fill:#33260E;}
	.st2{fill:#AA5630;}
	.st3{fill:#E8C02A;}
</style>
<g>
	<path class="st0" d="M473.96,231.68c0.01,8,1.51,39.13,1.51,45c8.82-1.23,17,0.94,23.06,6.14c6.26,5.37,9.71,13.39,9.71,22.57
		c0,23.03-17.27,29.54-17.39,29.59c10.77,4.14,17.94,14.03,17.94,25.9c0,12.15-7.98,28.96-32.34,30.92
		c0.02,0.88-1.03,28.97-1.03,28.97s0.05,7.6-10.01,6.22c-22.28-3.06-77.19-9.94-104.02-15.35c16.11,12.13,18.95,27.94,18.95,37.6
		l0,0c0,20.64-12.69,40.05-20.69,47.45c-4.2,3.87-23.67,11.11-34.27-10.26c-7.35-14.82-24.27-23.89-30.61-27.36
		c-13.43-7.35-28.62-15.69-35.66-31.69c-11.29-25.67-1.47-49.91,3.35-57.83c-6.54-6.71-11.25-13.99-14.07-21.75
		c-17.31,6.51-35.89,9.1-46.13,10.1c-34.02,3.31-40.35-2.99-43.75-6.37c-4.21-4.18-8.29-10.87-10.71-28.89c-0.02,0-0.04,0-0.05,0
		c-1.81,1.72-7.89,4.1-13.95,0.93c-3.35,2.86-7.66,3.34-10.38,0.63c-5.48,4.66-22.34,5.72-25.56-1.43
		c-3.35,0.32-24.06-4-20.92-26.05c-2.81-2.72-8.78-12.23-4.81-21.76c-7.32-14.46,0.75-29,7.53-33.4
		c5.43-10.6,20.58-11.51,20.58-11.51c6.15-1.01,12.15,0.52,16.9,3.81c1.79-0.8,12.87-6.6,17.28-8.06c5.7-1.88,11.7-1.13,16.61,2.07
		c0.64-2.03,1.35-3.86,2.14-5.53c-0.39-1.18-0.77-2.39-1.16-3.59c-0.33,0.07-21.4,2.7-27.53-13.19l-70.63,19.79
		c0,0-44.09,6.94-50.25-16.52s34.55-38.32,34.55-38.32l69.74-19.57c-1.07-15.12,10.54-24.02,21.16-26.22
		c9.74-2.02,18.93,1.49,24.14,8.79c0.44-0.11,10.79-0.41,14.7,1.14c1.07-0.21,1.95-0.85,3.1-0.99c-0.99-1.73-1.9-3.49-2.75-5.28
		c-6.1-5.87-13.13-13.35-18.98-20.22c-13.1-15.39-19.27-35.88-5.52-45.27c7.91-5.41,16.56-2.15,28.29,2
		c7.31-11.34,18.27-17.72,34.15-24.21c8.13-3.33,45.1-9.5,48.62-10.86c3.76-1.45,33.7-17.23,37.05-18.12
		c13.17-3.45,29.57,6.27,30.26,6.69c8.8,5.29,22.12,21.02,21.53,35.61c-0.6,14.79-3.55,17.93-31.61,40.07
		c-0.96,4.95-2.59,9.55-4.55,13.7c5.48,2.09,11.59,4.77,18.21,8.23c1.23-16.87,4.32-30.2,14.18-37.91
		c9.19-7.18,21.57-9.29,33.96-5.77c7.05,2,50.8,16.18,53.3,16.79c14.52,3.5,23.89,14.57,23.89,28.18c0,8.87-4.15,17.58-11.09,23.29
		c-6.51,5.35-14.89,7.53-22.99,5.99c-5.88-1.12-25.75-5.31-27.61-5.7l2.04,26.04c29.09,1.12,82.98,3.43,94.15,5.54
		c14.1,2.64,23.57,14.27,23.57,28.92C509.05,217.56,501.65,230.15,473.96,231.68z M193.76,180.22c3.73,9.14,7.7,19.06,11.26,28.25
		c11.64,1.3,28.72,4.12,44.49,10.23l0.01-0.14c-4.27-14.77-18.76-26.51-33.61-38.52c-4.9-3.97-9.97-8.08-14.96-12.38
		C199.74,172.45,197.22,176.78,193.76,180.22z"/>
	<g>
		<g>
			<path class="st1" d="M347.48,483.65c8.95-8.26,33.24-48.44-9.65-64.61c-56.14-21.16-33.42-50.27-25.92-47.77
				c12.41,4.13,49.53-28.44,49.62-29.72c0.18-2.57,0.03-122.62,0.03-122.62s108.74-4.8,120.04-5.44
				c11.32-0.63,13.87-21.07,0.57-23.56c-13.31-2.51-107.44-5.83-107.44-5.83l-5.11-65.35c14.91,2.76,37.93,7.92,50.65,10.34
				c11.85,2.26,20.48-18.39,2.6-22.7c-6.38-1.54-40.58-13.16-54-16.97c-4.58-1.3-12.03-2.01-18,2.65
				c-11.39,8.91-5.86,55.18-10.22,54.21c-36.2-26.26-63.03-27.96-63.03-27.96s17.3-14.85,17.41-33.7c0,0,28.8-21.86,30.5-29.06
				c1.52-6.42-7.35-18.74-12.72-21.98c-3.03-1.82-12.41-5.77-16.45-4.71c-3.3,0.86-26.39,14.12-35.13,17.49
				c-10.97,4.23-36.31,5.82-48.28,10.73c-21.72,8.89-27.69,15.05-31.88,32.95c-12.89,54.96,74.85,81.22,85.03,120.08
				c9.36,35.76-20.82,110.86,22.8,154.14c1.57,1.56-28.57,21.32-13.38,55.97c7.24,16.55,31.78,22.68,47.41,35.46
				C338.53,468.51,343.92,486.93,347.48,483.65z M237.73,96.18c-7.8-0.54-13.68-7.32-13.12-15.09c0.56-7.77,7.37-13.63,15.17-13.08
				c7.83,0.58,13.71,7.34,13.13,15.1C252.35,90.88,245.56,96.75,237.73,96.18z"/>
		</g>
		<path class="st1" d="M467.15,295.92c5.11-0.77,8.97-1.35,10.65-1.6c17.25-2.54,17.46,21.81,6.39,24.14
			c-1.04,0.22-7.8,1.68-17.04,3.66V295.92z"/>
		<path class="st1" d="M467.15,352.02c7.15-0.85,12.36-1.39,13.62-1.28c13.4,1.21,12.58,17.21,2.83,20.89
			c-2.21,0.84-8.4,2.28-16.45,3.93V352.02z"/>
	</g>
	<path class="st2" d="M199.27,147.87c-7.31-8.45-38.33-31.13-11.5-76.56c12.76-21.59,52.49-21.39,72.51-24.78
		c0,0,21.72-10.8,31.3-15.88c6.26,10.04,1.15,17.17-5.8,23.38c9.42,8.7,20.92,20.82,22.31,22.58c1.49,1.9-3.18,6.03-5.01,4.39
		c-1.33-1.2-16.62-15.81-23.94-21.51c-3.87,3.23-10.67,9.55-12.47,9.91c-3.84,1.27-11.22-5.31-15.54-7.52
		c-12.24-6.24-31.94,0.39-36.2,13.98c-6.28,20.01,10.91,35.39,16.3,37.39c23.84,8.88,43.04,5.99,47.48,4.43
		c3.62-1.27,32.37,12.39,50.25,10.48c0.71,4.82-2.42,23.83-6.39,26.79c-1.7,1.27-9.18-5.79-14.69-4.22
		c-2.7,0.77-9.03,12.95-6.93,15.78c2.24,3.01,8.64,3.48,10.69,5.78c1.57,2.79-8.67,20.18-13.55,21.42
		c-2.15,0.67-6.67-5.73-10.01-6.14c-5.77-0.71-11.89,8.74-12.35,11.43c-0.48,2.78,6.74,8.88,5.54,10.38
		c-6.41,3.02-16.72,9.12-17.46,5.29C257.83,183.98,214.37,165.32,199.27,147.87z"/>
	<path class="st1" d="M186.06,120.55c-11.5-9.85-35.63-36.44-34.5-41.19c1.07-4.5,19.59,5.5,39.93,10.38c0,0,6.39,7.62,4.79,17.15
		S186.06,120.55,186.06,120.55z"/>
	<path class="st1" d="M202.24,155.39c7.45,8.26,17.25,17.58,25.77,25.2c19.59,16.09,39.4,7.62,60.26-5.09
		c-15.76,1.7-34.71,3.6-49.61-1.06c13.2-2.54,26.41-14.19,38.54-23.3c-20.44,5.09-37.48,8.26-58.78,7.41
		c14.06-4.66,30.67-8.89,40.46-21.6c-20.44,7.62-55.42,0.1-74.16-6.25C184.73,130.71,195.39,147.8,202.24,155.39z"/>
	<path class="st2" d="M265.71,247.52c35.14,0,188.36-1.59,190.37,0.32c1.37,1.3,1.64,16.71,1.46,20.44
		c-3.85,0.23-21.29-1.13-22.51,2.46c-1.27,3.75-0.44,13.22,0,17.23c0.44,4.01,16.82,2.53,21.37,2.53c4.79-0.01,3.51,25.1,0.96,25.1
		c-4.25,0.25-19.16-0.92-20.92,1.06c-1.4,1.57-0.36,15.44-0.16,19.18c5.79,0.11,12.22,0.79,18.1,0.84
		c6.92,0.07,5.75,23.51,1.7,23.72c-3.62,0.31-16.96-0.18-20.87,0.22c-0.64,6.26-0.36,15.26-0.37,21.6
		c5.92,0.35,19.74,0.69,21.56,1.7c3.44,1.92,1.81,17.99,1.6,22.87c-8.33-1.61-108.39-6.99-160.35-33.67
		c-12.45-6.39-27.47-17.15-32.58-31.77C256.12,318.46,265.71,247.52,265.71,247.52z"/>
	<path class="st1" d="M241.64,310.63c0,0-59.06,2.19-74.96-8.68c-6.81-4.66-10.01-3.39-13.63-3.17c-14.91,2.96-35.79,7.23-50.9,1.59
		c-4.42-1.66-5.37-40.86,0.85-45.64c4.02-3.08,14.09-1.69,18.95-3.6c6.87-2.7,12.35-6.56,18.1-8.48c3.47-1.15,1.92,8.26,2.55,10.48
		c0,0,25.35,0.74,25.58,0.81c0.99-2.62,2.22-4.65,3.8-5.63c1.18-0.75,3.65-1.28,6.93-1.7c0.37-2.54-15.23-50.48-24.07-74.77
		c-3.45,1.16-6.05,2.04-6.05,2.04c0.89,3.31,5.07,18.52,5.33,20.04c1.26,7.52-11.13,10.49-13.46,4.08
		c-0.75-2.09-2.47-7.64-4.48-14.25l-85.72,24.04c0,0-28.21,2.84-29.41-2.71c-1.2-5.56,23.57-17.93,23.57-17.93l85.41-23.96
		c-2.09-7.02-3.82-12.74-4.36-14.29c-1.51-4.4,10.53-10.74,13.45-4.07c0.96,2.13,4.65,13.54,6.64,19.66
		c0.29,0.08,2.65-0.54,5.79-1.41c-0.38-0.94-0.73-1.81-1.03-2.51c-2.95-5.93,9.57-14.27,12.32-7.51c0.6,1.3,1.35,2.98,2.21,4.91
		c0.98-3.07,3.48-5.6,6.85-6.44c5.18-1.3,10.43,1.81,11.74,6.96c1.31,5.15-1.83,10.37-7,11.68c-2.36,0.59-4.7,0.24-6.7-0.77
		c11.32,26.93,29.44,72.52,29.04,76.2c10.67-0.12,58.85,11.67,58.85,11.67c18.31-22.24,24.91-25.84,26.62-30.07
		c0.76-1.89,32.9-3.92,31.94,2.11c-8.3,13.34-25.13,58.88-34.07,73.28C274.98,314.38,254.42,310.63,241.64,310.63z"/>
	<path class="st2" d="M117.34,306.23c-3.78-1.88-8.33,2.93-9.1-3.02c-5.11,4.45-13.63,4.98-15.22-2.33
		c-0.64-2.54,2.93-7.36,2.29-9.59c-1.28-3.49-7.19-6.2-6.23-10.33c0.64-3.81,3.07-6.54,3.3-9.53c0.21-2.76-4.04-3.07-5.33-6.56
		c-1.92-5.09,0.85-9.95,7.88-9.95l11.5,17.37c0,0,11.71,8.68,13.63,10.27c1.92,1.59,5.64-0.21,8.3-1.75c2.66-1.54,8,2.11,8,2.11
		c0.14-0.05,6.26-25.36,6.26-29.8c0,0,4.21-2.54,10.8-3.91c7.87-1.64,15.61-2.74,16.13-0.32c0.96,4.13-0.32,37.06-4.79,38.65
		c-1.6,0.63-8.82,1.78-16.02,2.64c3.77,4.07,6.64,8.89,5.32,11.76c-1.41,3.07-8.78,3.49-11.34,2.23c-1.12,2.54-7.98,5.72-13.89,1.11
		C124.36,310.84,120.21,307.66,117.34,306.23z"/>
	<path class="st1" d="M171.15,338.93c-5-4.97-7.55-26.67-7.66-55.91c0.1-29.24,2.66-50.94,7.66-55.91
		c4.19-4.16,48.55-2.54,76.66,10.16c35.67,16.13,51.11,36.74,51.11,45.75c0,9.01-15.44,29.62-51.11,45.75
		C219.7,341.47,175.33,343.09,171.15,338.93z"/>
	<path class="st3" d="M113.88,311.92c2.79-0.46,4.67-3.08,4.21-5.84l-9.06-54.33c-0.46-2.77-3.1-4.64-5.88-4.18l-4.62,0.77
		c-2.78,0.46-4.67,3.08-4.2,5.84l9.06,54.32c0.46,2.77,3.1,4.65,5.88,4.18L113.88,311.92z"/>
	<path class="st3" d="M218.02,311.94c0-19.06,23.97-20.66,23.97-20.66v-7.07c-7.55,0-17.47,3.14-22.19,5.14
		c-4.63,1.95-7.29,3.6-13.53,3.6c-6.24,0-12.02-3.21-16.65-5.17c-6.73-2.84-14.2-4.76-14.2-4.76s7.46-1.92,14.2-4.76
		c4.63-1.96,10.41-5.17,16.65-5.17c6.25,0,8.9,1.65,13.53,3.61c4.73,2,14.65,5.14,22.19,5.14v-7.07c0,0-23.97-1.59-23.97-20.66
		c0-8.33,4.44-14.3,12.87-14.3c9.32,0,11.1,6.35,11.1,6.35s-11.1-1.58-11.1,6.76c0,15.49,11.09,19.46,11.09,19.46v-0.79
		c0-1.1,0.99-1.99,2.22-1.99c1.22,0,2.22,0.89,2.22,1.99v0.79c0,0,6.21-0.4,6.21-7.55c0-6.36-10.65-5.17-10.65-5.17
		s5.27-3.98,11.09-3.98c5.33,0,7.62,5.18,6.66,9.14c-2.22,9.14-13.31,9.93-13.31,9.93v7.07c0,0,7.43-3.29,10.76-3.39
		c3.74,0.65,7,4.57,7,4.57s-3.26,3.91-7,4.57c-3.33-0.1-10.76-3.39-10.76-3.39v7.07c0,0,11.09,0.79,13.31,9.93
		c0.96,3.96-1.33,9.14-6.66,9.14c-5.82,0-11.09-3.97-11.09-3.97s10.65,1.19,10.65-5.17c0-7.15-6.21-7.54-6.21-7.54v0.79
		c0,1.1-0.99,1.99-2.22,1.99c-1.23,0-2.22-0.89-2.22-1.99v-0.79c0,0-11.09,3.97-11.09,19.46c0,8.34,11.1,6.75,11.1,6.75
		s-1.77,6.35-11.1,6.35C222.46,326.24,218.02,320.27,218.02,311.94z"/>
</g>
<g>
</g>
<g>
</g>
<g>
</g>
<g>
</g>
<g>
</g>
<g>
</g>
</svg>
