<?xml version="1.0" encoding="utf-8"?>
<!-- Generator: Adobe Illustrator 25.4.1, SVG Export Plug-In . SVG Version: 6.00 Build 0)  -->
<svg version="1.1" id="레이어_1" xmlns="http://www.w3.org/2000/svg" xmlns:xlink="http://www.w3.org/1999/xlink" x="0px"
	 y="0px" viewBox="0 0 512 512" style="enable-background:new 0 0 512 512;" xml:space="preserve">
<style type="text/css">
	.st0{fill:#D4BB88;}
	.st1{fill:#33260E;}
	.st2{fill:#898634;}
</style>
<g>
	<path class="st0" d="M10.8,122.8c-7.5,5.3-8.7,17.7-6.8,26.3c3.3,15.3,17.6,23.8,33.6,33.4c6.9,4.2,13.9,7.3,23.7,10.5
		c9.3,3.1,19.1,2.2,28.6,1.9c8.6-0.3,17.5-0.6,26,0.4c6.3,0.7,14.9,2.4,17.7,8.9c2.6,5.7-1.1,11.8-3.5,16.9
		c-4.4,9.2-8,14.3-10.4,18.2c-6.9,11.2-9.2,26-6.9,36.9c4.7,23.6,31.8,37.3,35.3,39c8.6,4.2,19.4,7.1,32,18.2
		c2.9,2.6,5.1,4.9,6.6,6.4c1.5,0.4,9.9,2.4,18.1-2.6c7.3-4.5,9.8-11.5,10.3-13.2c0.3-0.1,10.8,9.4,18.8,11.9
		c8.3,2.7,57.5,20.9,60.5,21.2l57.2,8.6c15.5,2.1,30.7-8.6,34.7-23.9c27.1,3.3,47.4,1.2,54.3-16.7c6.2,16.3,17.3,25.7,32,25.9
		c8.8,0.1,17-3.2,23.4-9.5c9.3-9.2,13.6-23.5,13.6-45.2c0-14.3-2.4-31.4-2.4-31.4s2.4-17.1,2.4-31.4c0-21.7-4.4-36.1-13.6-45.2
		c-6.3-6.2-14.6-9.6-23.4-9.5c-4.8,0.1-9.5,1.3-13.6,3.4l-136.6-18.7c-4.6-7.9-12.3-13.6-21.6-15.2l-60.7-9.7
		c-8.1-1.4-22.8,3.3-28.7,9.7l-23.8-3.3c0,0-23.7-1.1-37-2.3c-25.5-2.6-24.3-7.2-56.8-13.3c-24.3-4.5-44.9-5.6-56.4-6.2
		C20.4,122.6,15.8,119.2,10.8,122.8z"/>
	<path class="st1" d="M63.5,152.5c-2.4-2.8,0.7-6.9-2-11.2c-2-3.2-4.6-2.4-12.7-5.9c-7-3-15.5-7.9-16.4-6.9
		c-0.8,0.9-0.6,1.6-0.6,1.6c0,0,0,0,0,0c0.2,1.3,1.9,1.9,4.2,3c0.4,0.2,2,1,5.3,2.7c14,7.5,15.2,9.7,15.4,11.3
		c0.1,0.4,0.2,1.8-0.5,2.4c-1.1,0.8-3.4-0.8-9.4-4.5c-7.9-4.9-5.4-2.9-9.1-5.3c-4.5-2.9-6.3-4.1-7.7-3.4c-0.5,0.3-1.1,0.9-1.1,1.5
		c-0.1,1.4,2,2.4,5.4,4.3c0,0,1.3,0.7,6.5,3.7c4.6,2.6,12.2,6.3,12.6,7.5c0.3,1-0.1,2.4-1,2.9c-1.3,0.7-2.7-0.8-9.1-4.3
		c-0.5-0.3-1.8-0.9-4.3-2.3c-2.3-1.3-2.1-1-4.4-2.3c-4.7-2.5-6.1-3.6-7.4-3c-0.1,0-1,0.5-1.1,1.4c-0.2,1.8,3.6,3.4,10.1,6.4
		c10.9,5.1,13.8,6.9,13.9,9.2c0,0.8-0.3,1.8-1,2.3c-1.3,0.9-2.8-0.4-9.4-3.3c-3.1-1.3-4.8-2-7.5-3.6c-0.7-0.4-1.4-0.8-2.2-1.3
		c-3.8-2.4-5.4-3.9-6.8-3.2c-0.7,0.4-1.3,1.2-1.2,2c0.2,1.5,1.9,3.2,12.3,7.2c8.3,3.2,12.8,4.4,12.8,6.4c0,1-1.1,1.7-1.4,1.9
		c-2.9,1.9-7.7-0.4-16.1-4.5c-0.2-0.1-0.5-0.2-0.9-0.5c-0.9-0.5-1.4-1.1-3.4-2.4c-4-2.6-4.9-2.2-5.1-2c-0.7,0.4-0.8,1.4-0.8,1.7
		c0,0,0,0,0,0.1c0,2.3,12.8,8.2,12.8,8.2c4.5,2.1,6.8,3.1,7.5,3.4c8,3.8,9,4.7,10.5,4.1c3.2-1.3,2.6-6.7,7.1-8.4
		c0.4-0.2,0.9-0.2,2-0.4c0.4-0.1,4.3-0.7,8.4-0.5c23.3,1.2,148.6,19.4,150.5,19.6c1.1,0.1,2,0.7,2.7,1.7c3.1,4.9,8.5,8.2,14.8,8.2
		c4.6,0,8.6-1.7,11.7-4.6c0.9-0.7,1.9-1.1,3-1l6.9,1c3.2,0.4,4.4,4.5,1.8,6.5l-20,16.5c-0.1,0.1-0.1,0.1-0.2,0.2
		c-0.7,0.5-5.9,4.3-6.4,10.6c-0.1,1.9-0.5,6.3-1,11.5c-0.3,3.3-4.5,4.6-6.5,2c-6.4-7.9-16.3-12.2-28-14.1c-1.6-0.2-2.9-1.5-3.1-3.1
		c-1.1-7.9-2.4-12.7-3.9-12.7c-1.2,0-2.3,3.2-3.3,8.6c-0.2,1.3-1.1,2.3-2.2,2.8c-2.1,0.9-5,1.5-8.3,2.1c-1.2,0.2-25.1,9-35.2,15.1
		c-9.4,5.7-11.4,13.8-10.8,24.4c0.6,11.8,4.4,22.8,13.3,30.9c9.8,8.8,22.6,10.5,27.1,10.9c3.5,0.3,14.4,0.7,14.4,1.4
		c0,0.2,0.5,1.2,1.2,2c0.2,0.3,0.4,0.9,0.5,1.4c1,5.4,2,8.6,3.3,8.6c1.5,0,2.9-4.8,3.9-12.7c0.2-1.6,1.5-2.9,3.1-3.1
		c11.7-1.8,21.6-6.2,28-14.1c2-2.6,6.2-1.2,6.5,2l1.2,12.8c0,0.3,0.1,0.6,0.2,1c0.5,1.4,2.4,5.3,8.4,7.7c14.4,5.9,51.8,21.8,55,22.1
		c3.3,0.3,58.3,6.7,58.3,6.7c3.8,0.5,7.5-3.4,8-6.9s-2-8.1-5.9-8.6c0,0-54.7-7.8-56.6-8.6c-0.2-0.1-0.4-0.2-0.7-0.3
		c-3.6-1.6-2.4-7,1.5-7h29.2c16.5,0,81.7,13.5,87,7c1.2-1.5,1.8-7.2,2.1-15.4c0.1-2,1.8-3.6,3.7-3.5c13.4,0.4,27.4,0.7,33.4,0.9
		c1.8,0,3.3,1.4,3.5,3.2c1,7.1,4,24.1,12.8,24.3c15,0.2,12.3-35.6,11.2-49.4c-0.4-5.3-6.6-5.5-6.6-5.5l-54.6-1.4
		c-1.9,0-3.5-1.6-3.6-3.6c0-0.5,0-1.1,0-1.6s0-1.1,0-1.6c0-1.9,1.6-3.5,3.6-3.6l54.2-1.6c0,0,6.5,0.4,7.1-5.5
		c1.4-13.8,3.7-49.5-11.2-49.3c-2.2,0-4.2,1.3-5.7,3.1c-0.9,1-2,1.5-3.3,1.3L305.4,186c-2.1-0.3-3.5-2.3-3.1-4.5
		c0.6-3.5-1.7-8.3-5.5-8.9l-60.7-9.7c-0.2,0-0.4,0-0.6,0c-6.5,0.1-12.1,3.7-15,9c-0.7,1.4-2.2,2.1-3.7,1.9l-87.1-11.9
		c-0.2-0.1-7-1-15.6-2.6C101.4,157.1,65.1,154.3,63.5,152.5z M423,216.1l34.4,4.7c2,0.3,3.4,2.1,3.1,4.3c-0.1,1-0.2,1.8-0.3,2.6
		c-0.2,1.8-1.7,3.2-3.5,3.2c-6.2,0.2-20,0.5-33.5,0.9c-2,0-3.7-1.5-3.7-3.5c-0.1-3-0.3-5.7-0.5-8C418.6,217.8,420.6,215.8,423,216.1
		z M292.3,198.2l73.1,10c4.3,0.5,4.3,6.7,0,7.3c-14.9,2.1-28.7,4.2-35.2,4.2h-49.9c-3.1,0-4.8-3.6-2.9-6l11.5-14.3
		C289.8,198.6,291.1,198,292.3,198.2z M59.6,150.1C59.6,150.1,59.5,150.1,59.6,150.1C59.5,150.1,59.6,150.1,59.6,150.1L59.6,150.1z"
		/>
	<g>
		<path class="st2" d="M381.5,273.4c2.9,2.1,17.9,2.7,20.9,0.7c3-1.9,4-14.6,0.6-18.2c-3.3-3.6-13.3-2.2-19.1-1.3
			C378.8,255.5,378.7,271.3,381.5,273.4z"/>
		<path class="st2" d="M295.9,257.3c-2.9-3.2-11.2-1.6-16.1-0.5c-4.4,1,13.6,19.3,16.1,17.5C298.2,272.2,298.7,260.5,295.9,257.3z"
			/>
		<path class="st2" d="M330.5,230.2c-3-2.9-11.2-1.4-16.1-0.5c-4.4,0.9-3.9,13.5-1.5,15.2c2.4,1.6,15.1,1.6,17.6,0
			C332.9,243.3,333.3,232.9,330.5,230.2z"/>
		<path class="st2" d="M329.7,256.4c-3-3.2-11.2-1.6-16.1-0.5c-4.4,1-3.9,15.5-1.5,17.5c2.4,1.9,15.1,1.9,17.6,0
			C332.2,271.4,332.7,259.5,329.7,256.4z"/>
		<path class="st2" d="M263,231.7c-2.8-2.8-10.5-1.4-15.1-0.4c-4.2,0.9-3.7,13.3-1.4,14.9c2.3,1.6,14.3,1.6,16.5,0
			C265.3,244.5,265.7,234.4,263,231.7z"/>
		<path class="st2" d="M383.4,224.2c-5.1,1.3-3.8,17-0.9,18.8c3,1.9,18,1.2,20.9-1c2.8-2.1,2.8-14.9-0.9-18.2
			C398.9,220.6,389.1,222.7,383.4,224.2z"/>
		<path class="st2" d="M382.9,307.3c-5.1-1.3-3.8-17-0.9-18.8c3-1.9,18-1.2,20.9,1c2.8,2.1,2.8,14.9-0.9,18.2
			C398.5,311,388.7,308.8,382.9,307.3z"/>
		<path class="st2" d="M366.1,256.5c-3.5-3.2-13.3-1.6-19.1-0.5c-5.1,1-4.6,15.4-1.7,17.3s18,1.8,20.9,0
			C369,271.4,369.5,259.7,366.1,256.5z"/>
		<path class="st2" d="M365.3,228c-3.5-3-13.3-1.5-19.1-0.5c-5.1,0.9-4.6,14.1-1.7,15.9c2.9,1.7,17.9,1.7,20.9,0
			C368.1,241.7,368.7,230.9,365.3,228z"/>
		<path class="st2" d="M278.7,246.9c2.3,1.6,14.3,1.6,16.6,0c2.3-1.6,2.8-11.8,0-14.6s-10.6-1.4-15.2-0.4
			C276,232.6,276.4,245.3,278.7,246.9z"/>
	</g>
</g>
<path class="st1" d="M-29,124.6"/>
<path class="st1" d="M-29,124.6"/>
<path class="st1" d="M-29,124.6"/>
<path class="st1" d="M-5.8,350.6"/>
</svg>
