<?xml version="1.0" encoding="utf-8"?>
<!-- Generator: Adobe Illustrator 25.4.1, SVG Export Plug-In . SVG Version: 6.00 Build 0)  -->
<svg version="1.1" id="레이어_1" xmlns="http://www.w3.org/2000/svg" xmlns:xlink="http://www.w3.org/1999/xlink" x="0px"
	 y="0px" viewBox="0 0 512 512" style="enable-background:new 0 0 512 512;" xml:space="preserve">
<style type="text/css">
	.st0{fill:#D4BB88;}
	.st1{fill:#33260E;}
</style>
<g>
	<path class="st0" d="M149.42,90.98c-14.66,19.98-17.93,32.62-16.21,41.4c-13.95,8.25-26.42,18.32-36.96,26.94
		c-0.36-13.37-7.85-23.75-22.28-30.85c-13.95-6.86-32-5.27-47.12,4.14c-15.33,9.55-24.49,25.33-24.49,42.21
		c0,6.6,1.37,13.2,4.06,19.61c5.8,13.81,17.08,26.26,32,35.4l18.77,19.47c-0.62,0.47-30.12,15.66-30.12,52.41
		c0,28.55,20.46,58.86,53.21,70.7c8.71,3.24,29.4,7.33,69.35,14.66v26.63c0,17.24,12.64,31.31,30.06,33.46
		c15.42,1.9,32.73-8.18,37.81-17.91c5.08-9.73,17.56,9.3,30.64,5.98c2.37-0.6,34.7-2.69,35.4-64.31l166.32,44.91
		c0,0,16.35,6.26,15.63-8.26c-0.57-11.6-0.97-27.43-1.14-30.07c20.8,1.53,28.02-0.52,35.15-6.8c5.7-5.01,9-12.2,9.08-19.75
		c0.03-0.76,1.05-16.76,1.05-24.29c0-16.93-4.08-27.07-9.55-33.07c5.08-4.31,8.44-10.47,8.5-19.43c0.03-0.76,1.05-16.74,1.05-24.28
		c0-35.94-18.43-41.31-29.41-41.31c-4.73,0-8.89,1.02-12.59,2.79c0,0,1.87-10.18-6.09-8.79c-7.97,1.38-127.8,27.61-127.8,27.61
		c20.2-12.15,36.63-28.89,36.63-55.38c0-16.89-9.15-32.67-24.48-42.21c-15.12-9.42-33.18-11-47.11-4.14
		c-14.66,7.21-22.15,17.8-22.3,31.46c-11.15-8.82-24.49-19.33-39.32-27.84c2.61-9.43-1.6-21.14-16.26-41.11
		c-12.54-17.09-27.76-26.36-35.74-26.36C177.17,64.62,161.96,73.88,149.42,90.98z M255.45,226.67l-22.47,22.47
		c0.08-0.44,5.53-36.33,5.62-36.82C239,212.66,255.03,226.33,255.45,226.67z M151.46,231.42c-3.36-0.93-16.72-1.7-20.31-1.7
		c-1.14-1.29-2.34-2.48-3.61-3.58c4.22-3.56,19.96-18.09,23.91-21.46L151.46,231.42L151.46,231.42z"/>
	<path class="st1" d="M159.33,128.28c2.78,2.42,10.85-4.85,18.34-8.82v23.48c-42.23,6.01-82.09,59.86-97.87,56.97
		c-15.25-2.8-28.08-10.67-31.16-17.84c-2.78-6.5-0.21-14.18,3-16.11c4.86-2.92,15.25,4.51,17.41-1.07
		c2.87-7.48-0.85-10.03-6.66-12.89c-13.54-6.66-41.54,9.1-31.8,32.3c3.07,7.32,10.18,16.98,24.19,24.75l37.09,38.48
		c3.33-2.05,6.31-4.66,9.04-7.54l-20.73-21.5c28.72,6.03,51.76-48.73,97.48-56.59v109.03c-4.06,3.38-8.35,11.01-10.15,19.7
		c-3.99-0.48-8.24-1.57-12.3-4.39c-3.73-2.58,2.96-29.31-14.32-30.08c-8.21-0.37-16.55-0.27-24.62,0.41
		c-1.28-4.17-3.4-9.03-6.85-11.33c-4.69,5.86-9.9,11.84-16.53,15.46c-9.75,2.85-18.17,7.13-24.1,13.26l-0.1-0.04
		c-16.04,3.44-17.41,27.9-13.71,41.35c5.18,17,18.64,26.91,34.33,32.56c8.86,3.39,51.31,10.97,86.52,17.39c0,22.34,0,43.69,0,48.49
		c0,10.89,17.76,9.17,20.06,0c0.94-3.76,4.79-22.42,8.99-43.1c9.15,1.77,16.06,3.26,19.09,4.13c30.3,8.73,18.57,32.69,19.62,32.89
		c15.62-8.93,20.96-50.73,0.16-63.71c21.79,0,40.34,0,40.34,0l154.46,41.7c0,0-0.65-19.23-3.94-37.74
		c19.35,2.47,47.78,5.62,47.78,2.79c0-4.3,3.44-39.1-2.15-39.1c-5.59,0-12.46,20.48-12.46,20.48l-38.33-4.27
		c-2.09-5.52-4.65-9.89-7.79-12.06c-14.89-10.31-66.46-12.61-66.46-12.61s58.44-3.44,68.32-14.18c1.55-1.69,2.99-4.2,4.31-7.23
		c18.54-1.43,54.56-4.62,54.56-7.82c0-4.3,3.44-39.1-2.15-39.1c-5.59,0-12.46,20.48-12.46,20.48l-33.68,5.38
		c2.95-13.47,4.46-26.3,4.46-26.3l-155.55,33.63c0,0-10.38,0.16-24.61,0.36l54.79-56.84c17.24-8.11,25.59-19.1,28.99-27.22
		c9.75-23.21-18.26-38.96-31.8-32.3c-5.82,2.86-9.53,5.42-6.66,12.89c2.15,5.59,12.54-1.85,17.41,1.07c3.23,1.93,5.79,9.62,3,16.11
		c-3.07,7.17-15.9,15.04-31.16,17.84c-15.59,2.85-57.79-50.98-100.29-56.97v-23.47c7.5,3.97,15.57,11.24,18.34,8.82
		c3.76-3.28-21.53-37.45-25.83-37.45C180.85,90.83,155.56,125,159.33,128.28z M118.94,302.64c3.28,1.52,7.96-4.76,9.83-2.93
		c0,0,3.04,4.12-5.78,14.24c-5.31,6.09-24.92,9.73-25.59,8.58c-0.79-1.36,3.17-15.61,7.84-23.64c0.82-1.4,6.32-3.75,9.25-3.51
		C116.31,295.53,113.47,300.1,118.94,302.64z M289.74,218.88l-47.9,49.7c-10.3,0.14-21.21,0.29-31.06,0.4
		c3.78-25.87,11.14-64.83,13.21-80.13c0.36-2.62-1.83-6.11-5.17-6.37c-7.75-0.6-20.63-1.2-20.63-1.79c0-10.42,0-10.07,0-18.15
		C239.32,171.34,262.65,220.96,289.74,218.88z"/>
</g>
<g>
</g>
<g>
</g>
<g>
</g>
<g>
</g>
<g>
</g>
<g>
</g>
</svg>
