<?xml version="1.0" encoding="utf-8"?>
<!-- Generator: Adobe Illustrator 25.4.1, SVG Export Plug-In . SVG Version: 6.00 Build 0)  -->
<svg version="1.1" id="레이어_1" xmlns="http://www.w3.org/2000/svg" xmlns:xlink="http://www.w3.org/1999/xlink" x="0px"
	 y="0px" viewBox="0 0 512 512" style="enable-background:new 0 0 512 512;" xml:space="preserve">
<style type="text/css">
	.st0{fill:#D4BB88;}
	.st1{fill:#33260E;}
	.st2{fill:#898634;}
</style>
<g>
	<path class="st0" d="M39,137.5c-7,5-8.2,16.6-6.4,24.7c3.1,14.4,16.5,22.4,31.6,31.4c6.5,3.9,13.1,6.9,22.3,9.9
		c8.7,2.9,17.9,2.1,26.9,1.8c8.1-0.3,16.4-0.6,24.4,0.4c5.9,0.7,14,2.3,16.6,8.4c2.4,5.4-1,11.1-3.3,15.9
		c-4.1,8.6-7.5,13.4-9.8,17.1c-6.5,10.5-8.6,24.4-6.5,34.7c4.4,22.2,29.9,35,33.2,36.6c8.1,3.9,18.2,6.7,30.1,17.1
		c2.7,2.4,4.8,4.6,6.2,6c1.4,0.4,9.3,2.3,17-2.4c6.9-4.2,9.2-10.8,9.7-12.4c0.3-0.1,10.1,8.8,17.7,11.2c7.8,2.5,54,19.6,56.8,19.9
		l53.7,8.1c14.6,2,28.8-8.1,32.6-22.5c25.5,3.1,44.5,1.1,51-15.7c5.8,15.3,16.3,24.1,30.1,24.3c8.3,0.1,16-3,22-8.9
		c8.7-8.6,12.8-22.1,12.8-42.5c0-13.4-2.3-29.5-2.3-29.5s2.3-16.1,2.3-29.5c0-20.4-4.1-33.9-12.8-42.5c-5.9-5.8-13.7-9-22-8.9
		c-4.5,0.1-8.9,1.2-12.8,3.2l-128.3-17.6c-4.3-7.4-11.6-12.8-20.3-14.3l-57-9.1c-7.6-1.3-21.4,3.1-27,9.1l-22.4-3.1
		c0,0-22.3-1-34.8-2.2c-24-2.4-22.8-6.8-53.4-12.5c-22.8-4.2-42.2-5.3-53-5.8C48,137.3,43.7,134.1,39,137.5z"/>
	<path class="st1" d="M103.5,165C103.5,165,103.5,165,103.5,165c-15.1-3.5-44.7-9.4-46.4-4c-0.2,0.7,0,1.5,0.6,2.4
		c2.1,4,11.8,11,22.2,14.5c5,1.7,9.5,2.3,12.7,2.6c47.1,6.1,94.2,12.3,141.4,18.4c1,0.1,1.9,0.7,2.5,1.6c2.9,4.6,8,7.7,13.9,7.7
		c4.3,0,8.1-1.6,11-4.3c0.8-0.7,1.8-1,2.8-0.9l6.5,0.9c3,0.4,4.1,4.2,1.7,6.1l-18.8,15.5c-0.1,0.1-0.1,0.1-0.2,0.2
		c-0.7,0.5-5.5,4-6,10c-0.1,1.8-0.5,5.9-0.9,10.8c-0.3,3.1-4.2,4.3-6.1,1.9c-6-7.4-15.3-11.5-26.3-13.2c-1.5-0.2-2.7-1.4-2.9-2.9
		c-1-7.4-2.3-11.9-3.7-11.9c-1.1,0-2.2,3-3.1,8.1c-0.2,1.2-1,2.2-2.1,2.6c-2,0.8-4.7,1.4-7.8,2c-1.1,0.2-23.6,8.5-33.1,14.2
		c-8.8,5.4-10.7,13-10.1,22.9c0.6,11.1,4.1,21.4,12.5,29c9.2,8.3,21.2,9.9,25.5,10.2c3.3,0.3,13.5,0.7,13.5,1.3
		c0,0.2,0.5,1.1,1.1,1.9c0.2,0.3,0.4,0.8,0.5,1.3c0.9,5.1,1.9,8.1,3.1,8.1c1.4,0,2.7-4.5,3.7-11.9c0.2-1.5,1.4-2.7,2.9-2.9
		c11-1.7,20.3-5.8,26.3-13.2c1.9-2.4,5.8-1.1,6.1,1.9l1.1,12c0,0.3,0.1,0.6,0.2,0.9c0.5,1.3,2.3,5,7.9,7.2
		c13.5,5.5,48.7,20.5,51.7,20.8c3.1,0.3,54.8,6.3,54.8,6.3c3.6,0.5,7-3.2,7.5-6.5c0.5-3.3-1.9-7.6-5.5-8.1c0,0-51.4-7.3-53.2-8.1
		c-0.2-0.1-0.4-0.2-0.7-0.3c-3.4-1.5-2.3-6.6,1.4-6.6h27.4c15.5,0,76.8,12.7,81.7,6.6c1.1-1.4,1.7-6.8,2-14.5
		c0.1-1.9,1.7-3.4,3.5-3.3c12.6,0.4,25.7,0.7,31.4,0.8c1.7,0,3.1,1.3,3.3,3c0.9,6.7,3.8,22.6,12,22.8c14.1,0.2,11.6-33.4,10.5-46.4
		c-0.4-5-6.2-5.2-6.2-5.2L426,276c-1.8,0-3.3-1.5-3.4-3.4c0-0.5,0-1,0-1.5c0-0.5,0-1,0-1.5c0-1.8,1.5-3.3,3.4-3.4l50.9-1.5
		c0,0,6.1,0.4,6.7-5.2c1.3-13,3.5-46.5-10.5-46.3c-2.1,0-3.9,1.2-5.4,2.9c-0.8,0.9-1.9,1.4-3.1,1.2l-148.8-20.4
		c-2-0.3-3.3-2.2-2.9-4.2c0,0,0,0,0,0c0.6-3.3-1.6-7.8-5.2-8.4l-57-9.1c-0.2,0-0.4,0-0.6,0c-6.1,0.1-11.4,3.5-14.1,8.5
		c-0.7,1.3-2.1,2-3.5,1.8l-81.8-11.2c-0.2-0.1-6.6-0.9-14.7-2.4c-11.9-2.1-21.9-4.4-27.5-5.7c-0.7-0.2-1.6-0.4-2.5-0.6
		C104.3,165.2,103.5,165,103.5,165z M426.2,225.2l32.3,4.4c1.9,0.3,3.2,2,2.9,4c-0.1,0.9-0.2,1.7-0.3,2.4c-0.2,1.7-1.6,3-3.3,3
		c-5.8,0.2-18.8,0.5-31.5,0.8c-1.9,0-3.5-1.4-3.5-3.3c-0.1-2.8-0.3-5.4-0.5-7.5C422.1,226.8,424,224.9,426.2,225.2z M303.5,208.4
		l68.7,9.4c4,0.5,4,6.3,0,6.9c-14,2-27,3.9-33.1,3.9h-46.9c-2.9,0-4.5-3.4-2.7-5.6l10.8-13.4C301.1,208.7,302.3,208.2,303.5,208.4z
		 M100.8,165.7c0.7,0,1.4,0.1,1.6,0.1C102.3,165.8,101.7,165.7,100.8,165.7z M84.8,163.2C84.8,163.2,84.7,163.2,84.8,163.2
		C84.7,163.2,84.8,163.2,84.8,163.2C84.8,163.2,84.8,163.2,84.8,163.2z"/>
	<g>
		<path class="st2" d="M387.3,279c2.7,2,16.8,2.5,19.6,0.7s3.8-13.7,0.6-17.1c-3.1-3.4-12.5-2.1-17.9-1.2
			C384.7,262.2,384.6,277,387.3,279z"/>
		<path class="st2" d="M306.8,263.9c-2.7-3-10.5-1.5-15.1-0.5c-4.1,0.9,12.8,18.1,15.1,16.4C309,277.9,309.5,266.9,306.8,263.9z"/>
		<path class="st2" d="M339.3,238.4c-2.8-2.7-10.5-1.3-15.1-0.5c-4.1,0.8-3.7,12.7-1.4,14.3c2.3,1.5,14.2,1.5,16.5,0
			C341.6,250.7,342,241,339.3,238.4z"/>
		<path class="st2" d="M338.6,263c-2.8-3-10.5-1.5-15.1-0.5c-4.1,0.9-3.7,14.6-1.4,16.4c2.3,1.8,14.2,1.8,16.5,0
			C340.9,277.1,341.4,266,338.6,263z"/>
		<path class="st2" d="M275.9,239.8c-2.6-2.6-9.9-1.3-14.2-0.4c-3.9,0.8-3.5,12.5-1.3,14c2.2,1.5,13.4,1.5,15.5,0
			C278.1,251.9,278.5,242.4,275.9,239.8z"/>
		<path class="st2" d="M389,232.8c-4.8,1.2-3.6,16-0.8,17.7c2.8,1.8,16.9,1.1,19.6-0.9c2.6-2,2.6-14-0.8-17.1
			C403.6,229.4,394.4,231.4,389,232.8z"/>
		<path class="st2" d="M388.6,310.9c-4.8-1.2-3.6-16-0.8-17.7c2.8-1.8,16.9-1.1,19.6,0.9c2.6,2,2.6,14-0.8,17.1
			C403.2,314.3,394,312.3,388.6,310.9z"/>
		<path class="st2" d="M372.8,263.1c-3.3-3-12.5-1.5-17.9-0.5c-4.8,0.9-4.3,14.5-1.6,16.3c2.7,1.8,16.9,1.7,19.6,0
			C375.5,277.1,376,266.1,372.8,263.1z"/>
		<path class="st2" d="M372,236.4c-3.3-2.8-12.5-1.4-17.9-0.5c-4.8,0.8-4.3,13.2-1.6,14.9c2.7,1.6,16.8,1.6,19.6,0
			C374.7,249.2,375.2,239.1,372,236.4z"/>
		<path class="st2" d="M290.7,254.1c2.2,1.5,13.4,1.5,15.6,0c2.2-1.5,2.6-11.1,0-13.7c-2.6-2.6-10-1.3-14.3-0.4
			C288.1,240.7,288.5,252.6,290.7,254.1z"/>
	</g>
</g>
<path class="st1" d="M1.6,139.2"/>
<path class="st1" d="M1.6,139.2"/>
<path class="st1" d="M1.6,139.2"/>
</svg>
