<?xml version="1.0" encoding="utf-8"?>
<!-- Generator: Adobe Illustrator 25.4.1, SVG Export Plug-In . SVG Version: 6.00 Build 0)  -->
<svg version="1.1" id="레이어_1" xmlns="http://www.w3.org/2000/svg" xmlns:xlink="http://www.w3.org/1999/xlink" x="0px"
	 y="0px" viewBox="0 0 512 512" style="enable-background:new 0 0 512 512;" xml:space="preserve">
<style type="text/css">
	.st0{fill:#D8BE8A;}
	.st1{fill:#33260F;}
</style>
<g>
	<path class="st0" d="M467.04,458.36c6.23-2.96,8.64-10.14,10.72-18.38c6.53-25.88,5.61-45.71,6.64-71.01
		c0.84-20.53,1.08-17.19,2.55-37.75c1.63-22.87-0.04-41.63-2.03-54.92c-1.85-12.36-4.19-21.48-4.95-24.33
		c-4.91-18.4-11.35-32.25-15.98-42.05c-3.31-7-13.7-19.06-33.64-43.61c-12.06-14.85-13.97-16.83-16.74-19.2
		c-14.32-12.26-30.39-16.87-41.53-18.84c3.23-17.03,5.78-29.84,7.56-39.18c5.77-4.23,11.31-11.58,13.67-24.34
		c2.3-12.36-6.22-58.27-24.4-59.58c-13.01-0.94-37.88,33.74-40.45,47.55c-2.37,12.77,0.17,21.63,4.06,27.66
		c-1.42,7.44-3.59,18.82-6.4,33.59c-23.81-31.94-66.8-22.3-71.93-18.24c-7.77,6.16-26.71,51.44-26.71,51.44
		c-1.18,2.94-0.19,8.18-0.17,10.87c-8.72,22.78-21.3,36.17-28.86,42.96c-3.98,3.58-7.75,6.97-13.75,10.3
		c-14.81,8.23-27.52,7.41-46.3,11.54c-1.56,0.34-6.49,1.42-13.34,2.44c-1.13,0.17-2.13,0.3-3.25,0.44
		c-9.91,1.27-14.17,0.88-23.99,3.53c-24.87,6.71-40.94,23-47,29.29c-12.59,13.07-18.77,25.84-20.37,29.27
		c-4.19,9-9.22,23.31-8.68,69.96c0.18,15.82,0.49,36.33,4.09,63.83c0,0,7.17,54.75,27.66,77.27c1.54,1.7,3.23,3.16,3.23,3.16
		c6.77,5.7,13.86,7.76,15.71,8.26c16.24,4.38,30.08-3.07,33.56-4.94c6.35-3.41,10.78-5.8,13.79-10.98
		c4.72-8.13,0.85-14.42-2.04-43.4c-1.03-10.3-1.16-15.69,0.51-22.21c0.29-1.15,4.71-17.89,11.23-18.13
		c8.34-0.3,15.75,26.48,17.36,32.68c8.65,33.33-0.42,49.71,11.4,58.81c3.7,2.85,14.62,9.03,27.23,8.17
		c2.46-0.17,19.56-1.33,25.53-12.6c0.73-1.37,1.14-2.61,1.34-3.78c1.38-8.02,1.05-24.77,0.36-43.45
		c-0.41-11.05-1.47-15.42,0.34-23.57c0.98-4.4,1.57-7.19,3.74-10.21c5.22-7.24,15.17-10.25,23.63-9.26
		c2.59,0.3,12.46,1.84,17.9,9.94c2.95,4.38,3.52,9.02,3.4,17.36c-0.36,25.7-6.38,31.19-3.32,44.6c0.78,3.4,3.19,13.97,12.26,20.68
		c11.51,8.52,29.82,7.93,40.44-0.53c6.63-5.28,9.49-18.84,15.23-45.96c1.95-9.21,3.19-15.04,4.16-23.55
		c1.97-17.24,0.61-25.69,2.73-26.15c3.13-0.67,10.38,16.77,14.3,32.34c3.57,14.18,4.1,21.41,5.45,28.26
		c4.03,20.43,5.05,22.61,7.15,24.51c8.22,7.47,29.5,3.61,40-5.02c22.55-18.54,8.62-69.72,7.17-75.04
		c-6.58-24.17-16.67-33.12-15.85-57.47c0.25-7.44,0.79-23.7,10.72-28.6c9.35-4.61,21.33,3.64,21.96,4.09
		c8.15,5.77,12.68,16.45,16.34,42.89c6.69,48.3-10.95,70.14,2.55,83.23C449.25,458.98,459.95,461.73,467.04,458.36z"/>
	<path class="st1" d="M450.19,450.7c3.9,2.75,9.78,2.63,13.79,0.51c7.96-4.21,11.61-80.16,11.23-110.3
		c-0.14-11.02,0.34-24.39-0.5-33.98c-0.24-2.69-0.69-7.68-1.11-12.66c-0.53-6.25-0.53-6.76-0.93-9.81
		c-4.77-36.4-18.04-61.96-18.04-61.96c-3.01-5.78-6.56-11.61-8.51-14.81c-5.34-8.77-6.12-9.15-11.06-17.02
		c-1.13-1.81-3.34-5.36-6.93-9.71c-0.18-0.22-0.31-0.37-0.56-0.67c-4.22-5.03-7.9-8.9-8.51-9.53c-1.39-1.43-4.26-3.93-19.57-10.38
		c-8.84-3.73-13.3-5.48-17.53-6.81c-5.74-1.8-14.61-3.87-25.49-3.54c-6.43,0.2-22.82,0.69-37.49,11.12
		c-11.09,7.88-16.83,22.78-28.31,52.57c-3.83,9.96-4.63,13.46-2.84,15.6c5.3,6.33,28.88-4.58,49.36-15.68
		c1.12-5.91,2.31-12.13,3.53-18.55c5.11-5.18,3.52-18.56,3.52-18.56c8.85-46.59,18.21-95.98,19.05-100.25
		c5.45-0.58,9.91-4.35,11.87-14.91c2.6-13.97-4.18-37.04-7.74-37.72c-3.57-0.66-18.19,18.45-20.8,32.44
		c-1.98,10.66,0.92,15.76,5.88,18.23c-0.98,4.81-11.58,62.58-21.12,112.79c-0.59,2.67-6.42,27.18-27.47,34.81
		c-5.98,2.17-11.64,2.41-16.09,2.04c1.96-5.15,7.14-20.81-0.25-35.34c-1.24-2.44-2.7-4.58-4.25-6.45
		c-0.24-0.66,9.32-0.13,11.85-4.11c5.08-7.98,15.14-40.18,16.93-46.68c1.45-5.26-3.72-13.66-16.67-20.26
		c-9-4.59-22.89-4.02-26.37-1.26c-7.02,5.56-18.62,35.67-22.98,46.55c-1.48,3.7,3.36,9.41,4.84,12.46
		c-10.16-2.42-25.22,14.79-29.5,23.22c-6.41,12.63-11.74,26.93-13.02,32.08c-0.22,0.9-0.4,1.65-0.51,2.16
		c-1.15,2.2-3.09,5.13-6.38,7.3c-5.61,3.71-11.94,3.16-14.52,2.98c-14.73-1.07-34.9,0.61-47.11,3.09
		c-16.23,3.28-24.34,4.92-31.32,8.08c-1.58,0.71-2.58,0.83-3.69,1.22c-5.7,1.99-21.97,8.32-40.19,25.26
		c-5.31,4.94-14.75,13.67-21.45,25.02c-10.88,18.46-8.96,34.4-6.14,80.19c1.46,23.71,4.56,73.06,21.09,108.71
		c2.04,4.41,6.13,12.56,14.65,16.14c10.8,4.53,26.15,0.63,33.38-8.99c0.13-0.18,0.52-0.69,0.96-1.38
		c9.06-14.17-3.66-31.39-3.19-57.03c0.17-9.5,0.22-22.28,9.19-30.13c7.63-6.67,18-6.59,23.23-6.13c4.12,3.83,9.74,9.97,14.04,18.72
		c2.57,5.24,4.43,11.8,6.81,30.98c3.75,30.25-0.33,40.55,8.51,49.36c5.51,5.49,12.26,6.64,13.47,6.83
		c0.6,0.09,12.13,1.72,18.96-5.41c4.38-4.56,4.86-10.66,5.01-17.76c0.35-17.01-0.73-63.02,0.61-69.21c0.92-4.24,3.32-7.15,3.32-7.15
		c0.16-0.2,0.33-0.4,0.55-0.63c4.14-4.28,12.98-6.01,12.98-6.01c17.18-3.16,23.47-3.53,25.94-3.66c8.48-0.44,10.38,0.04,12.09,0.87
		c1.35,0.66,6.48,3.45,9.53,13.28c8.08,26.04-10.7,62.46,3.07,79.72c8.33,10.45,27.37,12.79,35.4,6.47
		c6.22-4.89,3.68-11.73,11.23-48c2.56-12.27,3.02-10.92,3.83-16.77c2.76-19.9-1.86-31.23,5.02-36.68c2.34-1.85,5.5-2.62,8.17-2.04
		c5.41,1.17,7.69,7.39,7.95,8.12c10.77,21.72,14.48,39.7,15.88,52.13c1.52,13.49,1.15,27.63,9.45,31.83
		c5.84,2.95,14.76,0.37,17.6-0.43c5.12-1.44,8.92-3.76,11.25-5.45c0.95-2.84,2.56-8.2,3.32-15.06c2.04-18.36-3.87-30.5-15.4-67.4
		c-1.44-4.61-3.84-12.39-6.7-22.24c0.14,0.71,0.2,1.02,0.21,1.02c0.03-0.01-2.55-9-3.24-16.17c-0.29-3.05-2.34-20.05,7.52-33.07
		c7.83-10.33,23.57-18.76,36.24-15.04c22.7,6.65,32.86,51.46,31.5,83.74C449.41,422.32,440.22,443.68,450.19,450.7z M297.29,125.58
		c3.57-0.18,6.61,2.58,6.79,6.15c0.18,3.57-2.58,6.61-6.15,6.78s-6.61-2.57-6.78-6.15C290.97,128.79,293.72,125.75,297.29,125.58z
		 M291.01,142.75c3.57-0.18,6.61,2.58,6.79,6.15c0.17,3.57-2.58,6.61-6.15,6.79c-3.57,0.17-6.61-2.58-6.79-6.15
		C284.69,145.96,287.44,142.92,291.01,142.75z M284.44,159.89c3.58-0.18,6.61,2.58,6.79,6.15c0.18,3.58-2.58,6.61-6.15,6.79
		c-3.57,0.18-6.61-2.58-6.78-6.15C278.12,163.1,280.87,160.07,284.44,159.89z M409.87,242.26c-7.69-0.55-13.49-7.24-12.93-14.95
		c0.54-7.69,7.24-13.48,14.94-12.93c7.69,0.55,13.49,7.25,12.94,14.95C424.26,237.04,417.56,242.83,409.87,242.26z"/>
</g>
<path class="st0" d="M268.87,238.38"/>
<path class="st1" d="M268.87,238.38"/>
<path class="st1" d="M268.87,238.38"/>
<path class="st1" d="M268.87,238.38"/>
<path class="st0" d="M268.87,238.38"/>
<path class="st0" d="M268.87,238.38"/>
<path class="st0" d="M268.87,238.38"/>
<path class="st1" d="M268.87,238.38"/>
<path class="st0" d="M268.87,238.38"/>
<path class="st1" d="M137.8,481.33"/>
<path class="st1" d="M145,427.21"/>
<path class="st1" d="M210.34,450.73"/>
<g>
</g>
<g>
</g>
<g>
</g>
<g>
</g>
<g>
</g>
<g>
</g>
</svg>
