<?xml version="1.0" encoding="utf-8"?>
<!-- Generator: Adobe Illustrator 25.4.1, SVG Export Plug-In . SVG Version: 6.00 Build 0)  -->
<svg version="1.1" id="레이어_1" xmlns="http://www.w3.org/2000/svg" xmlns:xlink="http://www.w3.org/1999/xlink" x="0px"
	 y="0px" viewBox="0 0 512 512" style="enable-background:new 0 0 512 512;" xml:space="preserve">
<style type="text/css">
	.st0{fill:#D4BB88;}
	.st1{fill:#33260E;}
</style>
<g>
	<path class="st0" d="M385.18,482.44c0,0,19.29-32.1,19.74-63.11c0.27-18.4-7.23-30.9-26.57-40.9c0,0,13.54,1.14,22.89,1.53
		c26.25,1.05,79.69-7.03,88.76-10.49c9.02-3.43,18.09-15.7,17.58-30.99c-0.88-25.71-19.05-25.88-19.05-25.88s19.03-5,19.03-31
		c0-15.05-6.37-28-22.7-26.5c-4.77,0.44-51.31,6.94-54.7,6.81c-2.07-0.43-16.04,3.37-22.69,0.31c6.98-1.8,12.46-5.32,15-11.69
		c2.13-5.36,1.36-20.22,0.31-26c29.42-3.15,57.56-7.14,63.53-8.13c16.06-2.64,21.56-19.39,21.56-32.48
		c0-16.89-9.49-24.8-20.77-26.94c-10.85-2.02-67.07-4.42-96.34-5.44c0.56-5.63-0.52-4.1,0.3-7.47c9.33,0.24,41.6,2.45,43.91,2.46
		c5.3,0.02,20.92,0.48,21.56-24.24c0.37-13.33-5.42-21.74-18.57-25.93c-11.55-3.69-39.94-6.11-74.77-10.49
		c-19.37-2.46-24.56,20.68-24.67,21.56c-3.41-0.4-8.84-2.46-10-2.89c1.55-1.88,3.78-13.78,3.78-13.78
		c9.78-6.89,21.22-18.35,21.22-18.35c2.78-6.54-3.25-26.21-12.77-35.66c-3.15-3.11-18.9-8.55-22.23-6.99
		c-2.13,1-25.9,10.25-33.67,13c-8,2.83-33.01-3-54.1,5.03c-25.73,9.79-39.51,30.89-42.24,48.76c-1.09,0.64-29.56,19.34-25.78,38
		c1.62,8.01,6.34,12.13,12.16,14.23c-6.93,1.73-9.74,7.7-9.96,7.67c-52.32-5.38-121.02-12.43-125.63-12.87
		c-7.83-0.72-29.47,4.74-29.07,26.17c0.23,11.98,7.6,22.12,18.28,25.64c0.76,9.55,2.13,17.1,4.12,22.53
		c5.05,13.83,19.89,16.29,19.89,42.96l0,0c0,22.33-33.4,36.49-42.72,43.63c-9.31,7.14-6.61,15.05,4.48,14.21s36.91-3,36.91-3
		c17.27-1.42,48.94-14.23,55.77-51.81c0.26,5.02,1.11,10.24,2.72,15.1c-5.79,7.31-10.72,17.74-11.86,29.89
		c-2.88,30.75,25.79,17.31,37.82,29.12c3.66,3.6,6.42,12.86,7.09,14.63c4.33,11.44,21.46,13.02,32.33,4.06
		c9.52-7.85,14.76-18.52,14.76-30.06c0-6.86-6.33-21.92-6.73-22.6c1.69-0.16,3.38-0.36,5.05-0.6c5.35,4.34,15.48,7.54,61.21,6.07
		c1.16,21.9,21.83,31.47,23.83,36.58c3.05,7.8-11.11,27.34,1.66,61.31c12.22,32.5,65.05,40.62,69.34,45.34
		C349.13,458.15,377.06,484.15,385.18,482.44z M101.75,203.99c15.97,1.85,32.66,3.81,47.37,5.55c-1.53,1.16-7.79,6.24-8.96,7.05
		c-16.6,4.41-28.07,16.13-31.9,31.94C108.28,226.33,97.16,225.22,101.75,203.99z M215.29,165.67c-1.81-0.19-3.26-0.36-4.12-0.45
		c-5.03-0.56-14.73-9.99-22.84-14.35c9.74,0.24,18.79-1.15,20.18,2.35C210.38,157.97,212.71,162.06,215.29,165.67z"/>
	<path class="st1" d="M378.32,451.28c1.52-4.62,23.79-51.16-19.05-59.51c-46.66-9.08-47.61-47.61-40.48-45.22
		c11.81,3.95,71.63,13.9,83.54,14.17c10.27,0.25,67.82-10,75.51-12.95c9.28-3.52,10.06-18.83-2.69-19.98
		c-4.61-0.45-60.25,7.59-69.16,6.93c-7.72-0.56-45.23-13.79-45.15-15.02c0.17-2.45,0.32-16.83,0.32-16.83s32.63,10.69,45.83,9.88
		c9.49,0.67,67.11-11.4,70.46-11.94c9.74-1.6,12.23-23.94-2.26-22.27c-8.1,0.93-59.11,8.58-68.69,7.91
		c-7.13-0.52-42.77-19.19-42.77-19.19l0.39-11.11c14.89,1.59,30.75,1.75,33.17-4.31c4.74-11.82,0.79-30.71,0-39.38
		c-0.78-8.68-15.75-5.52-17.32,0c-1.57,5.51,0.79,18.9,0,22.05c-0.3,1.18-7.54-0.34-15.12-1.4c0.1-4.88,1.18-32.29,1.18-32.29
		s99.63-4.25,110.39-4.86c10.78-0.61,13.2-20.16,0.54-22.54c-12.65-2.41-107.81-5.93-107.81-5.93s3.23-38.89,6.7-38.73
		c15,0.67,50.34,4.38,56.56,4.43c10.17,0.1,14.42-22.18-2.91-23.5c-8.46-0.67-35.95-3.58-70.97-7.98
		c-13.68-1.73-10.67,30.17-17.33,29.09c-18.82-3.03-38.54-11.24-42.94-13.22c2.92-2.46,15.2-13.63,16.37-28.89
		c0,0,24.62-16.8,25-21.67c0.5-6.15-3.27-14.8-8.67-20c-1.19-1.15-9.77-5.5-12.78-3.89c-2.74,1.47-32.08,14.01-38.67,15.56
		c-7.56,1.78-26.92-3.33-44,5.33c-22.2,11.26-28,25.78-30.55,35.85c-1.29,5.11-28.05,23.25-27.18,26.63
		c5.47,9.83,35.04,1.99,35.04,1.99c10.34,22.94,55.35,43.28,60.01,58.22c-18.16-1.95-46.12-4.97-69.57-7.42
		c-2.06-1.73-5.25-4.44-9.61-8.26c-5.65-4.96-12.08,0.24-13.26,5.87c-64.28-6.71-134.16-13.95-140.16-14.52
		c-11.55-1.06-11.16,15.47-1.1,15.88c1.26,0.05,4.84,0.38,10.04,0.93c0.09,8.48,0.67,24.33,3.67,32.55
		c9.72,26.65,19.96,11.02,21.01,48.84c0.56,19.94-21.52,36.76-21.52,36.76s38.32-3.15,39.91-45.7c0.73-19.95-7.87-24.17-7.87-39.91
		c0-10.82,5.39-21.76,8.8-27.63l102.98,10.46c0,0,19.34,17.67,12.05,36.16c-3.14,0.4-5.47,0.92-6.58,1.62
		c-1.53,0.95-2.7,2.88-3.64,5.39c-0.53-0.16-17.03-18.88-23.03-18.88c-8.39,0-19.62,14.21-26.26,15.75
		c-12.35,2.87-20.47,11.55-20.47,26.25c0,10.22,3.18,18.85,7.41,20.42c1.07,0.4-21.13,16.8-15.56,33.41
		c3.51,10.4,19.95,0.43,29.93,8.93c8.36,8.25,9.26,21.81,10.5,22.05c1.35,0.27,21.02-10.51,9.99-30.46
		c-8.41-16.28-28.35-2.63-26.8-15.22c3.69-15.23,9.74-14.92,11.05-14.77c16.06,1.8,35.46,1.32,43.91-2.75
		c0.85,2.61,1.86,4.68,2.98,5.82c4.31,4.3,40.65,3.42,68.82,2.03c0.53,8.45,1.75,17.38,4.01,26.83c1.9,7.94,11.7,16.36,22.42,22.74
		c1.81,1.09-15.56,32.24,4.06,62.63c9.36,14.5,33.34,16.52,50,26.19C367.58,438.36,376.86,455.66,378.32,451.28z M256.4,102.73
		c-7.77-0.55-13.62-7.32-13.07-15.11c0.56-7.77,7.34-13.64,15.11-13.09c7.79,0.58,13.65,7.34,13.07,15.12
		C270.96,97.43,264.19,103.3,256.4,102.73z M275.5,230.76c-14.59-0.58-35.28-1.19-48.21-1.04c5.22-15.39-3.23-28.72-7.01-32.95
		l57.19,6.15C278.23,211.34,277.1,220.54,275.5,230.76z"/>
</g>
<g>
</g>
<g>
</g>
<g>
</g>
<g>
</g>
<g>
</g>
<g>
</g>
</svg>
