<?xml version="1.0" encoding="utf-8"?>
<!-- Generator: Adobe Illustrator 25.4.1, SVG Export Plug-In . SVG Version: 6.00 Build 0)  -->
<svg version="1.1" id="레이어_1" xmlns="http://www.w3.org/2000/svg" xmlns:xlink="http://www.w3.org/1999/xlink" x="0px"
	 y="0px" viewBox="0 0 600 600" style="enable-background:new 0 0 600 600;" xml:space="preserve">
<style type="text/css">
	.st0{fill:#D4BB88;}
	.st1{fill:#33260E;}
</style>
<g>
	<path class="st0" d="M204.49,597.71c39.1-6.79,84.78-27.77,83.98-93.16c-0.32-27.1-5.31-60.82-29.44-79.64
		c0,0,11.94-94.36,12.57-96.62c0.62-2.26,1.91-8.24,6.79-1.82c4.87,6.42,49.18,84.45,49.18,84.45
		c-30.41,79.64,31.37,128.87,70.45,128.86c82.42-0.01,94.87-61.13,94.87-88.73c0-57.52-40.05-77.33-49.23-82.58V172.76
		c26.89-15.53,51.4-31.17,51.4-82.56c0-49.14-34.47-84.55-83.5-88.58c-25.93-2.14-53.58,11.58-71.91,30.89
		c-11.67-7.73-67.32-41.06-97.5-28.47c-36.25,15.1-34.73,70.78-34.75,71.43c-0.75,25.23,17.45,44.45,18.09,44.98
		c-1.38,8.65-3.1,19.55-5.1,32.16c0,0-64.02,36.14-74.29,44.01c-10.27,7.86,35.62,77.7,41.99,72.88c6.37-4.81,15.2-9.17,15.2-9.17
		c-8.65,55.33-18.27,116.62-24.37,156.87c0,0-70.47,2.9-73.85,73.37c-3.15,65.66,49.23,80.12,49.23,80.12
		C156.41,586.58,173.11,603.15,204.49,597.71z M371,328.38c-6.04,1.09-50.57-84.31-39.58-87.97c8.33-2.78,37.63-2.35,39.58,7.6
		C373.42,260.32,377.04,327.29,371,328.38z"/>
	<path class="st1" d="M160.4,547.29l16.18-104.81c-26.67,4.13-47.1,27.12-47.1,54.94C129.47,519.28,142.07,538.18,160.4,547.29z
		 M418.96,155.26c34.65-7.91,56.33-42.41,48.42-77.07c-7.92-34.64-42.42-56.32-77.08-48.41c-34.65,7.91-56.32,42.42-48.41,77.07
		C349.81,141.5,384.32,163.18,418.96,155.26z M368.41,71.87c-2.42-0.44-4.85-14.02-3.62-15.12c1.22-1.11,57.89-13.88,60.23-13.76
		c2.34,0.12,5.91,13.61,3.61,15.12C426.32,59.63,370.8,72.31,368.41,71.87z M387.07,96.54c-2.21-9.71,3.87-19.37,13.56-21.58
		c9.72-2.22,19.37,3.86,21.59,13.55c2.22,9.71-3.85,19.37-13.56,21.58C398.95,112.31,389.29,106.24,387.07,96.54z M381.58,126.89
		c1.08-1.73,58.59-14.37,60.23-13.76c1.63,0.62,4.27,14.15,2.69,15.18c-1.57,1.02-57.85,14.69-60.22,13.74
		C381.9,141.12,380.49,128.63,381.58,126.89z M374.46,507.92c31.38,16.67,70.35,4.74,87.03-26.65
		c16.66-31.39,4.73-70.35-26.65-87.03c-31.41-16.66-70.36-4.73-87.03,26.66C331.13,452.29,343.07,491.26,374.46,507.92z
		 M394.25,410.42c-0.35,2.73-27.06,53.03-28.97,54.57s-13.75-5.49-13.78-7.15c-0.02-1.65,27.35-52.87,28.99-54.56
		C382.11,401.59,394.61,407.7,394.25,410.42z M413.09,435.17c8.8,4.67,12.14,15.58,7.47,24.37s-15.59,12.13-24.37,7.47
		c-8.78-4.67-12.13-15.58-7.47-24.37C393.39,433.84,404.3,430.5,413.09,435.17z M414.49,491.32c-0.58-1.96,27.44-53.73,28.98-54.56
		s14.57,5.71,14.3,7.58c-0.26,1.86-26.71,53.39-28.97,54.56C426.56,500.06,415.11,493.27,414.49,491.32z M262.68,510.62
		c4.48-35.39-12.73-57.15-29.82-69.79l29.68-192.4L347,399.71c6.97-8.57,19.36-16.11,26.16-19.15l-94.34-168.98h110.22v163.88
		c10.63-2.19,21.62-2.12,32.17,0.19v-207.7c-10.63,2.32-21.6,2.35-32.17,0.18v18.98H275.06c26.41-15.43,53.67-31.43,72.58-42.53
		c-0.41-0.46-12.87-14.53-16.35-27.87c-14.47,8.39-33.48,19.42-53.18,30.85l6.34-41.11c7.62-0.19,14.01-1.22,17.22-3.14
		c10.29-6.18,20.04-58.59,9.34-66.1c-10.71-7.5-46.05-18.53-61.03-12.29c-14.97,6.24-23.78,61.02-12.62,71.28
		c3.07,2.82,8.54,5.09,15.07,6.78c0,0-4.14,25.92-10.4,65.52c-32.72,18.99-60.53,35.18-64.04,37.33
		c-9.06,5.53,6.93,31.87,14.8,28.56c2.39-1,19.69-10.91,42.67-24.23c-21.4,136.17-55.2,354.25-52.79,359.01
		C186.8,577.32,255.6,566.6,262.68,510.62z"/>
</g>
<g>
</g>
<g>
</g>
<g>
</g>
<g>
</g>
<g>
</g>
<g>
</g>
</svg>
