<?xml version="1.0" encoding="utf-8"?>
<!-- Generator: Adobe Illustrator 25.4.1, SVG Export Plug-In . SVG Version: 6.00 Build 0)  -->
<svg version="1.1" id="레이어_1" xmlns="http://www.w3.org/2000/svg" xmlns:xlink="http://www.w3.org/1999/xlink" x="0px"
	 y="0px" viewBox="0 0 512 512" style="enable-background:new 0 0 512 512;" xml:space="preserve">
<style type="text/css">
	.st0{fill:#D4BB88;}
	.st1{fill:#33260E;}
	.st2{fill:#898634;}
</style>
<g>
	<path class="st0" d="M505.68,244.08c0,13.37-2.32,29.46-2.32,29.46s2.32,16.1,2.32,29.46c0,20.38-4.06,33.88-12.79,42.49
		c-5.91,5.83-13.7,8.97-21.96,8.86c-13.8-0.2-24.33-8.96-30.11-24.31c-6.49,16.78-25.46,18.76-50.95,15.69
		c-3.78,14.45-17.93,24.53-32.56,22.53l-53.69-8.15c-2.79-0.26-49.05-17.36-56.82-19.88c-7.56-2.46-17.43-11.31-17.69-11.22
		c-3.27,9.28-14.9,19.99-31.03,17.17c-2.28,2.43-9.75,14.26-29.05,10.28c-2.73,1.41-11.75,6.16-20.74,2.76
		c-6.79,3.46-14.4,5.04-22.28,2.51c-11.09,6.64-22.73,10.64-32.07,10.29c-8.62-0.31-16.1-3.94-21.07-10.08
		c-4.84,0.1-9.39-0.62-13.31-2.52c-7.35-3.56-13.96-11.24-13.7-24.91c-6.28-5.11-10.5-12.67-9.89-20.7
		c1.73-22.82,63.46-34.12,63.46-34.12c2.35-2.31,5.7-4.75,10.28-6.13c-4.61-1.39-7.97-3.85-10.3-6.13c0,0-50.37-8.62-56.66-15.62
		c0,0-5.59-3.04-6.78-18.5c-0.62-8.03,3.6-15.59,9.89-20.7c-0.08-0.84-1.35-8.51,2.64-14.23C18.22,191.6,5.54,179.7,6.36,164.24
		s19.76-23.39,30.85-24.29c6.4-0.04,14.84,0.05,24.71,0.54c10.74,0.53,30.15,1.55,52.98,5.79c30.61,5.68,29.41,10.08,53.42,12.46
		c12.45,1.24,34.78,2.25,34.78,2.25l0,0l22.4,3.07c5.6-6.03,19.4-10.44,27.01-9.11l57,9.1c8.68,1.51,15.97,6.95,20.28,14.32
		l128.31,17.59c3.97-2.05,8.31-3.16,12.83-3.23c8.26-0.12,16.05,3.03,21.96,8.86C501.61,210.2,505.68,223.7,505.68,244.08z"/>
	<path class="st1" d="M99.37,169.52c-0.16-0.09-1.39-0.81-1.27-1.18c0.17-0.5,2.62-0.1,2.62-0.11c0-0.01-3.72-0.26-7.43-0.81
		l-6.34-1.11c-3.17-0.57-4.28-0.74-4.33-0.75l0,0c0,0,0.42,0.06,0.42,0.07c0,0.02-25.52-6.14-27.44-1.73
		c-1.34,3.07,10.05,12.23,22.51,16.4c5.04,1.69,9.5,2.32,12.74,2.56c47.12,6.14,94.23,12.27,141.35,18.41
		c1.02,0.14,1.92,0.74,2.48,1.62c2.93,4.61,8.04,7.7,13.9,7.7c4.26,0,8.11-1.64,11.04-4.29c0.77-0.69,1.79-1.02,2.81-0.89l6.45,0.88
		c2.99,0.41,4.06,4.18,1.73,6.09l-18.76,15.49c-0.06,0.06-0.13,0.11-0.2,0.15c-0.7,0.49-5.47,4.01-5.97,9.95
		c-0.15,1.8-0.51,5.94-0.93,10.79c-0.27,3.06-4.16,4.33-6.09,1.93c-5.98-7.39-15.28-11.47-26.31-13.18
		c-1.51-0.24-2.69-1.43-2.9-2.94c-0.99-7.43-2.27-11.92-3.68-11.92c-1.13,0-2.19,2.98-3.08,8.06c-0.21,1.19-1.01,2.18-2.13,2.64
		c-1.96,0.79-4.65,1.41-7.77,2.04c-1.96,0.4-3.83-0.95-4.12-2.94c-1.79-12.13-10.26-21.7-15.85-19.13
		c-0.58,0.26-0.93,0.84-1.13,1.62c-0.63,2.59-3.94,3.39-5.87,1.54c-4.71-4.53-9.94-7.86-12.35-6.18c-0.81,0.24-1.08,0.96-1.05,2.02
		c0.11,3.1-3.63,4.77-5.85,2.6c-5.26-5.13-11.15-9.21-14.62-7.33c-0.62,0.33-0.67,1.24-0.38,2.51c0.75,3.3-3.11,5.62-5.66,3.39
		c-13.99-12.27-32.14-19.32-35.58-13.51c-0.86,1.77,1.82,4.23,5.6,7.47c2.96,2.53,0.12,7.26-3.51,5.84
		c-11.63-4.55-23.48-7.35-23.75-3.92c-0.91,4.04,7.49,8.5,15,13.08c3.19,1.95,1.45,6.85-2.25,6.38c-11.77-1.48-24.54-1.4-22.34,6.03
		c0.33,1.12,1.27,1.95,2.41,2.26c6.83,1.83,31.81,6.01,47.01,8.62c5.71,0.98,5.63,5.4,7.97,5.92c8.59,1.58,19.03,4.79,29.9,5.88
		c2.18,0.22,3.59,2.36,2.95,4.45c-1.02,3.35-1.59,7.17-1.59,11.53s0.57,8.18,1.59,11.53c0.63,2.09-0.77,4.24-2.95,4.45
		c-10.88,1.09-21.32,4.29-29.9,5.88c-2.34,0.52-2.26,4.95-7.97,5.92c-15.21,2.62-40.19,6.79-47.01,8.62
		c-1.13,0.3-2.07,1.13-2.41,2.26c-2.21,7.43,10.56,7.51,22.34,6.03c3.7-0.47,5.44,4.44,2.25,6.38c-7.52,4.57-15.91,9.03-15,13.08
		c0.27,3.43,12.12,0.63,23.75-3.92c3.63-1.42,6.47,3.31,3.51,5.84c-3.79,3.24-6.46,5.7-5.6,7.47c3.45,5.82,21.59-1.24,35.58-13.51
		c2.55-2.23,6.4,0.09,5.66,3.39c-0.29,1.27-0.24,2.18,0.38,2.51c3.47,1.88,9.36-2.19,14.62-7.33c2.22-2.17,5.96-0.5,5.85,2.6
		c-0.04,1.06,0.24,1.78,1.05,2.02c2.42,1.68,7.65-1.65,12.35-6.18c1.93-1.85,5.23-1.06,5.87,1.54c0.19,0.79,0.54,1.36,1.13,1.62
		c5.6,2.57,14.07-7,15.85-19.13c0.29-1.98,2.16-3.33,4.12-2.94c3.12,0.63,5.81,1.25,7.77,2.04c1.12,0.45,1.93,1.45,2.13,2.64
		c0.89,5.08,1.95,8.06,3.08,8.06c1.41,0,2.69-4.49,3.68-11.92c0.2-1.51,1.39-2.71,2.9-2.94c11.02-1.72,20.33-5.79,26.3-13.17
		c1.94-2.39,5.82-1.14,6.09,1.93l1.06,12.04c0.03,0.3,0.09,0.6,0.19,0.88c0.49,1.33,2.3,4.95,7.91,7.24
		c13.52,5.51,48.66,20.53,51.72,20.83c3.06,0.31,54.8,6.29,54.8,6.29c3.58,0.49,7.03-3.15,7.49-6.46c0.45-3.31-1.91-7.62-5.49-8.11
		c0,0-51.44-7.29-53.2-8.08c-0.15-0.06-0.36-0.17-0.65-0.3c-3.38-1.55-2.27-6.6,1.44-6.6h27.35c15.52,0,76.76,12.74,81.66,6.61
		c1.08-1.36,1.69-6.81,1.97-14.47c0.07-1.89,1.66-3.39,3.55-3.33c12.6,0.36,25.69,0.7,31.44,0.84c1.7,0.04,3.12,1.32,3.33,3
		c0.87,6.71,3.79,22.65,11.95,22.76c14.09,0.2,11.56-33.39,10.54-46.38c-0.4-5.03-6.25-5.16-6.25-5.16l-51.27-1.48
		c-1.84-0.05-3.31-1.54-3.36-3.38c-0.01-0.51-0.03-1.02-0.04-1.52c0.01-0.51,0.03-1.02,0.04-1.52c0.04-1.84,1.52-3.33,3.36-3.38
		l50.85-1.47c0,0,6.14,0.35,6.68-5.23c1.26-13,3.53-46.53-10.54-46.33c-2.13,0.03-3.9,1.15-5.37,2.89c-0.76,0.91-1.94,1.36-3.11,1.2
		l-148.81-20.4c-2-0.28-3.26-2.19-2.9-4.18c0-0.01,0.01-0.03,0.01-0.04c0.57-3.29-1.61-7.81-5.17-8.43l-57.01-9.1
		c-0.21-0.03-0.42-0.05-0.64-0.04c-6.1,0.12-11.35,3.54-14.12,8.55c-0.7,1.27-2.09,2.01-3.53,1.81L125.89,173.5
		c18.1,2.56,22.9,3.19,22.91,3.14c0.01-0.06-6.51-0.93-14.68-2.36c-18.34-3.19-32.35-6.92-32.37-6.83
		c-0.03,0.12,9.35,2.39,9.35,2.38l0,0c-0.4-0.15-0.7-0.26-0.72-0.26c-1.27-0.47-52.73-13.28-55.04-6.12
		c-1.15,3.54,9.96,11.14,19.92,14.29c17.84,5.64,36.2-1.64,36.1-4.28c-0.04-1.07-3.15-2.42-5.5-2.78
		C103.61,170.35,101.68,170.85,99.37,169.52z M459.66,236.04c-0.14,0.86-0.25,1.66-0.34,2.35c-0.22,1.69-1.63,2.96-3.33,3.01
		c-5.75,0.15-18.84,0.49-31.45,0.84c-1.89,0.05-3.48-1.44-3.55-3.33c-0.11-2.83-0.26-5.36-0.46-7.49c-0.21-2.23,1.7-4.08,3.91-3.77
		l32.27,4.43C458.63,232.34,459.96,234.12,459.66,236.04z M370.44,220.24c3.97,0.54,3.99,6.28,0.02,6.85
		c-13.96,2.01-27.03,3.95-33.11,3.95h-46.92c-2.91,0-4.52-3.38-2.69-5.64l10.84-13.35c0.76-0.94,1.96-1.41,3.15-1.25L370.44,220.24z
		"/>
	<g>
		<path class="st2" d="M385.56,281.43c2.66,2,16.79,2.5,19.57,0.7c2.78-1.8,3.78-13.74,0.64-17.13c-3.14-3.38-12.46-2.07-17.93-1.18
			C382.96,264.62,382.9,279.43,385.56,281.43z"/>
		<path class="st2" d="M305.01,266.28c-2.73-3.01-10.53-1.5-15.09-0.5c-4.07,0.9,12.81,18.08,15.09,16.35
			C307.29,280.35,307.76,269.31,305.01,266.28z"/>
		<path class="st2" d="M337.56,240.79c-2.76-2.66-10.52-1.33-15.11-0.46c-4.06,0.79-3.66,12.74-1.38,14.27
			c2.29,1.54,14.18,1.54,16.49,0C339.83,253.08,340.29,243.4,337.56,240.79z"/>
		<path class="st2" d="M336.87,265.45c-2.76-3.04-10.52-1.52-15.11-0.52c-4.06,0.91-3.66,14.58-1.38,16.35
			c2.29,1.76,14.18,1.76,16.49,0C339.15,279.52,339.61,268.44,336.87,265.45z"/>
		<path class="st2" d="M274.16,242.26c-2.58-2.58-9.91-1.31-14.23-0.42c-3.85,0.75-3.45,12.5-1.3,14.02c2.16,1.5,13.38,1.5,15.53,0
			C276.31,254.34,276.74,244.84,274.16,242.26z"/>
		<path class="st2" d="M387.28,235.23c-4.79,1.19-3.6,15.96-0.8,17.74c2.83,1.77,16.93,1.08,19.58-0.94
			c2.6-2.03,2.59-14.02-0.83-17.12C401.83,231.8,392.66,233.87,387.28,235.23z"/>
		<path class="st2" d="M386.87,313.33c-4.79-1.19-3.6-15.96-0.79-17.74c2.82-1.77,16.93-1.08,19.57,0.94
			c2.6,2.03,2.6,14.02-0.83,17.12C401.43,316.76,392.26,314.68,386.87,313.33z"/>
		<path class="st2" d="M371.03,265.51c-3.27-3.01-12.5-1.5-17.94-0.51c-4.82,0.88-4.33,14.51-1.62,16.28
			c2.72,1.75,16.85,1.73,19.56,0C373.75,279.53,374.29,268.51,371.03,265.51z"/>
		<path class="st2" d="M370.21,238.8c-3.27-2.75-12.51-1.38-17.94-0.46c-4.83,0.81-4.33,13.25-1.62,14.86
			c2.71,1.6,16.84,1.58,19.56,0C372.93,251.6,373.48,241.54,370.21,238.8z"/>
		<path class="st2" d="M288.91,256.52c2.16,1.51,13.44,1.51,15.57,0c2.16-1.53,2.59-11.11,0-13.72c-2.6-2.61-9.96-1.3-14.29-0.42
			C286.36,243.14,286.74,255,288.91,256.52z"/>
	</g>
</g>
<path class="st1" d="M-11.52,121.43"/>
<path class="st1" d="M-11.52,121.43"/>
<path class="st1" d="M-11.52,121.43"/>
<g>
</g>
<g>
</g>
<g>
</g>
<g>
</g>
<g>
</g>
<g>
</g>
</svg>
