<?xml version="1.0" encoding="utf-8"?>
<!-- Generator: Adobe Illustrator 25.4.1, SVG Export Plug-In . SVG Version: 6.00 Build 0)  -->
<svg version="1.1" id="레이어_1" xmlns="http://www.w3.org/2000/svg" xmlns:xlink="http://www.w3.org/1999/xlink" x="0px"
	 y="0px" viewBox="0 0 512 512" style="enable-background:new 0 0 512 512;" xml:space="preserve">
<style type="text/css">
	.st0{fill:#D4BB88;}
	.st1{fill:#33260E;}
	.st2{fill:#AA5630;}
</style>
<g>
	<path class="st0" d="M271.92,446.84c14.57-2.67,29.27-12.16,35.44-26.39c0.9-0.69,1.76-1.42,2.58-2.18
		c-0.66-21.13-3.85-43.78-19.77-57.93c-4.83-4.29-4.01-9.9-0.73-13.66c-1.05-2.95-2.11-5.87-3.15-8.64
		c4.76-0.01,9.65-0.01,14.66-0.03c14.57-0.05,64.84,13.26,64.84,13.26c6.16,1.41,14.14,10.36,25.05-0.11
		c1.99,1.6,38.19,19.6,57.52,32.95c7.37,5.09,16.91-0.14,21.07-6.51c3.42-5.25,35.18-73.59,35.18-73.59s17.67-37.52-13.67-51.34
		c-12.56-5.54-31.88-5.3-47.77,13.17l-21.48-19.4L421,232.31l77.65-18.01c0,0,10.17-2.75,9.82-11.07
		c-0.36-8.31-1.65-92.53-29.38-112.14c-10.37-7.33-23.02-9.98-35.22-6.56c-20.49,5.76-33.71,22.41-36.63,45.42
		c-24.6,3.7-49,8.76-60.63,15.28c-1.1,0.62-30.94,16.8-47.4,26.73c-0.24,0.47-0.5,0.96-0.81,1.48c-2.41,3.99-6.71,6.47-11.35,6.65
		c-2.52,0.1-5.16-0.71-7.38-1.86c-0.51-0.27-0.98-0.55-1.44-0.88c-0.08-0.06-0.12-0.08-0.2-0.13c-4.71-0.97-8.72-5.49-8.51-10.4
		c0.11-2.54,1.03-4.8,2.49-6.6c0.17-0.5,0.42-1.23,0.72-2.12c5.18-15.33,8.66-27.72,10.5-34.53c1.14-4.21,2.56-9.64,4.09-16
		c0.39-3.72,0.34-9.18-2.04-14.98c-2.99-7.3-8.13-11.38-11.92-14.4c-4.87-3.87-9.59-6.1-12.93-7.39c-2.93-2.04-7.95-4.94-14.78-6.2
		c-11.61-2.14-20.85,1.87-24.2,3.53c-13.49,12.39-21.1,24.14-25.43,32.07c-12.91,23.65-11.12,39.95-25.8,52.7
		c-9.33,8.11-20.38,10.5-27.3,11.35c-1.28,1.22-3.25,2.88-5.95,4.33c-0.61,0.33-2.5,1.32-6.22,2.43c-2.63,0.79-6.38,1.7-11.09,2.16
		c-10.94-2.91-27.87-5.95-48.32-3.77c-13.95,1.49-25.5,4.97-34.06,8.31c-3.71,1.44-7.51,3.42-11.29,6.64
		c-2.87,2.44-4.84,4.88-6.06,6.56c-1.42,2.09-3.32,5.12-5.23,8.94c-0.64,1.29-1.65,3.49-4.87,12.18
		c-4.74,12.79-5.61,17.42-5.9,19.06c-0.08,0.46-0.42,2.5-0.77,5.63c-0.66,5.72-1.28,14.87-0.07,25.19
		c1.01,8.63,3.83,22.95,12.97,39.14c7.12,8.96,20.71,23.38,42.27,32.69c43.8,18.91,85.05,1.39,92.99-2.16
		c5.69,6.73,11.48,13.93,17.3,21.62c5.45,7.2,10.48,14.24,15.14,21.08c1.83,1.8,16.68,16.54,25.78,28.66c3.25,4.33,6.1,8.6,6.1,8.6
		c2.33,3.48,4.84,7.49,7.23,11.76c9.65,5.59,17.01,13.83,23.91,22.65C254.4,448.16,263.95,448.31,271.92,446.84z"/>
	<path class="st1" d="M253.15,413.18c-0.61-1.7-1.24-3.5-1.89-5.35c-0.44-1.36-0.9-2.73-1.35-4.1c-0.37-1.11-0.74-2.21-1.11-3.31
		c-0.6-1.67-1.2-3.35-1.8-5.04c-1.4-3.95-2.18-6.02-2.39-6.59c-2.44-6.61-9.11-15.45-10.06-16.7c-6.8-8.94-9.85-11.92-15.66-19.06
		c-5.9-7.26-7.43-9.96-13.78-18.61c-5.34-7.27-13.12-17.43-23.44-29.46c-6.57-0.53-10.62-1.18-11.42-1.97
		c-1.89-1.92-3.19-4.03-4.64-8.46c-4.68,1.21-8.61,1.86-11.48,2.23c-1.9,0.25-2.6,0.29-7.52,0.86c-3.87,0.44-5.67,0.67-9.31,1.11
		c-12.48,1.5-13.12,1.41-20.28,2.39c-5.99,0.81-6.94,1.24-10.73,1.67c-0.92,0.1-3.67,0.4-7.25,0.47c-3.06,0.07-3.54-0.1-9.08-0.08
		c-2.88,0.01-4.67,0.06-5.18,0.08c-1.55,0.05-1.67,0.07-3.1,0.1c-2.1,0.05-3.53,0.08-5.29-0.03c-0.83-0.05-1.59-0.12-3.01-0.31
		c-2.5-0.32-4.85-0.61-7.81-1.2c-1.54-0.31-5.9-1.21-11.46-3.1c-2.88-0.98-5.78-2.13-7.38-2.85c-9.34-4.2-17.14-14.68-20.52-25.36
		c-2.06-6.51-2.1-11.9-2.13-16.77c0,0,0.14-9.99,2.32-19.1c0.57-2.37,1.15-4.36,1.61-5.82c0.21-0.84,0.47-1.72,0.76-2.63
		c0.38-1.18,0.79-2.27,1.2-3.27c0.36-1.14,0.77-2,1.07-2.6c0.2-0.37,0.42-0.75,0.81-1.43c0.38-0.66,0.61-1.05,0.9-1.52
		c0.74-1.26,1.11-1.93,1.34-2.33c0,0,0.88-1.51,2.86-3.58c5.18-5.41,12.79-8.89,12.79-8.89c11.31-5.17,23.71-6.99,24.81-7.16
		c3.96-0.58,21.96-3.01,44.84,1.91c9.34,2,14,3.01,19.52,5.79c6.2,3.13,12.15,7.62,24.32,12.75c0.53,0.22,0.97,0.4,1.25,0.52
		c1.61-4.26,3.17-6.68,5.74-8.28c1.9-1.21,5.87-2.09,11.18-2.77c9.79-16.63,17.76-28.67,23.67-37.16c0,0,14.1-20.24,18.56-35.97
		c0.01-0.02,0.38-1.33,0.71-2.57l0,0c0.77-2.87,0.92-3.81,1.85-7.7c1.04-4.38,1.21-4.92,1.55-6.51s0.61-2.9,0.77-3.76
		c0.07-0.25,0.12-0.51,0.18-0.79c0.05-0.24,0.08-0.47,0.11-0.7c0.22-0.89,0.44-1.78,0.66-2.67c0.59-2.51,1.17-4.95,1.71-7.22
		c2.78-10.53,26.04-2.77,23.42,5.97c-0.29,1.55-0.67,3.58-1.11,5.94c-1.01,5.48-1.52,8.22-1.69,9.33c-0.75,4.83-0.87,4.72-0.9,5.05
		c0,0-0.16,1.55-0.55,3.19c-0.19,0.78-0.41,1.39-0.5,1.63c-0.08,0.21-0.16,0.39-0.21,0.51c-0.13,0.51-0.33,1.28-0.47,1.8
		c-0.15,0.61-0.38,1.54-0.69,2.67c-4.76,17.54-12.06,28.02-17.83,38.62c-3.53,6.48-8.14,16.07-12.17,28.76
		c14.77-0.16,51.23,0.18,87.37,0.68c20.17-13.12,49.24-28.38,55.96-32.14c14.29-8.02,78.04-15.32,78.04-15.32
		s-9.84-36.31,12.41-42.56c19.57-5.48,23.13,48.34,24.71,66.85c0.5,5.9-5.75,7.55-5.75,7.55l-82.44,19.13l3.06,53.96
		c20.82,14.47,54.06,39.51,54.06,39.51s9.41-26.02,29.91-24.35c20.27,1.65-8.82,53.54-20.77,67.76c-3.81,4.53-9.4,1.29-9.4,1.29
		l-59.96-36.18c-1.16,2.81-4.99,11.21-8.91,10.31c-19.39-4.43-56.29-13.29-75.91-13.23c-27.9,0.08-54.51-0.02-76.38-0.41
		c4.77,11.07,11.11,23.3,19.62,35.88c3.04,4.5,6.12,8.69,9.19,12.6c4.91,7.3,12.74,19.28,14.39,24.11c0.03,0.08,0.4,1.16,0.88,2.6
		c0.88,2.62,1.76,5.27,2.63,7.96c1.22,3.79,2.37,7.53,3.46,11.21c0.42,1.42,0.82,2.75,1.13,3.83
		C279.33,413.18,257.01,423.35,253.15,413.18z"/>
	<g>
		<path class="st2" d="M347.67,233.76c3.59-2.72,22.76-3.38,26.52-0.94s5.12,18.63,0.87,23.23c-4.26,4.58-16.89,2.8-24.3,1.59
			C344.15,256.54,344.07,236.46,347.67,233.76z"/>
		<path class="st2" d="M329.2,239.47c-3.45,5.24-16.21,5.56-23.7,5.58c-6.67,0.03-10.1-19.79-7-23.04
			c3.11-3.27,21.89-7.07,26.02-5.3C328.67,218.5,332.65,234.26,329.2,239.47z"/>
		<path class="st2" d="M283.15,244.87c-3.71,4.09-14.28,2.02-20.47,0.68c-5.52-1.21,17.36-24.52,20.47-22.16
			C286.24,225.8,286.87,240.77,283.15,244.87z"/>
		<path class="st2" d="M284.43,283.68c-3.73,4.12-14.27,2.06-20.48,0.71c-5.5-1.23-4.97-19.77-1.87-22.16s19.24-2.39,22.35,0
			C287.51,264.6,288.13,279.63,284.43,283.68z"/>
		<path class="st2" d="M337.27,199.73c2.34-3.84,19.91-11.55,24.31-10.68c4.41,0.87,11.64,15.44,9.38,21.26
			c-2.28,5.82-14.64,8.83-22,10.46C342.45,222.21,334.94,203.55,337.27,199.73z"/>
		<path class="st2" d="M205.47,278.55c-3.49,3.5-13.44,1.76-19.3,0.57c-5.21-1.02-4.68-16.95-1.76-19.01
			c2.93-2.04,18.14-2.04,21.05,0C208.4,262.17,208.99,275.05,205.47,278.55z"/>
		<path class="st2" d="M348.35,299.18c-6.49-1.6-4.89-21.64-1.09-24.04c3.84-2.41,22.97-1.47,26.54,1.26
			c3.54,2.76,3.53,19.02-1.12,23.21C368.08,303.83,355.64,301.01,348.35,299.18z"/>
		<path class="st2" d="M327.78,287.8c-4.43,4.43-16.95,2.22-24.32,0.74c-6.54-1.3-5.87-21.36-2.2-23.96
			c3.69-2.58,22.84-2.54,26.52,0C331.47,267.16,332.21,283.38,327.78,287.8z"/>
		<path class="st2" d="M223.83,262.07c2.91-2.17,18.21-2.17,21.12,0c2.93,2.18,3.52,15.89,0,19.63c-3.53,3.74-13.51,1.85-19.37,0.61
			C220.37,281.22,220.88,264.25,223.83,262.07z"/>
	</g>
	<path class="st1" d="M249.73,136.61"/>
	<path class="st1" d="M251.69,132.69"/>
</g>
<path class="st2" d="M9.47,255.41c-3.64-26.09,36.25-58.48,60.09-77.05c21.3-16.52,36.74,138.54,18.59,142.71
	C69.87,325.02,13.11,281.57,9.47,255.41z"/>
</svg>
