<?xml version="1.0" encoding="utf-8"?>
<!-- Generator: Adobe Illustrator 25.4.1, SVG Export Plug-In . SVG Version: 6.00 Build 0)  -->
<svg version="1.1" id="레이어_1" xmlns="http://www.w3.org/2000/svg" xmlns:xlink="http://www.w3.org/1999/xlink" x="0px"
	 y="0px" viewBox="0 0 600 600" style="enable-background:new 0 0 600 600;" xml:space="preserve">
<style type="text/css">
	.st0{fill:#D4BB88;}
	.st1{fill:#33260E;}
	.st2{fill:#AA5630;}
</style>
<g>
	<path class="st0" d="M204.5,597.7c39.1-6.8,84.8-27.8,84-93.2c-0.3-27.1-5.3-60.8-29.4-79.6c0,0,11.9-94.4,12.6-96.6
		c0.6-2.3,1.9-8.2,6.8-1.8c4.9,6.4,49.2,84.5,49.2,84.5c-30.4,79.6,31.4,128.9,70.5,128.9c82.4,0,94.9-61.1,94.9-88.7
		c0-57.5-40-77.3-49.2-82.6V172.8c26.9-15.5,51.4-31.2,51.4-82.6c0-49.1-34.5-84.6-83.5-88.6c-25.9-2.1-53.6,11.6-71.9,30.9
		C328,24.8,272.3-8.6,242.1,4c-36.2,15.1-34.7,70.8-34.8,71.4c-0.8,25.2,17.4,44.5,18.1,45c-1.4,8.6-3.1,19.6-5.1,32.2
		c0,0-64,36.1-74.3,44c-10.3,7.9,35.6,77.7,42,72.9c6.4-4.8,15.2-9.2,15.2-9.2c-8.6,55.3-18.3,116.6-24.4,156.9
		c0,0-70.5,2.9-73.8,73.4c-3.2,65.7,49.2,80.1,49.2,80.1C156.4,586.6,173.1,603.2,204.5,597.7z M371,328.4c-6,1.1-50.6-84.3-39.6-88
		c8.3-2.8,37.6-2.4,39.6,7.6C373.4,260.3,377,327.3,371,328.4z"/>
	<path class="st1" d="M160.4,547.3l16.2-104.8c-26.7,4.1-47.1,27.1-47.1,54.9C129.5,519.3,142.1,538.2,160.4,547.3z M419,155.3
		c34.6-7.9,56.3-42.4,48.4-77.1c-7.9-34.6-42.4-56.3-77.1-48.4c-34.6,7.9-56.3,42.4-48.4,77.1C349.8,141.5,384.3,163.2,419,155.3z
		 M368.4,71.9c-2.4-0.4-4.9-14-3.6-15.1C366,55.6,422.7,42.9,425,43c2.3,0.1,5.9,13.6,3.6,15.1C426.3,59.6,370.8,72.3,368.4,71.9z
		 M387.1,96.5c-2.2-9.7,3.9-19.4,13.6-21.6c9.7-2.2,19.4,3.9,21.6,13.6c2.2,9.7-3.9,19.4-13.6,21.6
		C399,112.3,389.3,106.2,387.1,96.5z M381.6,126.9c1.1-1.7,58.6-14.4,60.2-13.8c1.6,0.6,4.3,14.2,2.7,15.2
		c-1.6,1-57.9,14.7-60.2,13.7C381.9,141.1,380.5,128.6,381.6,126.9z M374.5,507.9c31.4,16.7,70.4,4.7,87-26.6
		c16.7-31.4,4.7-70.4-26.6-87c-31.4-16.7-70.4-4.7-87,26.7C331.1,452.3,343.1,491.3,374.5,507.9z M394.2,410.4
		c-0.4,2.7-27.1,53-29,54.6s-13.8-5.5-13.8-7.1c0-1.6,27.4-52.9,29-54.6C382.1,401.6,394.6,407.7,394.2,410.4z M413.1,435.2
		c8.8,4.7,12.1,15.6,7.5,24.4s-15.6,12.1-24.4,7.5c-8.8-4.7-12.1-15.6-7.5-24.4C393.4,433.8,404.3,430.5,413.1,435.2z M414.5,491.3
		c-0.6-2,27.4-53.7,29-54.6s14.6,5.7,14.3,7.6c-0.3,1.9-26.7,53.4-29,54.6C426.6,500.1,415.1,493.3,414.5,491.3z M262.7,510.6
		c4.5-35.4-12.7-57.1-29.8-69.8l29.7-192.4L347,399.7c7-8.6,19.4-16.1,26.2-19.1l-94.3-169H389v163.9c10.6-2.2,21.6-2.1,32.2,0.2
		V168c-10.6,2.3-21.6,2.4-32.2,0.2v19h-114c26.4-15.4,53.7-31.4,72.6-42.5c-0.4-0.5-12.9-14.5-16.4-27.9
		c-14.5,8.4-33.5,19.4-53.2,30.8l6.3-41.1c7.6-0.2,14-1.2,17.2-3.1c10.3-6.2,20-58.6,9.3-66.1c-10.7-7.5-46-18.5-61-12.3
		c-15,6.2-23.8,61-12.6,71.3c3.1,2.8,8.5,5.1,15.1,6.8c0,0-4.1,25.9-10.4,65.5c-32.7,19-60.5,35.2-64,37.3
		c-9.1,5.5,6.9,31.9,14.8,28.6c2.4-1,19.7-10.9,42.7-24.2c-21.4,136.2-55.2,354.3-52.8,359C186.8,577.3,255.6,566.6,262.7,510.6z"/>
</g>
<path class="st2" d="M242.7,25.2c10.5-6.9,59.9-1.4,68.4,7.5s4.4,58.9-8.6,71.2c-13,12.3-44.6,1.9-63-4.7
	C223,93.4,232.2,32.1,242.7,25.2z"/>
</svg>
