<?xml version="1.0" encoding="utf-8"?>
<!-- Generator: Adobe Illustrator 25.4.1, SVG Export Plug-In . SVG Version: 6.00 Build 0)  -->
<svg version="1.1" id="레이어_1" xmlns="http://www.w3.org/2000/svg" xmlns:xlink="http://www.w3.org/1999/xlink" x="0px"
	 y="0px" viewBox="0 0 512 512" style="enable-background:new 0 0 512 512;" xml:space="preserve">
<style type="text/css">
	.st0{fill:#D4BB88;}
	.st1{fill:#33260E;}
	.st2{fill:#959535;}
	.st3{fill:#AA5630;}
	.st4{fill:#D0B786;}
</style>
<g>
	<path class="st0" d="M180.1,40c-15.4,14.2-24.3,27.7-29.2,36.8c-13,23.9-13.2,36.6-29.7,60.6c-7.8,11.4-15.1,18.6-22.7,26.1
		C53.4,207.9,24,202.1,8.6,233.4c-12,24.5-4.4,49.4-2.7,55c1.5,5,8.5,11.3,14.9,17.2c4.5,4.2,10,9.3,17.7,13.4
		c17.9,9.4,34.6,5.8,45.8,12.5c6.7,4,11.8,8.3,15.1,11.4c2.9,3.4,6.3,7.4,9.9,12c3.3,4.1,6.7,8.4,10,12.9
		c6.2,8.3,36.6,43.3,47.1,57.3c3.7,4.9,7,9.9,7,9.9c2.6,4,27.8,29.5,35.8,39.6c8.9,2.6,19.9,2.8,29,1c16.8-3.1,33.7-14,40.7-30.4
		c1-0.8,2.1-1.6,3-2.5c-0.8-24.3-4.5-50.4-22.8-66.6c-5.5-4.9-3.2-22.6-4.4-25.7c22.6-3.4,45.1-6.9,67.7-10.3
		c28.1,11.4,48.3,24.2,61.8,34c21.4,15.5,35.3,30.2,56.9,29.4c2.4-0.1,17.1,3.5,24.3-7.5c3.9-6,40.5-84.7,40.5-84.7
		s20.4-43.2-15.8-59c-14.5-6.3-36.7-6.1-55,15.2l-24.7-22.3l-0.8-16.2l89.3-20.7c0,0,11.7-3.2,11.3-12.8
		c-0.5-9.6-1.8-106.4-33.8-129c-12-8.4-26.5-11.5-40.5-7.6c-23.6,6.7-38.8,25.8-42.1,52.2c-28.3,4.3-56.4,10.1-69.7,17.6
		c-1.3,0.7-35.6,19.3-54.5,30.7c-0.2,0.6-0.6,1.2-0.9,1.7c-2.8,4.6-7.7,7.5-13.1,7.6c-2.9,0.1-6-0.8-8.5-2.2c-0.6-0.3-1.2-0.7-1.6-1
		c-0.1-0.1-0.1-0.1-0.2-0.1c-5.4-1.2-10-6.3-9.8-12c0.1-2.9,1.2-5.5,2.9-7.6c0.2-0.6,0.5-1.4,0.8-2.4c6-17.6,10-31.9,12.1-39.7
		c1.3-4.8,3-11,4.7-18.4c0.5-4.3,0.3-10.6-2.3-17.3c-3.5-8.4-9.3-13.1-13.7-16.6c-5.6-4.5-11-7-14.8-8.5c-3.3-2.3-9.1-5.6-17-7.1
		C194.6,33.5,183.9,38.1,180.1,40z"/>
	<path class="st1" d="M191.4,76.5c-0.2,0.8-0.5,2.2-2,8.3c-0.3,1-0.6,2.1-0.8,3.1c0,0.2,0,0.6-0.1,0.8c-0.1,0.3-0.1,0.7-0.2,0.9
		c-0.2,1-0.5,2.5-0.9,4.4s-0.7,2.4-1.8,7.5c-1.2,4.5-1.3,5.5-2.2,8.9c-0.3,1.5-0.8,3-0.8,3c-5.2,18.2-21.4,41.4-21.4,41.4
		c-8.1,22.7-19.1,34.6-28,41.2c-7.6,5.8-16.8,38-23.2,43.3c-3.1,2.6-8.9,3.9-13.2,2.4c-2.8-1-3.4-2.3-7.1-3.5
		c-4.2-1.4-6.2,0.6-7.9-1.2c-2.5-2.6-0.3-6.4-2.4-7.6c-1.2-0.8-3.8,0.5-8.8,2.9c-4.5,2.2-4.1,2.7-6.2,3.2c-3.5,0.9-5.7,0.1-7.3,1.8
		c-1,1-1.1,2.3-1.2,3c-0.6,6.4,3.1,49.9,3.3,52.9c4.8-0.3,11.8-1.2,19.8-3.9c11.8-4.1,14.4-10.3,22.9-10c7.3,0.3,13.1,4.9,14.8,6.3
		c0.5,0.4,0.9,0.8,1.4,1.2c3.2,3.1,5.2,6.1,6.1,7.7c0.1,0.1,0.3,0.6,0.3,0.6c0,0-0.3-0.6-0.3-0.6c-0.1,0.1,2.6,7.7,3,8.8
		c3.6,9.7,11.1,13.8,22,26.9c8.5,10.4,22.6,30.9,23.4,32c0,0.1,0.5,0.6,1.1,1.4c1.1,1.4,1.4,1.9,3.2,4.1c6.7,8.3,10.2,11.7,18.1,22
		c1.2,1.4,8.9,11.6,11.6,19.2c0.2,0.7,1.2,3,2.8,7.6c0.7,1.8,1.4,3.8,2.1,5.8c0.5,1.3,0.8,2.5,1.3,3.8c0.6,1.6,1.2,3.1,1.6,4.7
		c0.9,2.9,2,5.5,2.2,6.2c1.8,4.5,10.2,12.1,18.1,8.9c6.4-2.3,10.5-10.6,7.9-18.8c-0.3-1.2-0.8-2.8-1.3-4.4c-1.3-4.3-2.6-8.5-4-12.9
		c-0.9-3.1-2-6.2-3-9.2c-0.6-1.6-1-2.9-1-3c-2-5.5-10.9-19.3-16.6-27.7c-1.3-2-2.6-3.8-3.7-5.4c-3.6-5-6.4-8.5-6.8-9.1
		c-2.9-3.6-9.2-13.9-24.3-42.3c2.6-1.5,33.4-19,53-19.1c7.2,0,12.5,0.6,12.5,0.6c7.7,0.9,12.6,2.6,19.8,3.3
		c4.4,0.4,7.6,0.3,10.7,0.2c43.2-1.3,51.1-1.4,59.2,0.6c8.3,2,101.2,60.9,101.2,60.9s6.4,3.7,10.8-1.5c13.8-16.5,47.3-76.2,23.9-78
		c-23.6-1.8-34.4,28.1-34.4,28.1s-38.3-28.8-62.3-45.5c-5.7-3-13.1-7.1-21.7-12c-19.7-11.3-22.2-13.9-22.2-16.9
		c0-5.2,7.9-7.3,22.7-18.2c7.7-5.7,13.6-11,17.6-15c31.6-7.3,63.2-14.7,94.8-22c0,0,7.2-1.8,6.7-8.6c-1.8-21.4-5.9-83.3-28.4-77
		c-25.5,7.2-14.3,49-14.3,49s-73.3,8.4-89.8,17.6c-7.8,4.3-41.2,21.9-64.4,36.9c-8.8,3.9-22.6,8.7-40.1,9.4
		c-28.3,1.1-49.6-9.3-59-14.7c4.4-12.5,9.1-22.1,12.5-28.6c7.3-13.7,15.6-24.9,20.5-44.4c0.3-1.4,0.7-2.4,0.8-3.1
		c0.2-0.6,0.5-1.5,0.6-2.1c0-0.1,0.1-0.3,0.2-0.6c0.1-0.2,0.3-0.9,0.6-1.8c0.5-2,0.7-3.7,0.7-3.7c0-0.5,0.1-0.3,1-5.9
		c0.2-1.3,0.8-4.4,2-10.7c0.3-1.7,0.8-4.1,1.3-6.8c0.5-6.4-2.4-12.5-7.2-15C203.2,64.5,193,71.3,191.4,76.5z"/>
	<path class="st1" d="M212.7,118.7"/>
	<path class="st1" d="M215,114.2"/>
</g>
<path class="st2" d="M234.7,294.9c0.1,0,0.1,0,0.1,0c0.5,0.2,1.7,0.2,8.9,0c6.6-0.2,9.8-0.2,10.4-0.4c8.5-1.8,6.7-23.4,7.7-45.7
	c0.6-13.4,2.5-43.7-3.3-44.5c0.6-1.3,0.5-1.7,0.4-1.9c-1-1.1-4.7,1.1-10.7,1.9c-6.1,0.9-10.2-0.4-11,1.5c-0.4,0.8,0.2,1.8,0.3,2.1
	c3.2,6.1,2.9,34.1,2.9,39.8c0,21.3-2.8,40.1-4.4,43.3C235.5,292.3,235.1,293.6,234.7,294.9z"/>
<path class="st3" d="M65.6,195.8"/>
<path class="st1" d="M33.2,108.9"/>
<path class="st1" d="M71.7,105.7"/>
<g>
	<path class="st3" d="M72.5,308.3c-1.9,1.9-5.7,1.7-7.9-0.3c-2.9-2.6-1.2-6.7-4-9.6c-1.3-1.3-3-1.8-8.2-1.8c-8,0-10.6,1-13.4,0.9
		c-9.3-0.3-21-13.1-21.6-28.1c-0.1-2-0.3-13.3,6.5-20c7.4-7.3,16.8-2.9,19.7-9.3c2.7-5.8-3.6-12.5-0.1-17.7c1.7-2.4,4.9-3.6,7.4-3
		c4.7,1.1,7.2,8.5,10.4,17.3c0.8,2.2,1.4,4.2,1.9,6.1c2.3,7.9,3.5,14.1,4.3,19c2,10.9,3.5,19.6,5.3,32.9
		C74,304.8,73.8,307,72.5,308.3z"/>
	<path class="st4" d="M51.6,302.1C51.6,302,51.6,302,51.6,302.1c0.3,0.1,0.9,0,4.1-0.8c7.1-1.8,3.6-18.9,1.2-32.8
		c-1.3-7.1-3-13.7-6.8-20.8c-3.6-6.7-7.3-10.3-8.6-9.8c-0.7,0.3-1.4,1.9-2.1,3.6c0,0.1-0.1,0.2-0.1,0.4c0,0.6,0.4,1.2,0.5,1.4
		c2.4,3.8,6.5,22.7,7.4,26.5c3.2,14.4,4.9,27.2,4.6,29.5C51.5,300.2,51.6,301.1,51.6,302.1z"/>
</g>
<path class="st3" d="M49.9,241.4"/>
</svg>
