<?xml version="1.0" encoding="utf-8"?>
<!-- Generator: Adobe Illustrator 25.4.1, SVG Export Plug-In . SVG Version: 6.00 Build 0)  -->
<svg version="1.1" id="레이어_1" xmlns="http://www.w3.org/2000/svg" xmlns:xlink="http://www.w3.org/1999/xlink" x="0px"
	 y="0px" viewBox="0 0 512 512" style="enable-background:new 0 0 512 512;" xml:space="preserve">
<style type="text/css">
	.st0{fill:#D4BB88;}
	.st1{fill:#33260E;}
	.st2{fill:#959535;}
	.st3{fill:#AA5630;}
	.st4{fill:#D0B786;}
</style>
<g>
	<path class="st0" d="M212.5,61.2c-13.9,12.8-21.9,25-26.3,33.2c-11.7,21.6-11.9,33-26.8,54.7c-7,10.3-13.6,16.8-20.5,23.5
		c-40.7,40.1-67.2,34.8-81.1,63.1c-10.8,22.1-4,44.6-2.4,49.6c1.4,4.5,7.7,10.2,13.4,15.5c4.1,3.8,9,8.4,16,12.1
		c16.1,8.5,31.2,5.2,41.3,11.3c6,3.6,10.6,7.5,13.6,10.3c2.6,3.1,5.7,6.7,8.9,10.8c3,3.7,6,7.6,9,11.6c5.6,7.5,33,39.1,42.5,51.7
		c3.3,4.4,6.3,8.9,6.3,8.9c7.8,5.7,18.9,27.4,24.9,31.9c2.8,2.1,5.6,3.2,7.4,3.8c4.7,1.7,14.8,4.4,26.2,0.9
		c21.9-6.6,28.5-29.8,29-31.5c2.8-8.1,2.3-13.8,1.3-17.6c-0.3-1-0.8-3.9-1.5-7.3c-0.4-2.3-1.2-7.3-2.2-12.8
		c-1.1-6.6-2.4-14-3.5-18.4c-2.5-10.4-5.6-19-8.2-25.3c10.2-1.5,20.4-3.1,30.5-4.6c10.2-1.6,20.3-3.1,30.5-4.6
		c25.3,10.3,43.6,21.8,55.8,30.7c19.3,14,31.8,27.2,51.3,26.5c2.2-0.1,15.4,3.2,21.9-6.8c3.5-5.4,36.5-76.4,36.5-76.4
		s18.4-39-14.3-53.2c-13.1-5.7-33.1-5.5-49.6,13.7l-22.3-20.1l-0.7-14.6l80.6-18.7c0,0,10.6-2.9,10.2-11.5
		c-0.5-8.7-1.6-96-30.5-116.4c-10.8-7.6-23.9-10.4-36.5-6.9c-21.3,6-35,23.3-38,47.1c-25.5,3.9-50.9,9.1-62.9,15.9
		c-1.2,0.6-56.9,36-61.8,36.1c-2.6,0.1-5.4-0.7-7.7-2c-0.5-0.3-1.1-0.6-1.4-0.9c-0.1-0.1-0.1-0.1-0.2-0.1c-4.9-1.1-9-5.7-8.8-10.8
		c0.1-2.6,1.1-5,2.6-6.9c0.2-0.5,0.5-1.3,0.7-2.2c5.4-15.9,9-28.8,10.9-35.8c1.2-4.3,2.7-9.9,4.2-16.6c0.5-3.9,0.3-9.6-2.1-15.6
		c-3.2-7.6-8.4-11.8-12.4-15c-5.1-4.1-9.9-6.3-13.4-7.7c-3-2.1-8.2-5.1-15.3-6.4C225.6,55.3,216,59.4,212.5,61.2z"/>
	<path class="st1" d="M222.7,94.1c-0.2,0.7-0.5,2-1.8,7.5c-0.3,0.9-0.5,1.9-0.7,2.8c0,0.2,0,0.5-0.1,0.7c-0.1,0.3-0.1,0.6-0.2,0.8
		c-0.2,0.9-0.5,2.3-0.8,4s-0.6,2.2-1.6,6.8c-1.1,4.1-1.2,5-2,8c-0.3,1.4-0.7,2.7-0.7,2.7c-4.7,16.4-27.1,51.6-34.1,61.2
		c-4.8,6.6-6.2,7.6-8.2,10.1c-0.4,0.5-1.2,1.5-2.3,3.2c-0.3,0.5-4.6,6.8-7,11.4c-6,11.8-2.1,18.3-8.5,24.2c-2,1.8-4.2,2.8-5.4,3.5
		c-3.3,1.6-8.1,3.5-11.9,2.2c-2.5-0.9-3.1-2.1-6.4-3.2c-3.8-1.3-5.6,0.5-7.1-1.1c-2.3-2.3-0.3-5.8-2.2-6.9c-1.1-0.7-3.4,0.5-7.9,2.6
		c-4.1,2-3.7,2.4-5.6,2.9c-3.2,0.8-5.1,0.1-6.6,1.6c-0.9,0.9-1,2.1-1.1,2.7c-0.5,5.8,2.8,45,3,47.7c4.3-0.3,10.6-1.1,17.9-3.5
		c10.6-3.7,13-9.3,20.7-9c6.6,0.3,11.8,4.4,13.4,5.7c0.5,0.4,0.8,0.7,1.3,1.1c2.9,2.8,4.7,5.5,5.5,6.9c0.1,0.1,0.3,0.5,0.3,0.5
		l-0.3-0.5c-0.1,0.1,2.3,6.9,2.7,7.9c3.2,8.8,10,12.4,19.8,24.3c7.7,9.4,20.4,27.9,21.1,28.9c0,0.1,0.5,0.5,1,1.3
		c1,1.3,1.3,1.7,2.9,3.7c6,7.5,9.2,10.6,16.3,19.8c1.1,1.3,8,10.5,10.5,17.3c0.2,0.6,1.1,2.7,2.5,6.9c0.6,1.6,1.3,3.4,1.9,5.2
		c0.5,1.2,0.7,2.3,1.2,3.4c0.5,1.4,1.1,2.8,1.4,4.2c0.8,2.6,1.8,5,2,5.6c1.6,4.1,9.2,10.9,16.3,8c5.8-2.1,9.5-9.6,7.1-17
		c-0.3-1.1-0.7-2.5-1.2-4c-1.2-3.9-2.3-7.7-3.6-11.6c-0.8-2.8-1.8-5.6-2.7-8.3c-0.5-1.4-0.9-2.6-0.9-2.7c-1.8-5-9.8-17.4-15-25
		c-1.2-1.8-2.3-3.4-3.3-4.9c-3.2-4.5-5.8-7.7-6.1-8.2c-2.6-3.2-8.3-12.5-21.9-38.2c2.3-1.4,30.1-17.1,47.8-17.2
		c6.5,0,11.3,0.5,11.3,0.5c6.9,0.8,11.4,2.3,17.9,3c4,0.4,6.9,0.3,9.7,0.2c39-1.2,46.1-1.3,53.4,0.5c7.5,1.8,91.3,54.9,91.3,54.9
		s5.8,3.3,9.7-1.4c12.4-14.9,42.7-68.7,21.6-70.4c-21.3-1.6-31,25.3-31,25.3s-34.6-26-56.2-41c-5.1-2.7-11.8-6.4-19.6-10.8
		c-17.8-10.2-20-12.5-20-15.2c0-4.7,7.1-6.6,20.5-16.4c6.9-5.1,12.3-9.9,15.9-13.5c28.5-6.6,57-13.3,85.5-19.8c0,0,6.5-1.6,6-7.8
		c-1.6-19.3-5.3-75.1-25.6-69.5c-23,6.5-12.9,44.2-12.9,44.2s-66.1,7.6-81,15.9c-7,3.9-37.2,19.8-58.1,33.3
		c-7.9,3.5-20.4,7.8-36.2,8.5c-25.5,1-44.7-8.4-53.2-13.3c4-11.3,8.2-19.9,11.3-25.8c6.6-12.4,14.1-22.5,18.5-40.1
		c0.3-1.3,0.6-2.2,0.7-2.8c0.2-0.5,0.5-1.4,0.5-1.9c0-0.1,0.1-0.3,0.2-0.5c0.1-0.2,0.3-0.8,0.5-1.6c0.5-1.8,0.6-3.3,0.6-3.3
		c0-0.5,0.1-0.3,0.9-5.3c0.2-1.2,0.7-4,1.8-9.7c0.3-1.5,0.7-3.7,1.2-6.1c0.5-5.8-2.2-11.3-6.5-13.5
		C233.4,83.3,224.2,89.4,222.7,94.1z"/>
	<path class="st1" d="M242,132.2"/>
	<path class="st1" d="M244,128.1"/>
</g>
<path class="st2" d="M258.4,291.1C258.4,291.1,258.4,291.1,258.4,291.1c0.5,0.2,1.6,0.2,8.1,0c6-0.2,8.8-0.2,9.4-0.4
	c7.7-1.6,6-21.1,6.9-41.2c0.5-12.1,2.3-39.4-3-40.1c0.5-1.2,0.5-1.5,0.4-1.7c-0.9-1-4.2,1-9.7,1.7c-5.5,0.8-9.2-0.4-9.9,1.4
	c-0.4,0.7,0.2,1.6,0.3,1.9c2.9,5.5,2.6,30.8,2.6,35.9c0,19.2-2.5,36.2-4,39.1C259.1,288.8,258.7,289.9,258.4,291.1z"/>
<path class="st3" d="M109.3,201.7"/>
<path class="st1" d="M80,123.3"/>
<path class="st1" d="M114.8,120.4"/>
<g>
	<path class="st3" d="M115.5,303.2c-1.7,1.7-5.1,1.5-7.1-0.3c-2.6-2.3-1.1-6-3.6-8.7c-1.2-1.2-2.7-1.6-7.4-1.6
		c-7.2,0-9.6,0.9-12.1,0.8c-8.4-0.3-18.9-11.8-19.5-25.3c-0.1-1.8-0.3-12,5.9-18c6.7-6.6,15.2-2.6,17.8-8.4c2.4-5.2-3.2-11.3-0.1-16
		c1.5-2.2,4.4-3.2,6.7-2.7c4.2,1,6.5,7.7,9.4,15.6c0.7,2,1.3,3.8,1.7,5.5c2.1,7.1,3.2,12.7,3.9,17.1c1.8,9.8,3.2,17.7,4.8,29.7
		C116.8,300,116.6,302,115.5,303.2z"/>
	<path class="st4" d="M96.6,297.6C96.6,297.5,96.6,297.5,96.6,297.6c0.3,0.1,0.8,0,3.7-0.7c6.4-1.6,3.2-17.1,1.1-29.6
		c-1.2-6.4-2.7-12.4-6.1-18.8c-3.2-6-6.6-9.3-7.8-8.8c-0.6,0.3-1.3,1.7-1.9,3.2c0,0.1-0.1,0.2-0.1,0.4c0,0.5,0.4,1.1,0.5,1.3
		c2.2,3.4,5.9,20.5,6.7,23.9c2.9,13,4.4,24.5,4.1,26.6C96.5,295.9,96.6,296.7,96.6,297.6z"/>
</g>
<path class="st3" d="M95.1,242.9"/>
<path class="st0" d="M293.8,409.3c-0.1-1.7-0.2-3.4-0.3-5.1"/>
<path class="st0" d="M238.8,453.2"/>
</svg>
