<?xml version="1.0" encoding="utf-8"?>
<!-- Generator: Adobe Illustrator 25.4.1, SVG Export Plug-In . SVG Version: 6.00 Build 0)  -->
<svg version="1.1" id="레이어_1" xmlns="http://www.w3.org/2000/svg" xmlns:xlink="http://www.w3.org/1999/xlink" x="0px"
	 y="0px" viewBox="0 0 512 512" style="enable-background:new 0 0 512 512;" xml:space="preserve">
<style type="text/css">
	.st0{fill:#D0B886;}
	.st1{fill:#33260E;}
	.st2{fill:#A55530;}
</style>
<g>
	<path class="st0" d="M498.71,393.94c-5.39,4.98-12.63,7.52-19.87,6.96c-21.42-1.65-32.88-21.11-38.8-37.77
		c-4.74,9.44-19.9,14.47-34.1,11.44c-5.15-1.1-26.36-5.77-30.04-6.58c-22.75,21.66-52.91,33.84-84.76,33.84
		c-45.06,0-85.37-23.92-107.01-62.21c-3.42,2.44-7.13,3.85-10.77,4.44c1.15,8.28-4.87,18.18-15.51,21.24
		c-2.27,8.34-9.37,15.45-20.69,15.77c-3.53,16.03-17.52,17.75-31.47,14.78c-7.99,11.14-28.95,4.22-29.24,4.09
		c-6.71,8.14-35.55,10.29-40.18-5.5c-23.54,0.09-32.51-15.57-32.27-27.98c0.55-28.09,50.25-62.3,81.86-64.33
		c-14.82-29.38,0.78-53.55,13.17-65.65c17.58-17.16,42.6-26.24,70.46-25.57c5.9,0.14,11.29,2.09,15.69,5.33
		c6.32-10.67,14.24-20.35,23.43-28.69c-2.33-1.99-4.78-4.04-7.31-6.1c-39.34-0.64-80.78-1.31-100.96-1.61
		c-6.62,5.76-16.8,10.4-32.36,10.15c-15.86-0.24-65.8-17.65-65.8-41.93s51.04-40.93,67.06-40.69c15.64,0.24,25.7,5.24,32.15,11.26
		c16.08,0.21,44.83,0.62,73.13,1.03c20.66-24,48.85-12.16,59.74,0.88c92.45,1.37,234.02,3.53,240.94,3.78
		c17.45,0.65,30.61,13.57,30.61,30.05c0,4.88-1.16,9.49-3.25,13.58c5.95,8.39,7.28,19.9,7.28,35.05c0,16.94-2.2,38.06-2.2,38.06
		c-2.35,15.32-13.97,24.15-24.64,26.41l-41.41,10.84c-0.08,0.14-0.16,0.29-0.24,0.43c0.08,0.14,0.16,0.29,0.24,0.43l41.41,10.84
		c10.67,2.26,22.3,11.09,24.65,26.41c0,0,2.2,21.12,2.2,38.06C509.84,372.48,507.98,385.35,498.71,393.94z M415.07,184.73
		c12.91,2.37,22.24,7.24,27.69,18.58c1.06-2.98,5.16-14.88,6.6-17.93C445.05,185.32,420.58,184.81,415.07,184.73z M349.95,183.65
		c3.44,1.72,11.77,7.03,16.07,10.47c3.69-0.81,28.68-8.75,32.22-9.52C389.74,184.48,360.38,183.82,349.95,183.65z"/>
	<path class="st1" d="M459,341.34c0,0-17.15-3.2-37.85-7.02c0,6.88,0,11.85,0,11.85s0.82,7.17-10.18,4.82
		c-10.34-2.2-27.07-5.97-43.3-9.47c-18.15,22.1-45.68,36.2-76.52,36.2c-42.02,0-77.9-26.2-92.26-63.14c-1.9-2.87-4.42-5.49-7.8-5.49
		c-4.95,0-10.76,1.72-17.86,4.37c0,0-1.62,7.11-4.19,6.83c-55.94-11.19-65.41-28.37-65.41-43.46c0-14.63,21.91-42.9,65.27-41.85
		c4.77,0.11,4.56,7.95,0.14,8.07c-8.03,0.22-13.35,0.08-21.08,5.81c-9.6,7.09-4.02,19.98,10.88,21.21
		c23.92,1.98,17.88-13.82,23.54-17.34c4.56-2.84,10.8-3.16,14.13-3.05c7.92-25.8,26.1-47.1,49.78-59.15
		c-5.55-7.33-22.37-22.12-36.41-33.05c-63.62-1.04-115.34-1.88-121.45-1.9c-1.95,6.21-7.37,10.51-20.11,10.31
		c-16.86-0.25-42.09-13.55-42.06-17.84c0.07-4.31,25.72-16.84,42.59-16.58c12.85,0.2,18.11,4.77,19.83,11.11
		c3.25-0.01,47.4,0.61,104.74,1.46c-6.07-9.43,6.82-17.76,15.94-11.15c3.54,2.57,9.96,6.64,17.49,11.64
		c108.14,1.6,241.21,3.65,247.44,3.88c10.43,0.39,9.73,12.39-1.37,13.08c-3.54,0.22-122.06-1.7-226.69-3.41
		c10.04,7.51,19.64,15.73,25.6,23.61c6.24-1.24,12.69-1.9,19.3-1.9c30.83,0,58.36,14.1,76.51,36.2c16.24-3.5,32.96-7.26,43.3-9.47
		c11-2.35,10.18,4.82,10.18,4.82s0,4.97,0,11.85c20.7-3.82,37.85-7.02,37.85-7.02s6.85-34.38,21.7-35.53
		c9.11-0.71,3.12,56.78,3.12,56.78c-0.9,5.91-6.12,6.54-6.12,6.54l-56.55,14.81c0,2.51,0,4.34,0,5.14c0,4.52-5,6.66-5,6.66
		l-26.03,8.18l26.03,8.18c0,0,5,2.14,5,6.66c0,0.8,0,2.63,0,5.14l56.55,14.81c0,0,5.22,0.63,6.12,6.54c0,0,5.97,57.48-3.12,56.78
		C465.85,375.72,459,341.34,459,341.34z"/>
	<g>
		<path class="st0" d="M238.59,232.37c-0.44,4.9-8.56,8.8-10.6,7.92s3.97-4.91,4.3-8.59c0.33-3.67-3.44-8.85-1.61-9.47
			C232.5,221.62,239.03,227.47,238.59,232.37z"/>
		<path class="st0" d="M253.74,225c1.82-0.62,8.35,5.24,7.91,10.14c-0.44,4.9-8.56,8.8-10.6,7.92c-2.04-0.88,3.97-4.91,4.31-8.59
			C255.69,230.79,251.92,225.61,253.74,225z"/>
		<path class="st0" d="M276.84,227.35c1.82-0.62,8.35,5.24,7.92,10.14c-0.44,4.9-8.56,8.8-10.6,7.92c-2.04-0.88,3.97-4.91,4.3-8.59
			C278.79,233.15,275.01,227.96,276.84,227.35z"/>
		<path class="st0" d="M299.26,228.96c1.76-0.75,8.8,4.73,8.8,9.7c0,4.97-7.75,9.45-9.85,8.71c-2.11-0.75,3.52-5.22,3.52-8.95
			C301.73,234.69,297.51,229.72,299.26,228.96z"/>
		<path class="st0" d="M334.16,230.48c2.14-0.55,9.55,4.54,9.23,9.46c-0.32,4.91-7.66,9.69-9.36,8.8c-1.7-0.89,2.81-5.43,3.05-9.11
			C337.32,235.94,332.01,231.03,334.16,230.48z"/>
		<path class="st0" d="M360.32,234.75c0.24-3.69-5.07-8.6-2.92-9.14c2.14-0.55,9.55,4.54,9.23,9.46c-0.32,4.91-7.65,9.69-9.36,8.8
			C355.56,242.97,360.08,238.43,360.32,234.75z"/>
		<path class="st0" d="M383.55,229.87c0.24-3.69-5.07-8.6-2.92-9.14c2.15-0.55,9.55,4.54,9.23,9.46c-0.32,4.91-7.65,9.69-9.35,8.8
			C378.81,238.1,383.32,233.55,383.55,229.87z"/>
		<path class="st0" d="M406.79,225c0.24-3.69-5.07-8.6-2.92-9.14c2.14-0.55,9.55,4.54,9.23,9.46c-0.32,4.91-7.65,9.69-9.36,8.8
			C402.04,233.22,406.55,228.68,406.79,225z"/>
		<path class="st0" d="M337.08,265.16c0.24-3.69-5.07-8.6-2.92-9.14c2.14-0.55,9.55,4.54,9.23,9.46c-0.32,4.91-7.66,9.69-9.36,8.8
			C332.33,273.38,336.84,268.84,337.08,265.16z"/>
		<path class="st0" d="M360.32,263.15c0.24-3.69-5.07-8.6-2.92-9.14c2.14-0.55,9.55,4.54,9.23,9.46c-0.32,4.91-7.65,9.69-9.36,8.8
			C355.56,271.37,360.08,266.84,360.32,263.15z"/>
		<path class="st0" d="M383.55,258.27c0.24-3.69-5.07-8.6-2.92-9.14c2.15-0.55,9.55,4.54,9.23,9.46c-0.32,4.91-7.65,9.69-9.35,8.8
			C378.81,266.5,383.32,261.96,383.55,258.27z"/>
		<path class="st0" d="M406.79,253.4c0.24-3.69-5.07-8.6-2.92-9.14c2.14-0.55,9.55,4.54,9.23,9.46c-0.32,4.91-7.65,9.69-9.36,8.8
			C402.04,261.62,406.55,257.08,406.79,253.4z"/>
		<path class="st0" d="M343.39,318.91c0.31,4.91-7.09,10.01-9.23,9.46c-2.15-0.55,3.16-5.46,2.92-9.14
			c-0.24-3.68-4.75-8.22-3.05-9.11C335.73,309.22,343.07,314.01,343.39,318.91z"/>
		<path class="st0" d="M357.39,333.25c-2.15-0.55,3.16-5.46,2.92-9.14c-0.24-3.68-4.75-8.22-3.05-9.11c1.7-0.89,9.04,3.9,9.36,8.8
			C366.94,328.7,359.54,333.8,357.39,333.25z"/>
		<path class="st0" d="M380.63,338.12c-2.15-0.55,3.17-5.46,2.92-9.14c-0.24-3.68-4.75-8.22-3.05-9.11c1.7-0.89,9.04,3.9,9.35,8.8
			C390.18,333.58,382.78,338.68,380.63,338.12z"/>
		<path class="st0" d="M406.79,333.85c-0.24-3.68-4.75-8.22-3.05-9.11c1.7-0.89,9.04,3.9,9.36,8.8c0.31,4.91-7.09,10.01-9.23,9.46
			C401.72,342.45,407.03,337.53,406.79,333.85z"/>
		<path class="st0" d="M343.39,292.81c0.31,4.91-7.09,10.01-9.23,9.46c-2.15-0.55,3.16-5.46,2.92-9.14
			c-0.24-3.68-4.75-8.22-3.05-9.11C335.73,283.11,343.07,287.9,343.39,292.81z"/>
		<path class="st0" d="M357.39,304.85c-2.15-0.55,3.16-5.46,2.92-9.14c-0.24-3.68-4.75-8.22-3.05-9.11c1.7-0.89,9.04,3.9,9.36,8.8
			C366.94,300.3,359.54,305.39,357.39,304.85z"/>
		<path class="st0" d="M380.63,309.72c-2.15-0.55,3.17-5.46,2.92-9.14c-0.24-3.68-4.75-8.22-3.05-9.11c1.7-0.89,9.04,3.9,9.35,8.8
			C390.18,305.18,382.78,310.27,380.63,309.72z"/>
		<path class="st0" d="M406.79,305.45c-0.24-3.68-4.75-8.22-3.05-9.11c1.7-0.89,9.04,3.9,9.36,8.8c0.31,4.91-7.09,10.01-9.23,9.46
			C401.72,314.05,407.03,309.13,406.79,305.45z"/>
		<path class="st0" d="M238.59,326.53c0.44,4.9-6.09,10.75-7.91,10.14c-1.82-0.62,1.95-5.8,1.61-9.47c-0.33-3.67-6.35-7.71-4.3-8.59
			C230.03,317.73,238.15,321.62,238.59,326.53z"/>
		<path class="st0" d="M261.65,323.77c0.44,4.9-6.09,10.76-7.91,10.14c-1.82-0.61,1.95-5.8,1.62-9.47
			c-0.33-3.67-6.35-7.71-4.31-8.59S261.21,318.87,261.65,323.77z"/>
		<path class="st0" d="M284.75,321.42c0.44,4.9-6.09,10.76-7.92,10.14c-1.82-0.62,1.95-5.8,1.62-9.47c-0.33-3.67-6.35-7.71-4.3-8.59
			C276.18,312.62,284.31,316.51,284.75,321.42z"/>
		<path class="st0" d="M308.07,320.23c0,4.97-7.05,10.45-8.8,9.7c-1.75-0.75,2.46-5.72,2.46-9.45c0-3.73-5.63-8.21-3.52-8.95
			S308.07,315.25,308.07,320.23z"/>
		<path class="st0" d="M238.42,295.69c0.01,4.92-7.01,10.17-8.77,9.39c-1.75-0.78,2.45-5.6,2.45-9.29c0.01-3.69-5.62-8.24-3.51-8.94
			C230.69,286.16,238.42,290.77,238.42,295.69z"/>
		<path class="st0" d="M261.6,294.98c0.01,4.92-7.01,10.18-8.77,9.39c-1.76-0.78,2.45-5.6,2.45-9.29c-0.01-3.69-5.62-8.24-3.52-8.94
			C253.87,285.46,261.6,290.06,261.6,294.98z"/>
		<path class="st0" d="M284.78,294.69c0,4.92-7.01,10.17-8.77,9.4c-1.75-0.78,2.46-5.6,2.46-9.29c-0.01-3.69-5.62-8.24-3.52-8.94
			C277.05,285.17,284.77,289.77,284.78,294.69z"/>
		<path class="st0" d="M301.75,295.26c0.33-3.72-4.86-8.67-2.69-9.23c2.16-0.56,9.46,4.59,9.02,9.54c-0.44,4.96-7.94,9.79-9.62,8.88
			C296.77,303.56,301.42,298.98,301.75,295.26z"/>
		<path class="st0" d="M238.42,264.48c-0.01,4.92-7.73,9.52-9.83,8.84c-2.11-0.69,3.52-5.25,3.51-8.94c0.01-3.69-4.2-8.52-2.45-9.29
			C231.41,254.31,238.42,259.57,238.42,264.48z"/>
		<path class="st0" d="M252.83,255.79c1.75-0.78,8.77,4.48,8.77,9.39c-0.01,4.92-7.73,9.52-9.83,8.83c-2.1-0.69,3.52-5.24,3.52-8.94
			C255.29,261.39,251.07,256.57,252.83,255.79z"/>
		<path class="st0" d="M278.46,265.37c0-3.69-4.21-8.51-2.46-9.29c1.76-0.78,8.78,4.48,8.77,9.4c-0.01,4.92-7.73,9.52-9.84,8.83
			C272.84,273.61,278.46,269.06,278.46,265.37z"/>
		<path class="st0" d="M298.45,255.7c1.68-0.9,9.17,3.93,9.62,8.88c0.44,4.95-6.86,10.1-9.02,9.54c-2.17-0.56,3.03-5.52,2.69-9.23
			C301.42,261.18,296.77,256.6,298.45,255.7z"/>
	</g>
	<g>
		<path class="st2" d="M426.89,257.26l9.33-19.7l-12.37-14.87c1.71-0.31,3.4-0.63,5.05-0.93l9.43,11.34l6.8-14.35
			c1.99-0.37,3.8-0.71,5.43-1.01l-9.07,19.15l11.3,13.59l-4.78,1.26l-8.63-10.38l-6.84,14.43L426.89,257.26z"/>
	</g>
	<g>
		<path class="st2" d="M426.89,300.25l9.33,19.7l-12.37,14.87c1.71,0.31,3.4,0.63,5.05,0.93l9.43-11.34l6.8,14.35
			c1.99,0.37,3.8,0.71,5.43,1.01l-9.07-19.15l11.3-13.59l-4.78-1.26l-8.63,10.38l-6.84-14.43L426.89,300.25z"/>
	</g>
	<path class="st2" d="M82.65,359.58c-4.3,8.9-19.22,23.81-25.82,20.94c-5.44-2.37-3.44-11.19-1.43-18.07
		c-3.95,5.69-31.28,14.06-26.81,1.51c7.7-21.65,34.38-31.31,47.67-35.02c15.75-4.39,30.49-4.36,47.27-13.84
		c11.29-6.38,18.5-13.97,24-29.58c-0.02-0.07,0.06-0.14,0.06-0.14c1.52-3.52,8.56,19.4,5.36,24.14c0,0,6.31,3.44,5.88,12.62
		c-0.2,4.22-12.33-3.16-12.33-3.16c6.63,13.47,3,22.22,1.79,24.1c-1.62,2.52-9.68-12.48-9.68-12.48
		c-1.08,13.13,0.86,25.17-5.38,26.68c-3.76,0.91-2.8-8.82-7.24-16.64c-0.9,8.69-4.71,31.27-17.21,31.27
		c-6.88,0-2.01-16.35-3.16-19.5c-1.39,4.26-12.98,28.28-18.65,25.82C80.35,375.37,80.92,365.32,82.65,359.58z"/>
	<circle class="st0" cx="151.28" cy="290.59" r="10.54"/>
</g>
<g>
</g>
<g>
</g>
<g>
</g>
<g>
</g>
<g>
</g>
<g>
</g>
</svg>
