<?xml version="1.0" encoding="utf-8"?>
<!-- Generator: Adobe Illustrator 25.4.1, SVG Export Plug-In . SVG Version: 6.00 Build 0)  -->
<svg version="1.1" id="레이어_1" xmlns="http://www.w3.org/2000/svg" xmlns:xlink="http://www.w3.org/1999/xlink" x="0px"
	 y="0px" viewBox="0 0 512 512" style="enable-background:new 0 0 512 512;" xml:space="preserve">
<style type="text/css">
	.st0{fill:#D4BB88;}
	.st1{fill:#33260E;}
	.st2{fill:#914A31;}
</style>
<g>
	<path class="st0" d="M164.9,98.1c-14,19.1-17.2,31.2-15.5,39.6c-13.4,7.9-25.3,17.5-35.4,25.8c-0.3-12.8-7.5-22.7-21.3-29.5
		c-13.4-6.6-30.6-5-45.1,4c-14.7,9.1-23.4,24.2-23.4,40.4c0,6.3,1.3,12.6,3.9,18.8c5.6,13.2,16.3,25.1,30.6,33.9l18,18.6
		c-0.6,0.4-28.8,15-28.8,50.2c0,27.3,19.6,56.3,50.9,67.7c8.3,3.1,28.1,7,66.4,14v25.5c0,16.5,12.1,30,28.8,32
		c14.8,1.8,31.3-7.8,36.2-17.1c4.9-9.3,16.8,8.9,29.3,5.7c2.3-0.6,33.2-2.6,33.9-61.6l159.2,43c0,0,15.6,6,15-7.9
		c-0.5-11.1-0.9-26.3-1.1-28.8c19.9,1.5,26.8-0.5,33.6-6.5c5.5-4.8,8.6-11.7,8.7-18.9c0-0.7,1-16,1-23.2c0-16.2-3.9-25.9-9.1-31.7
		c4.9-4.1,8.1-10,8.1-18.6c0-0.7,1-16,1-23.2c0-34.4-17.6-39.5-28.1-39.5c-4.5,0-8.5,1-12.1,2.7c0,0,1.8-9.7-5.8-8.4
		c-7.6,1.3-122.3,26.4-122.3,26.4c19.3-11.6,35.1-27.7,35.1-53c0-16.2-8.8-31.3-23.4-40.4c-14.5-9-31.8-10.5-45.1-4
		c-14,6.9-21.2,17-21.3,30.1c-10.7-8.4-23.4-18.5-37.6-26.6c2.5-9-1.5-20.2-15.6-39.3c-12-16.4-26.6-25.2-34.2-25.2
		C191.4,72.8,176.9,81.7,164.9,98.1z M266.3,227.9l-21.5,21.5c0.1-0.4,5.3-34.8,5.4-35.2C250.6,214.5,265.9,227.6,266.3,227.9z
		 M166.8,232.5c-3.2-0.9-16-1.6-19.4-1.6c-1.1-1.2-2.2-2.4-3.5-3.4c4-3.4,19.1-17.3,22.9-20.5L166.8,232.5L166.8,232.5z"/>
	<path class="st1" d="M481.5,309.2c-5.4,0-11.9,19.6-11.9,19.6l-36.7-4.1c-2-5.3-4.5-9.5-7.5-11.5c-14.3-9.9-63.6-12.1-63.6-12.1
		s55.9-3.3,65.4-13.6c1.5-1.6,2.9-4,4.1-6.9c17.7-1.4,52.2-4.4,52.2-7.5c0-4.1,3.3-37.4-2.1-37.4c-5.4,0-11.9,19.6-11.9,19.6
		l-32.2,5.1c2.8-12.9,4.3-25.2,4.3-25.2l-148.9,32.2c0,0-9.9,0.2-23.6,0.3l52.4-54.4c16.5-7.8,24.5-18.3,27.7-26.1
		c9.3-22.2-17.5-37.3-30.4-30.9c-5.6,2.7-9.1,5.2-6.4,12.3c2.1,5.4,12-1.8,16.7,1c3.1,1.8,5.5,9.2,2.9,15.4
		c-2.9,6.9-15.2,14.4-29.8,17.1c-14.9,2.7-55.3-48.8-96-54.5c0-8.3,0-16.6,0-25c-1.4-2.9-4.5-4.5-7.6-4.2c-3,0.3-5.6,2.5-6.5,5.4
		c-0.1,7.9-0.2,15.9-0.3,23.8c-40.4,5.8-78.6,57.3-93.7,54.5c-14.6-2.7-26.9-10.2-29.8-17.1c-2.7-6.2-0.2-13.6,2.9-15.4
		c4.7-2.8,14.6,4.3,16.7-1c2.7-7.2-0.8-9.6-6.4-12.3c-13-6.4-39.8,8.7-30.4,30.9c2.9,7,9.7,16.3,23.2,23.7l35.5,36.8
		c3.2-2,6-4.5,8.7-7.2l-19.8-20.6c27.5,5.8,49.5-46.6,93.3-54.2v104.4c-3.9,3.2-8,10.5-9.7,18.9c-3.8-0.5-7.9-1.5-11.8-4.2
		c-3.6-2.5,2.8-28.1-13.7-28.8c-7.9-0.4-15.8-0.3-23.6,0.4c-1.2-4-3.3-8.6-6.6-10.8c-4.5,5.6-9.5,11.3-15.8,14.8
		c-9.3,2.7-17.4,6.8-23.1,12.7l-0.1,0c-15.4,3.3-16.7,26.7-13.1,39.6c5,16.3,17.8,25.8,32.9,31.2c8.5,3.2,49.1,10.5,82.8,16.6V407
		c0,10.4,17,8.8,19.2,0c0.9-3.6,4.6-21.5,8.6-41.3c8.8,1.7,15.4,3.1,18.3,4c29,8.4,17.8,31.3,18.8,31.5c15-8.5,20.1-48.6,0.2-61
		c20.9,0,38.6,0,38.6,0l147.8,39.9c0,0-0.6-18.4-3.8-36.1c18.5,2.4,45.7,5.4,45.7,2.7C483.6,342.5,486.8,309.2,481.5,309.2z
		 M139.6,311.5c-5.1,5.8-23.9,9.3-24.5,8.2c-0.8-1.3,3-14.9,7.5-22.6c0.8-1.3,6-3.6,8.9-3.4c1.7,0.1-1,4.5,4.3,6.9
		c3.1,1.5,7.6-4.6,9.4-2.8C145.1,297.8,148,301.8,139.6,311.5z M253.3,268c-9.9,0.1-20.3,0.3-29.7,0.4c3.6-24.8,10.7-62.1,12.6-76.7
		c0.3-2.5-1.8-5.8-4.9-6.1c-7.4-0.6-19.7-1.1-19.7-1.7c0-10,0-9.6,0-17.4c39.4,8.4,61.7,55.9,87.6,53.9L253.3,268z"/>
	<path class="st2" d="M191.9,125.3c0.7-0.5,6.6-4.7,7.4-4.6c0.5,0,5.8,3.8,6.3,4.2c0.2,0.1,15.6,11.2,18.2,8.9
		c3.6-3.1-20.6-35.8-24.7-35.8c-4.2,0-28.4,32.7-24.8,35.9C177,136.1,184.7,129.1,191.9,125.3z"/>
</g>
</svg>
