<?xml version="1.0" encoding="utf-8"?>
<!-- Generator: Adobe Illustrator 25.4.1, SVG Export Plug-In . SVG Version: 6.00 Build 0)  -->
<svg version="1.1" id="레이어_1" xmlns="http://www.w3.org/2000/svg" xmlns:xlink="http://www.w3.org/1999/xlink" x="0px"
	 y="0px" viewBox="0 0 512 512" style="enable-background:new 0 0 512 512;" xml:space="preserve">
<style type="text/css">
	.st0{fill:#D4BB88;}
	.st1{fill:#33260E;}
	.st2{fill:#959535;}
	.st3{fill:#AA5630;}
	.st4{fill:#D0B786;}
</style>
<g>
	<g>
		<path class="st0" d="M404.6,139.4c-32.4-1.2-51.5,7.7-62.9,15.9c-18.4,13.2-30.3,32-57.4,42.8c-9.6,3.8-19.9,6.2-19.9,6.2
			c-13,3-22.8,3.2-33,3.4c0,0,0,0,0,0s-24.6,0-37.1-7.1c-9.8-5.6-5.9-9.7-17.7-17.7c-5.2-3.5-12.9-8.8-23.1-9.2
			c-12.3-0.5-20.9,4.5-26.9,1.7c-5.1-2.4-4.6-5.1-10.2-7.1c-9.6-3.6-19.1,1.3-20.4,2c-2.2,1.2-8.9,4.7-11.6,11.9
			c-3.8,10.1,4.9,15.7,2,29.6c-0.4,2.2-2,5.8-5.1,12.9c-3.2,7.3-5.6,12.9-8.9,18.3c-1.3,2.1-2.7,4-5.5,7.8c-1.9,2.6-5.1,7-9.6,12.3
			c-4.9,5.9-5,5.5-6.2,7.5c-3,5.2-3.3,10.1-3.7,13.9c-0.8,8.1,1,14.4,1.5,16.2c1.4,4.5,4.8,12.9,12.8,19.5c1.8,1.5,3.4,2.7,5.9,3.9
			c7.8,3.5,12.6,0.3,20.6,1.5c9.6,1.5,9,7.3,16.1,8c13.3,1.3,20.2-18,31.7-17.1c3.5,0.3,8.2,2.8,13.3,13c2.5,3.7,7.6,10.2,16.3,14.6
			c1.8,0.9,7.5,3.5,18.1,4.3c14.6,1.1,26.2-2.1,29.8-3.2c33.8-9.8,41.7-15.1,54.4-17.5c37.9-7.1,71,8.4,79.9,12.9
			c5.6,2.9,20,13.7,48.2,36c20.2,15.9,33.1,27.3,51.3,26.5c2.2-0.1,15.4,3.2,21.9-6.8c3.5-5.4,36.5-76.4,36.5-76.4
			s18.4-39-14.3-53.2c-8.8-3.8-16.6-3.3-19.8-3.1c-19.4,1.8-31.2,17.4-33.4,20.4c-4.2-4.3-9-8.9-14.6-13.5
			c-6.8-5.6-13.4-10.2-19.4-14c-5.2-2.5-7.7-4.7-7.4-6.5c0.4-2.6,6.4-4.4,18.1-5.4c12.3-0.8,26.2-2.5,41.4-5.6
			c16.4-3.4,30.8-7.7,43-12.1c2.5-2.1,10.6-4.8,10.2-11.5c-0.5-8.7-1.6-96-30.5-116.4c-10.8-7.6-23.9-10.4-36.5-6.9
			C421.3,98.3,407.6,115.6,404.6,139.4z"/>
		<path class="st1" d="M451.9,122.7c-4.8,0.8-10.4,9.4-12.9,44.2c0,0-66.1,7.6-81,15.9c-7,3.9-37.2,19.8-58.1,33.3
			c-10.4,3.3-22.5,6.4-36.2,8.5c-23.2,3.5-43.6,2.9-59.4,1.2c-5.8-1.2-10.6-2.4-14.2-3.5c-5.2-1.4-6.1-1.9-7.1-2.7
			c-3.9-3.1-2.5-6.7-5.8-13.8c-3.1-6.9-7.8-11-10.6-13.4c-2.7-2.3-5.2-4.5-9.2-5.7c-3.1-0.9-5.7-0.8-9.4-0.5
			c-11.1,1-16.7,1.5-22.1,4.1c-3.1,1.5-12.4,5.9-12.3,11.8c0,1.9,1,4.4,3,5.5c0.2,0.1,0.4,0.2,0.6,0.3c-1.8,0.4-4,1.7-5,3.8
			c-1.2,2.5-0.5,5.2-0.1,6.5c0.4,1.3,0.9,2.4,1.6,3.4c0.7,1,1.3,1.6,1.5,1.8c2.6,2.6,8.1,10.2,20.1,24.6c5.6,6.8,8.7,10.3,8,11.1
			c-0.7,0.8-4.7-1.1-6.5-2.1c-1-0.6-2.2-1.2-4.3-2.3c-0.6-0.3-1.2-0.6-2.1-0.9c-3.8-1.3-5.6,0.5-7.1-1.1c-2.3-2.3-0.3-5.8-2.2-6.9
			c-1.1-0.7-3.4,0.5-7.9,2.6c-4.1,2-3.7,2.4-5.6,2.9c-3.2,0.8-5.1,0.1-6.6,1.6c-0.9,0.9-1,2.1-1.1,2.7c-0.5,5.8,2.8,45,3,47.7
			c4.3-0.3,10.6-1.1,17.9-3.5c10.6-3.7,13-9.3,20.7-9c6.6,0.3,11.8,4.4,13.4,5.7c0.5,0.4,0.8,0.7,1.3,1.1c2.9,2.8,4.7,5.5,5.5,6.9
			c0.1,0.1,0.3,0.5,0.3,0.5l-0.3-0.5c0.5,1.9,1.4,4.7,2.7,7.9c0.3,0.8,0.5,1.3,0.7,1.7c2,4.2,6.2,6.4,7.3,7
			c5.6,2.9,11.4,2.4,13.6,2.1c3.4-0.4,34.1-13.1,37.5-13.9c14.8-3.6,29.7-6.3,37.6-5.5c0,0-0.1,0-0.1,0.1c0,0-0.1,0-0.1,0.1
			c2.7-0.1,5.4-0.1,7.9,0.2c2.2,0.1,4,0.2,4,0.2c23.9,0.4,39.1-0.1,49.2-1.2c3.2-0.4,11.2-1.4,20.9,1c1.2,0.3,5.6,1.4,10.8,3.9
			c10.7,5.1,45.3,25.8,91.3,54.9c0,0,5.8,3.3,9.7-1.4c12.4-14.9,42.7-68.7,21.6-70.4c-21.3-1.6-31,25.3-31,25.3s-34.6-26-56.2-41
			c-5.1-2.7-11.8-6.4-19.6-10.8c-17.8-10.2-20-12.5-20-15.2c0-4.7,7.1-6.6,20.5-16.4c6.9-5.1,12.3-9.9,15.9-13.5
			c28.5-6.6,57-13.3,85.5-19.8c0,0,6.5-1.6,6-7.8C475.1,162.5,464.3,120.6,451.9,122.7z M158.7,233.4c-0.3,0.9-0.4,1.3-0.7,2.3
			c-0.3,1.3-0.3,1.9-0.6,2.2c-0.1,0.1-0.2,0.2-0.3,0.3c-1.2,0.6-6.6-5.5-7.8-6.9c-5.2-5.9-19.6-18.1-24-20.8
			c-1.9-1.1-3.5-1.9-4.7-2.4c0.2,0,0.5-0.1,0.9-0.1c0.5-0.1,1-0.1,1-0.1c23.6-3.6,24.5-3.9,24.5-3.9c0.5-0.1,1.3-0.3,2.2-0.2
			c2.7,0.3,4.7,2.7,6.3,4.4c0.6,0.6,1,1.2,1.1,1.3c0.4,0.5,1.7,2.4,2.5,5.4C161.2,222.3,159.3,231.5,158.7,233.4z"/>
		<path class="st1" d="M241.4,146.2"/>
		<path class="st1" d="M243.4,142.1"/>
		<path class="st1" d="M229.7,349.3"/>
	</g>
	<path class="st2" d="M257.8,305.1c0.5,0.2,1.6,0.2,8.1,0c6-0.2,8.8-0.2,9.4-0.4c3.1-10.4,6.2-24.4,6.9-41.2
		c0.6-15.9-1.1-29.5-3.2-39.8c-0.2-0.6-0.5-1.5-1.2-1.7c-0.5-0.2-0.8,0-1.8,0.2c-0.8,0.2-1.6,0.3-2.4,0.4c-1.4,0.3-3.3,0.6-7,1.1
		c-1.6,0.2-3.9,0.6-6.7,0.9c-0.4,0.7,0.2,1.6,0.3,1.9c2.9,5.5,2.6,30.8,2.6,35.9c0,19.2-2.5,36.2-4,39.1
		C258.5,302.8,258.1,303.9,257.8,305.1z"/>
	<path class="st3" d="M108.7,215.7"/>
	<path class="st1" d="M79.4,137.3"/>
	<path class="st1" d="M114.2,134.4"/>
	<g>
		<path class="st3" d="M114.9,317.2c-1.7,1.7-5.1,1.5-7.1-0.3c-2.6-2.3-1.1-6-3.6-8.7c-1.2-1.2-2.7-1.6-7.4-1.6
			c-7.2,0-9.6,0.9-12.1,0.8c-8.4-0.3-18.9-11.8-19.5-25.3c-0.1-1.8-0.3-12,5.9-18c6.7-6.6,15.2-2.6,17.8-8.4
			c2.4-5.2-3.2-11.3-0.1-16c1.5-2.2,4.4-3.2,6.7-2.7c4.2,1,6.5,7.7,9.4,15.6c0.7,2,1.3,3.8,1.7,5.5c2.1,7.1,3.2,12.7,3.9,17.1
			c1.8,9.8,3.2,17.7,4.8,29.7C116.2,314,116,316,114.9,317.2z"/>
		<path class="st4" d="M96,311.6C96,311.5,96,311.5,96,311.6c0.3,0.1,0.8,0,3.7-0.7c6.4-1.6,3.2-17.1,1.1-29.6
			c-1.2-6.4-2.7-12.4-6.1-18.8c-3.2-6-6.6-9.3-7.8-8.8c-0.6,0.3-1.3,1.7-1.9,3.2c0,0.1-0.1,0.2-0.1,0.4c0,0.5,0.4,1.1,0.5,1.3
			c2.2,3.4,5.9,20.5,6.7,23.9c2.9,13,4.4,24.5,4.1,26.6C95.9,309.9,96,310.7,96,311.6z"/>
	</g>
	<path class="st3" d="M94.5,256.9"/>
	<path class="st0" d="M293.2,423.3c-0.1-1.7-0.2-3.4-0.3-5.1"/>
	<path class="st0" d="M238.2,467.2"/>
	<path class="st1" d="M113.1,242.8l0.7-6.8c1.3-0.8,2.2-2,2.1-3.3l1.6-15.4l-0.1,0c0.8-1,1.3-2.1,1.2-3.3l2.4-23.1l-0.1,0l0,0
		c0.2-0.7,0.2-1.4,0.2-2.1c-0.2-5.4-6.4-9.5-13.8-9.3c-7.4,0.3-13.3,4.8-13.1,10.2c0,0.7,0.2,1.4,0.4,2l-0.1,0l4,22.9
		c0,1.2,0.6,2.3,1.5,3.2l-0.1,0l2.6,15.3c0,1.3,1,2.4,2.4,3.2l1.2,6.7c0,1.3,1.7,2.3,3.6,2.2C111.6,245.2,113.1,244.1,113.1,242.8z
		 M107.9,194.9c-4.6,0.2-8.1-1.5-9.9-3.3c-0.8-0.8-1.2-1.7-1.2-2.4c-0.1-2.4,4.1-6.2,10.7-6.4c6.5-0.2,11,3.3,11.1,5.7
		c0,0.7-0.4,1.6-1.1,2.5C115.8,192.9,112.4,194.8,107.9,194.9z"/>
	<path class="st1" d="M156.3,225.8"/>
	<path class="st1" d="M177.2,436.9"/>
</g>
<path class="st1" d="M311.3,297.3"/>
</svg>
