<?xml version="1.0" encoding="utf-8"?>
<!-- Generator: Adobe Illustrator 25.4.1, SVG Export Plug-In . SVG Version: 6.00 Build 0)  -->
<svg version="1.1" id="레이어_1" xmlns="http://www.w3.org/2000/svg" xmlns:xlink="http://www.w3.org/1999/xlink" x="0px"
	 y="0px" viewBox="0 0 512 512" style="enable-background:new 0 0 512 512;" xml:space="preserve">
<style type="text/css">
	.st0{fill:#D8BE8A;}
	.st1{fill:#33260F;}
	.st2{fill:#8E8C33;}
</style>
<g>
	<path class="st0" d="M455.9,34.9c-3-6.2-10.1-8.6-18.4-10.7c-25.9-6.5-45.7-5.6-71-6.6c-20.5-0.8-17.2-1.1-37.8-2.5
		c-22.9-1.6-41.6,0-54.9,2c-12.4,1.9-21.5,4.2-24.3,5c-18.4,4.9-32.2,11.4-42.1,16c-7,3.3-19.1,13.7-43.6,33.6
		c-14.9,12.1-16.8,14-19.2,16.7c-12.3,14.3-16.9,30.4-18.8,41.5c-17-3.2-29.8-5.8-39.2-7.6c-4.2-5.8-11.6-11.3-24.3-13.7
		C49.9,106.3,4,114.8,2.7,133c-0.9,13,33.7,37.9,47.5,40.5c12.8,2.4,21.6-0.2,27.7-4.1c7.4,1.4,18.8,3.6,33.6,6.4
		c-31.9,23.8-22.3,66.8-18.2,71.9c6.2,7.8,51.4,26.7,51.4,26.7c2.9,1.2,8.2,0.2,10.9,0.2c22.8,8.7,36.2,21.3,43,28.9
		c3.6,4,7,7.8,10.3,13.8c8.3,15.2,5.7,25.5,11.5,46.3c2.3,8.2,4.6,13.6,8.4,22.3c11.8,27.3,26.1,46.4,32.3,54.6
		c4.2,5.5,7.6,9.8,14.7,19c2.6,3.3,5.7,7.3,9.6,12.1c1,1.2,2.1,2.6,3.8,4.4c9.3,9.7,19.5,14,23.9,15.7c3.1,1.3,11.6,4.5,43.4,5.6
		c14.2,0.5,23.5,0.5,32.8-1.1c5.4-0.9,8.8-2,10.4-2.5c10.3-3.3,17.9-8.1,22.7-11.7c2.9-2.8,6.9-6.5,12.3-10.2c2-1.4,5.6-4,10-6.1
		c4.5-2.3,8-3.2,19.1-5.8c17.9-4.1,26-5.4,32.7-11.4c1.6-1.4,3-3,3.2-3.2c5.7-6.8,7.8-13.9,8.3-15.7c4.4-16.2-3.1-30.1-4.9-33.6
		c-3.4-6.4-5.8-10.8-11-13.8c-8.1-4.7-14.4-0.9-43.4,2c-10.3,1-15.7,1.2-22.2-0.5c-1.1-0.3-17.9-4.7-18.1-11.2
		c-0.3-8.3,26.5-15.8,32.7-17.4c33.3-8.6,49.7,0.4,58.8-11.4c2.9-3.7,9-14.6,8.2-27.2c-0.2-2.5-1.3-19.6-12.6-25.5
		c-1.4-0.7-2.6-1.1-3.8-1.3c-8-1.4-24.8-1-43.5-0.4c-11,0.4-15.4,1.5-23.6-0.3c-4.4-1-7.2-1.6-10.2-3.7c-7.2-5.2-10.2-15.2-9.3-23.6
		c0.3-2.6,1.8-12.5,9.9-17.9c4.4-3,9-3.5,17.4-3.4c25.7,0.4,31.2,6.4,44.6,3.3c3.4-0.8,14-3.2,20.7-12.3c8.5-11.5,7.9-29.8-0.5-40.4
		c-5.3-6.6-18.8-9.5-46-15.2c-9.2-2-15-3.2-23.5-4.2c-17.2-2-25.7-0.6-26.1-2.7c-0.7-3.1,16.8-10.4,32.3-14.3
		c14.2-3.6,21.4-4.1,28.3-5.5c20.4-4,22.6-5,24.5-7.1c7.5-8.2,3.6-29.5-5-40c-18.5-22.5-69.7-8.6-75-7.2
		c-24.2,6.6-33.1,16.7-57.5,15.9c-7.4-0.2-23.7-0.8-28.6-10.7c-4.6-9.4,3.6-21.3,4.1-22c5.8-8.1,16.5-12.7,42.9-16.3
		c48.3-6.7,70.1,11,83.2-2.5C456.5,52.7,459.2,42,455.9,34.9z"/>
	<path class="st1" d="M448.2,51.8c2.8-3.9,2.6-9.8,0.5-13.8c-4.2-8-80.2-11.6-110.3-11.2c-11,0.1-24.4-0.3-34,0.5
		c-2.7,0.2-7.7,0.7-12.7,1.1c-6.2,0.5-6.8,0.5-9.8,0.9c-36.4,4.8-62,18-62,18c-5.8,3-11.6,6.6-14.8,8.5c-8.8,5.3-9.1,6.1-17,11.1
		c-1.8,1.1-5.4,3.3-9.7,6.9c-0.2,0.2-0.4,0.3-0.7,0.6c-5,4.2-8.9,7.9-9.5,8.5c-1.4,1.4-3.9,4.3-10.4,19.6
		c-3.7,8.8-5.5,13.3-6.8,17.5c-1.8,5.7-3.9,14.6-3.5,25.5c0.2,6.4,0.7,22.8,11.1,37.5c7.9,11.1,22.8,16.8,52.6,28.3
		c10,3.8,13.5,4.6,15.6,2.8c6.3-5.3-4.6-28.9-15.7-49.4c-5.9-1.1-12.1-2.3-18.6-3.5c-5.2-5.1-18.6-3.5-18.6-3.5
		c-46.6-8.9-96-18.2-100.2-19c-0.6-5.5-4.3-9.9-14.9-11.9c-14-2.6-37,4.2-37.7,7.7c-0.7,3.6,18.5,18.2,32.4,20.8
		c10.7,2,15.8-0.9,18.2-5.9c4.8,1,62.6,11.6,112.8,21.1c2.7,0.6,27.2,6.4,34.8,27.5c2.2,6,2.4,11.6,2,16.1c-5.1-2-20.8-7.1-35.3,0.2
		c-2.4,1.2-4.6,2.7-6.4,4.2c-0.7,0.2-0.1-9.3-4.1-11.9c-8-5.1-40.2-15.1-46.7-16.9c-5.3-1.5-13.7,3.7-20.3,16.7
		c-4.6,9-4,22.9-1.3,26.4c5.6,7,35.7,18.6,46.6,23c3.7,1.5,9.4-3.4,12.5-4.8c-2.4,10.2,14.8,25.2,23.2,29.5
		c12.6,6.4,26.9,11.7,32.1,13c0.9,0.2,1.6,0.4,2.2,0.5c2.2,1.1,5.1,3.1,7.3,6.4c3.7,5.6,3.2,11.9,3,14.5
		c-1.1,14.7,0.6,34.9,3.1,47.1c3.3,16.2,4.9,24.3,8.1,31.3c0.8,1.7,0.8,2.7,1.2,3.7c3.4,9.5,7.8,15.5,12.9,22.6
		c12.6,17.6,11.4,16.3,12.4,17.6c8.5,11.3,32.5,32.8,33.8,34c3.4,3,9.3,6.6,20.2,9.4c10.9,2.8,18.9,3.7,29.4,4.1
		c0,0,18.7,0.7,47-4.9c11.8-2.3,18-4.9,20.1-7.5c1-1.3,0.9-2.2,0.9-2.4c0,0-0.2-1-1.5-1.9c-3.8-2.4-28.1,5.4-42.9,6.5
		c-1.4,0.1-7.7,0.5-15.3,0.9c-2.2,0.1-4.5,0.2-6.9,0.3c-4.3,0.2-12.5,0.5-19.8-1.9c-0.5-0.2-3.3-0.9-6-3.1c-1.4-1.1-3.2-2.6-3.4-4.7
		c0,0-0.2-1.9,1.5-4.1c7.7-9.6,46.5-5.4,46.5-5.4c7.7,0.8,68.2,6.5,110.4-13c5.2-2.4,12.7-6.6,16.1-14.7c4.5-10.8,0.6-26.1-9-33.4
		c-0.2-0.1-0.7-0.5-1.4-1c-14.2-9.1-31.4,3.7-57,3.2c-9.5-0.2-22.3-0.2-30.1-9.2c-6.7-7.6-6.6-18-6.1-23.2c3.8-4.1,10-9.7,18.7-14
		c5.2-2.6,11.8-4.4,31-6.8c30.2-3.8,40.5,0.3,49.4-8.5c5.5-5.5,6.6-12.3,6.8-13.5c0.1-0.6,1.7-12.1-5.4-19c-4.6-4.4-10.7-4.9-17.8-5
		c-17-0.4-63,0.7-69.2-0.6c-4.2-0.9-7.1-3.3-7.1-3.3c-0.2-0.2-0.4-0.3-0.6-0.6c-4.3-4.1-6-13-6-13c-3.2-17.2-3.5-23.5-3.7-25.9
		c-0.4-8.5,0-10.4,0.9-12.1c0.7-1.4,3.5-6.5,13.3-9.5c26-8.1,62.5,10.7,79.7-3.1c10.5-8.3,12.8-27.4,6.5-35.4
		c-4.9-6.2-11.7-3.7-48-11.2c-12.3-2.6-10.9-3-16.8-3.8c-19.9-2.8-31.2,1.9-36.7-5c-1.9-2.3-2.6-5.5-2-8.2c1.2-5.4,7.4-7.7,8.1-8
		c21.7-10.8,39.7-14.5,52.1-15.9c13.5-1.5,27.6-1.1,31.8-9.5c3-5.8,0.4-14.8-0.4-17.6c-1.4-5.1-3.8-8.9-5.5-11.2
		c-2.8-1-8.2-2.6-15.1-3.3c-18.4-2-30.5,3.9-67.4,15.4c-4.6,1.4-12.4,3.8-22.2,6.7c0.7-0.1,1-0.2,1-0.2s-9,2.5-16.2,3.2
		c-3,0.3-20,2.3-33.1-7.5c-10.3-7.8-18.8-23.6-15-36.2c6.6-22.7,51.5-32.9,83.7-31.5C419.8,52.6,441.2,61.7,448.2,51.8z
		 M123.1,204.7c-0.2-3.6,2.6-6.6,6.1-6.8c3.6-0.2,6.6,2.6,6.8,6.1s-2.6,6.6-6.1,6.8C126.3,211,123.3,208.2,123.1,204.7z M140.3,211
		c-0.2-3.6,2.6-6.6,6.1-6.8c3.6-0.2,6.6,2.6,6.8,6.1c0.2,3.6-2.6,6.6-6.1,6.8C143.5,217.3,140.4,214.5,140.3,211z M157.4,217.5
		c-0.2-3.6,2.6-6.6,6.1-6.8c3.6-0.2,6.6,2.6,6.8,6.1s-2.6,6.6-6.1,6.8C160.6,223.8,157.6,221.1,157.4,217.5z M239.8,92.1
		c-0.6,7.7-7.2,13.5-14.9,12.9c-7.7-0.5-13.5-7.2-12.9-14.9s7.2-13.5,14.9-12.9C234.5,77.7,240.3,84.4,239.8,92.1z"/>
</g>
<path class="st0" d="M255.9,247.3"/>
<path class="st1" d="M255.9,247.3"/>
<path class="st1" d="M255.9,247.3"/>
<path class="st1" d="M255.9,247.3"/>
<path class="st0" d="M255.9,247.3"/>
<path class="st0" d="M255.9,247.3"/>
<path class="st0" d="M255.9,247.3"/>
<path class="st1" d="M255.9,247.3"/>
<path class="st0" d="M255.9,247.3"/>
<path class="st1" d="M255.9,247.3"/>
<path class="st1" d="M255.9,247.3"/>
<path class="st1" d="M255.9,247.3"/>
<g>
	<path class="st2" d="M284,166.3L284,166.3c0.2-0.1,12.3-9.4,24.3-19.3c0,0,7.4-4.7,24.1-22.7c0.1-0.1,0.4-0.5,0.3-0.8
		c0-0.2-2.7-1.2-2.9-1.3c-0.8-0.3-1.4-0.7-2.6-1.4c-0.3-0.2-1.6-1-3.3-2.3c-1.8-1.4-1.7-1.6-2.3-1.8c-2.1-0.8-4.7,1.3-5.5,1.9
		c-12.9,9.8-118.6,83.2-113.5,89.5c0,0.1,0.7,0.3,2.1,0.8c5.4,2,6.8,2.2,8.8,3.2c0.2,0.1,3.6,1.5,4,1.6c0,0,1.7,0.5,3.9-0.8
		C227.8,209.1,278.5,170.5,284,166.3z"/>
</g>
<path class="st1" d="M302.1,465.7"/>
<path class="st1" d="M329.2,483.5"/>
</svg>
