<?xml version="1.0" encoding="utf-8"?>
<!-- Generator: Adobe Illustrator 25.4.1, SVG Export Plug-In . SVG Version: 6.00 Build 0)  -->
<svg version="1.1" id="레이어_1" xmlns="http://www.w3.org/2000/svg" xmlns:xlink="http://www.w3.org/1999/xlink" x="0px"
	 y="0px" viewBox="0 0 512 512" style="enable-background:new 0 0 512 512;" xml:space="preserve">
<style type="text/css">
	.st0{fill:#D4BB88;}
	.st1{fill:#33260E;}
	.st2{fill:#898634;}
	.st3{fill:#956432;}
</style>
<g>
	<path class="st0" d="M11.7,139.1c-12.8,12.5-8.9,32.4-8.6,33.9c4.3,20.2,23.2,29.3,26,30.6c5.8,2.8,14.9,3.7,33.1,5.6
		c13.1,1.4,19.6,2.2,28.6,1.9c8.6-0.3,17.5-0.6,26,0.4c6.3,0.7,14.9,2.4,17.7,8.9c2.6,5.7-1.1,11.8-3.5,16.9c-1.5,3.1-2.9,5.7-4.1,8
		c-3.2,5.7-5.9,9.7-6.3,10.2c-3.3,4.9-17.6,43,0.7,61.4c3.8,3.9,9,6.7,12,8.4c7.2,4,9.4,3.6,17.4,7.4c8.6,4.1,13.6,6.5,17.6,11.7
		c6,7.9,2.5,12.9,7.9,17.9c6.1,5.7,17.5,5.3,25.5,1.3c12.7-6.3,14.2-22.3,14.3-23.5c5.6,4,11.3,9.4,18.8,11.9
		c8.3,2.7,57.5,20.9,60.5,21.2l57.2,8.6c15.5,2.1,30.7-8.6,34.7-23.9c27.1,3.3,47.4,1.2,54.3-16.7c6.2,16.3,17.3,25.7,32,25.9
		c8.8,0.1,17-3.2,23.4-9.5c9.3-9.2,13.6-23.5,13.6-45.2c0-14.3-2.4-31.4-2.4-31.4s2.4-17.1,2.4-31.4c0-21.7-4.4-36.1-13.6-45.2
		c-6.3-6.2-14.6-9.6-23.4-9.5c-4.8,0.1-9.5,1.3-13.6,3.4l-136.6-18.7c-4.6-7.9-12.3-13.6-21.6-15.2l-60.7-9.7
		c-8.1-1.4-22.8,3.3-28.7,9.7l-23.8-3.3c0,0-23.7-1.1-37-2.3c-18.7-1.9-23-4.9-36.8-8.7c-8.8-2.5-14.1-3.3-20-4.6
		c-34.4-7.1-41.7-18.4-62-15.6C27.5,130.9,18.7,132.2,11.7,139.1z"/>
	<path class="st1" d="M30.8,141.2c-0.7,0.4-1.1,1.3-1,2.2c0.1,1.7,2,2.6,6.6,5.3c5.1,3,11.5,5.7,16.1,8.1c1.1,0.6,2.5,1.4,3.7,3
		c0.9,1.3,1.3,2.7,1.5,3.6c-0.6,0.1-1.4,0.2-2.4,0.1c-2.5-0.2-4.4-1.2-9.4-4.7c-2.2-1.5-0.8-0.3-5.9-3.6c-8.1-5.1-10.9-7.4-12.6-6.3
		c-0.6,0.4-1,1.1-1,1.8c0,1.2,1.2,2,3.8,3.7c1.6,1,3.6,2.2,6,3.5c2.8,1.9,5.3,3.3,7,4.3c3.1,1.7,5.8,4,9,5.4c0.6,0.3,1.9,0.8,2.3,2
		c0.3,1-0.1,2.4-1,2.9c-1.3,0.7-17.8-8.9-17.8-8.9c-0.4-0.2-3.7-2-13-6.9c-0.2,0-1.1,0-1.7,0.7c-0.5,0.5-0.7,1.2-0.6,1.8
		c0.5,2.5,22.2,14,26.1,15.3c1.7,0.6,4.4,1.3,4.7,3c0.2,0.9-0.3,2-1,2.3c-1,0.4-29.1-15.1-31.1-14.1c-0.3,0.1-1.7,0.8-1.8,1.9
		c-0.3,2.7,30.7,15.4,30.9,16.4c0.1,0.7-0.6,1.5-1.4,1.9c-1.6,0.8-3.6-0.2-4.5-0.6c-10.2-4.9-13.1-6.4-13.5-6.6
		c-5-2.9-5.8-2.8-8.7-4.6c-2.7-1.7-3.8-3-4.9-2.5c-0.6,0.2-1,0.9-1.1,1.5c-0.9,4.6,15.3,11.8,18.7,13.2c0.2,0.1,0.4,0.2,0.5,0.2l0,0
		c4.5,2.1,6.8,3.1,7.5,3.4c3.2,1.4,6.4,2.8,9.9,4.3c13.8,5.8,16.6,6.4,18,5.9c0.2-0.1,0.5-0.2,0.5-0.2c1.8-1.2,2.7-2.8,3.4-4.4
		c2.7-5.7,2.3-4.8,2.8-5.9c1.2-2.9,1.8-4.6,2-4.9c4.7-10.9,142,19.7,142,19.7c0,0,0,0,0,0c0,0,0.4,0,0.8,0.2
		c0.5,0.2,2.1,3.9,2.1,3.9c1.1,2.6,4.5,3.6,8.9,4.9c1.6,0.5,3.3,0.9,5.7,0.9c4.6,0,8.6-1.7,11.7-4.6c0.9-0.7,1.9-1.1,3-1l6.9,1
		c3.2,0.4,4.4,4.5,1.8,6.5l-20,16.5c-0.1,0.1-0.1,0.1-0.2,0.2c-0.7,0.5-5.9,4.3-6.4,10.6c-0.2,2.8,0,4.7-0.2,7.4
		c0,0.4-0.2,1.7-0.8,4.1c-1.2,5.6-1.9,8.4-4,10.6c-0.7,0.8-2.5,2.6-4.3,2.3c-1.6-0.4-1.4-2.3-3.7-4.3c-2.2-2-3.3-1.1-5.7-3
		c-2.8-2.3-2.2-4.3-3.9-5c-2.7-1.1-5.5,3-11.4,5.6c-3.9,1.7-7.5,2.1-10.2,2c1,4.7,2.6,12,3.6,16.7c2.1,9.6,4.2,19.2,6.2,28.9
		c3.4-0.4,8.3-1.3,13.7-3.7c8.8-3.9,12.6-9.2,16-7.7c1.6,0.7,3.3,2.9,3.4,10.1l1.2,12.8c0,0.3,0.1,0.6,0.2,1
		c0.5,1.4,2.4,5.3,8.4,7.7c14.4,5.9,51.8,21.8,55,22.1c3.3,0.3,58.3,6.7,58.3,6.7c3.8,0.5,7.5-3.4,8-6.9s-2-8.1-5.9-8.6
		c0,0-54.7-7.8-56.6-8.6c-0.2-0.1-0.4-0.2-0.7-0.3c-3.6-1.6-2.4-7,1.5-7H331c16.5,0,81.7,13.5,87,7c1.2-1.5,1.8-7.2,2.1-15.4
		c0.1-2,1.8-3.6,3.7-3.5c13.4,0.4,27.4,0.7,33.4,0.9c1.8,0,3.3,1.4,3.5,3.2c1,7.1,4,24.1,12.8,24.3c15,0.2,12.3-35.6,11.2-49.4
		c-0.4-5.3-6.6-5.5-6.6-5.5l-54.6-1.4c-1.9,0-3.5-1.6-3.6-3.6v-3.2c0-1.9,1.6-3.5,3.6-3.6l54.2-1.6c0,0,6.5,0.4,7.1-5.5
		c1.4-13.8,3.7-49.5-11.2-49.3c-2.2,0-4.2,1.3-5.7,3.1c-0.9,1-2,1.5-3.3,1.3l-158.3-21.8c-2.1-0.3-3.5-2.3-3.1-4.5
		c0.6-3.5-1.7-8.3-5.5-8.9l-60.7-9.7h-0.6c-2.6,0-5,0.6-7.2,1.7c-1.3,0.6-2.5,1.6-7.8,7.3c-1.5,1.7-2.8,3.1-3.7,4.1
		c-22-3.6-45.9-7.5-67.9-11.2c-22.5-3.7-46.5-7.7-68.9-11.4c-0.1-3,0.3-5.8,1.1-8.4c0,0,0,0,0,0c0,0,0,0,0,0c-0.1-2-9.4-4.4-9.4-4.4
		c-4.6-1.2-9-2.9-13.6-4.1c-4.7-1.3-11.3-3.8-19-8.7c-2.1-1-4-1.7-5.5-2.3C32.6,141.1,31.6,140.7,30.8,141.2z M423.9,232.4l34.4,4.7
		c2,0.3,3.4,2.1,3.1,4.3c-0.1,1-0.2,1.8-0.3,2.6c-0.2,1.8-1.7,3.2-3.5,3.2c-6.2,0.2-20,0.5-33.5,0.9c-2,0-3.7-1.5-3.7-3.5
		c-0.1-3-0.3-5.7-0.5-8C419.5,234.1,421.5,232.1,423.9,232.4z M293.2,214.5l73.1,10c4.3,0.5,4.3,6.7,0,7.3
		c-14.9,2.1-28.7,4.2-35.2,4.2h-49.9c-3.1,0-4.8-3.6-2.9-6l11.5-14.3C290.7,214.9,292,214.3,293.2,214.5z"/>
	<path class="st1" d="M60.5,166.4C60.5,166.4,60.4,166.4,60.5,166.4C60.4,166.4,60.5,166.4,60.5,166.4L60.5,166.4z"/>
	<g>
		<path class="st2" d="M382.4,289.7c2.9,2.1,17.9,2.7,20.9,0.7c3-1.9,4-14.6,0.6-18.2c-3.3-3.6-13.3-2.2-19.1-1.3
			C379.7,271.8,379.6,287.6,382.4,289.7z"/>
		<path class="st2" d="M296.8,273.6c-2.9-3.2-11.2-1.6-16.1-0.5c-4.4,1,13.6,19.3,16.1,17.5C299.1,288.5,299.6,276.8,296.8,273.6z"
			/>
		<path class="st2" d="M331.4,246.5c-3-2.9-11.2-1.4-16.1-0.5c-4.4,0.9-3.9,13.5-1.5,15.2c2.4,1.6,15.1,1.6,17.6,0
			C333.8,259.6,334.2,249.2,331.4,246.5z"/>
		<path class="st2" d="M330.6,272.7c-3-3.2-11.2-1.6-16.1-0.5c-4.4,1-3.9,15.5-1.5,17.5c2.4,1.9,15.1,1.9,17.6,0
			C333.1,287.7,333.6,275.8,330.6,272.7z"/>
		<path class="st2" d="M263.9,248c-2.8-2.8-10.5-1.4-15.1-0.4c-4.2,0.9-3.7,13.3-1.4,14.9c2.3,1.6,14.3,1.6,16.5,0
			C266.2,260.8,266.6,250.7,263.9,248z"/>
		<path class="st2" d="M384.3,240.5c-5.1,1.3-3.8,17-0.9,18.8c3,1.9,18,1.2,20.9-1c2.8-2.1,2.8-14.9-0.9-18.2
			C399.8,236.9,390,239,384.3,240.5z"/>
		<path class="st2" d="M383.8,323.6c-5.1-1.3-3.8-17-0.9-18.8c3-1.9,18-1.2,20.9,1c2.8,2.1,2.8,14.9-0.9,18.2
			C399.4,327.3,389.6,325.1,383.8,323.6z"/>
		<path class="st2" d="M367,272.8c-3.5-3.2-13.3-1.6-19.1-0.5c-5.1,1-4.6,15.4-1.7,17.3s18,1.8,20.9,0
			C369.9,287.7,370.4,276,367,272.8z"/>
		<path class="st2" d="M366.2,244.3c-3.5-3-13.3-1.5-19.1-0.5c-5.1,0.9-4.6,14.1-1.7,15.9c2.9,1.7,17.9,1.7,20.9,0
			C369,258,369.6,247.2,366.2,244.3z"/>
		<path class="st2" d="M279.6,263.2c2.3,1.6,14.3,1.6,16.6,0c2.3-1.6,2.8-11.8,0-14.6s-10.6-1.4-15.2-0.4
			C276.9,248.9,277.3,261.6,279.6,263.2z"/>
	</g>
	<path class="st3" d="M203.2,327c0,0,0,0,0-0.1c0,0-12.8-59.6-19.1-88c-0.2-0.4-0.5-0.9-0.9-1.5c-8.1-13.4-12.2-20-14.2-19.7
		c-4.8,0.8,5.4,32.7-8.2,47c-8.2,8.7-18.8,4.1-26.3,16c-1.1,1.8-5.5,8.8-3.5,17c1.9,8.3,9.1,12.6,11.1,13.8
		c9.7,5.4,15.3-0.9,24.7,1.1c19.9,4.2,28.3,40.1,33.6,38.1C200.4,350.7,204.4,348.7,203.2,327z"/>
</g>
<path class="st1" d="M-28.1,140.9"/>
<path class="st1" d="M-28.1,140.9"/>
<path class="st1" d="M-28.1,140.9"/>
<path class="st1" d="M-4.9,366.9"/>
</svg>
