<?xml version="1.0" encoding="utf-8"?>
<!-- Generator: Adobe Illustrator 25.4.1, SVG Export Plug-In . SVG Version: 6.00 Build 0)  -->
<svg version="1.1" id="레이어_1" xmlns="http://www.w3.org/2000/svg" xmlns:xlink="http://www.w3.org/1999/xlink" x="0px"
	 y="0px" viewBox="0 0 512 512" style="enable-background:new 0 0 512 512;" xml:space="preserve">
<style type="text/css">
	.st0{fill:#D4BB88;}
	.st1{fill:#33260E;}
	.st2{fill:#AA5630;}
</style>
<g>
	<path class="st0" d="M510.78,323.12c0-35.72-23.01-43.86-30.07-45.5c-9.59-2.23-30.91,4.2-40.09,18.95l-20.62-11.89l-0.35-3.44
		l62.62-15.78c13.78-3.01,28.51-17.74,27.05-37.17c-3.14-41.97-10.47-64.59-25.89-75.52c-8.96-6.35-19.72-8.21-30.3-5.25
		c-18.06,5.08-29.69,19.77-32.18,40.02c-21.31,4.77-47.21,10.02-56.65,17.01c-10.79-8.57-23.05-14.98-36.16-18.97
		c0.03-22.12-15.02-41.05-35.29-44.84c-5.92-5.64-13.63-9.29-22.16-10.14c-3.21-5.68-7.26-10.43-12.07-14.05
		c-9.06-6.78-20.95-7.54-31.86-2.08c-8.13,4.07-14.2,10.52-17.3,17.98L91.1,115.48c-44.55-6.12-87.68,13.6-89.79,26.67
		c-2.11,13.07,29.5,43.28,78.59,51.08l118.32,17.11c0.72,6.92,3.69,12.95,7.45,17.71c-1.51,2.16-2.93,4.37-4.28,6.63
		c-1.83-0.39-10.41-1.43-14.9-1.26c-5.19-9.84-15.29-16.54-27.14-16.82c-31.84-0.76-98.36,16.68-102.79,75.36
		c-3.86,51.21,81.14,73.76,98.09,76.91c4.04,0.75,15.91,0.65,24.64-8c12.03,7.22,27.82,10.33,43.09,11.87
		c20.15,18.15,46.41,28.38,73.67,28.38c29.31,0,56.79-11.43,77.31-31.76c7.29,0.43,14.2,1.28,17.38,1.8
		c7.11,2.72,58.2,24,64.89,26.68c9.4,3.77,36.47,8.21,44.34-21.63L510.78,323.12z"/>
	<path class="st1" d="M465.87,372.3c6.8,2.72,8.62-3.95,8.62-3.95l8.25-32.54c0,0,6.06-29.41-7.42-32.55
		c-14.71-3.43-22.25,30.98-22.25,30.98l-52.77-28.96l-6.06-1.96l-3.54-34.57l10.26-11.19l75.21-18.96c0,0,6.17-0.97,5.68-8.52
		c-1.13-17.38-4.95-60.61-21.28-56.04c-19.2,5.4-10.71,36.77-10.71,36.77s-54.67,7.86-67.02,14.78c-3.64,2.05-12.12,7.4-22.25,13.91
		c-15.14-18.95-38.4-31.12-64.54-31.12c-8.83,0-17.32,1.42-25.31,3.99c1.09-7.39,2.45-15.4,3.63-22.66l2.81,0.43
		c0.78,4.85,2.9,8.37,5.5,8.74c8.6,1.24,16.58-4.74,17.82-13.33c1.24-8.6-4.74-16.58-13.33-17.82c-2.65-0.39-5.73,2.5-7.85,7.07
		l-2.66-0.41c0.35-2.89,0.55-5.23,0.5-6.7c-1.64-14.42-21.64-11.8-21.77,1.36c0,0-0.14,0.78-0.37,2.08l-3.33-0.5
		c0.66-14.72-3.11-27.13-9.61-32.03c-1.51-1.13-9,3.47-7.1,6.46c2.93,4.64,4.7,11.61,4.97,19.64L89.13,142.96
		c0,0-55.08-3.96-56.2,3.82c-1.13,7.79,52.83,19.54,52.83,19.54l150.82,21.74c-2.52,7.63-6.18,13.82-10.31,17.44
		c-2.67,2.34,3.22,8.87,4.99,8.21c7.57-2.84,14.66-13.58,18.2-27.77l2.84,0.43c-2.15,12.19-4.92,28.21-6.63,39.24
		c-13.7,10.58-23.99,25.31-28.93,42.37c-3.55,1.26-7.18,3.11-10.69,5.8c-2.61,2,6.15-10.33-13.68-12.69
		c-2.36-0.28-11.81-0.67-18.29,3.35c-6.47,4.03,0.43,22.08-26.9,19.82c-17.03-1.41-23.41-16.13-12.44-24.25
		c8.83-6.55,14.92-6.39,24.09-6.64c5.04-0.13,5.29-9.1-0.16-9.23c-49.55-1.19-74.59,31.12-74.59,47.84
		c0,17.24,10.82,36.89,74.75,49.67c2.93,0.32,5.08-10.65,5.08-10.65c7.37,0.98,20.87-6.78,23.44-0.17
		c4.33,11.14,31.99,14.34,47.28,15.31c15.12,16.83,36.99,27.48,61.4,27.48c26.5,0,50.04-12.54,65.16-31.94
		c15.14-0.54,34.24,2.15,37.14,2.96C409.15,348.55,449.42,365.7,465.87,372.3z M296.04,306.72c-8.69,0-15.74-7.05-15.74-15.74
		c0-8.69,7.05-15.74,15.74-15.74s15.74,7.05,15.74,15.74S304.73,306.72,296.04,306.72z"/>
	<g>
		<path class="st2" d="M280.3,290.98c0,2.26,0.49,4.39,1.35,6.33l-50.79,8.46c-1.08-4.77-1.7-9.71-1.7-14.8
			c0-5.09,0.62-10.03,1.7-14.79l50.79,8.46C280.8,286.6,280.3,288.73,280.3,290.98z"/>
		<path class="st2" d="M296.04,275.25c-2.26,0-4.39,0.5-6.33,1.35l-8.46-50.79c4.77-1.08,9.71-1.7,14.79-1.7
			c5.09,0,10.03,0.62,14.79,1.7l-8.46,50.79C300.44,275.74,298.3,275.25,296.04,275.25z"/>
		<path class="st2" d="M281.25,356.16l8.46-50.78c1.95,0.85,4.07,1.34,6.33,1.34c2.26,0,4.39-0.49,6.33-1.34l8.46,50.78
			c-4.77,1.08-9.71,1.7-14.79,1.7C290.95,357.86,286.02,357.24,281.25,356.16z"/>
		<path class="st2" d="M311.78,290.98c0-2.25-0.49-4.39-1.35-6.33l50.79-8.46c1.08,4.77,1.7,9.71,1.7,14.79
			c0,5.1-0.62,10.03-1.7,14.8l-50.79-8.46C311.29,295.38,311.78,293.24,311.78,290.98z"/>
	</g>
</g>
<g>
</g>
<g>
</g>
<g>
</g>
<g>
</g>
<g>
</g>
<g>
</g>
</svg>
