<?xml version="1.0" encoding="utf-8"?>
<!-- Generator: Adobe Illustrator 25.4.1, SVG Export Plug-In . SVG Version: 6.00 Build 0)  -->
<svg version="1.1" id="레이어_1" xmlns="http://www.w3.org/2000/svg" xmlns:xlink="http://www.w3.org/1999/xlink" x="0px"
	 y="0px" viewBox="0 0 512 512" style="enable-background:new 0 0 512 512;" xml:space="preserve">
<style type="text/css">
	.st0{fill:#D4BB88;}
	.st1{fill:#33260E;}
</style>
<g>
	<path class="st0" d="M494.74,60.38c12.49,0.9,16.09,90.2,13.83,94.78c-2.26,4.57-33.3,41.55-39.7,49.05
		c-6.39,7.5-14.71,0.95-18.28,7.2c-3.57,6.25,14.27,207.84,4.46,216.76c-4.97,4.52-69.4,11.33-130.46,11.53
		c-59.5,0.2-147.84-6.17-147.84-6.17s-33.01,19.63-65.11,19.63c-30.33,0-68.68-13.38-76.71-26.76s4.1-102.55,0.27-109.7
		c-3.84-7.15-18.11-7.16-27.04-18.75c-8.91-11.59-5.36-94.56,0.89-107.03c6.25-12.48,91.88-92.77,100.79-93.65
		c8.93-0.89,24.97,26.76,30.33,21.4c5.36-5.36-0.89-48.15,8.02-55.3c2.33-1.87,22.18-3.02,56.39-3.7
		c3.74-0.08,8.02,13.64,16.06,13.64c8.02,0,11.55-13.93,14.27-13.97c13.25-0.18,20.84-0.3,35.67-0.38
		c7.17-0.04,12.92,14.35,21.85,14.35S304,58.85,309.83,58.85c10.1-0.01,24.28,0,34.35,0.03c5.08,0.01,6.69,13.98,15.16,13.98
		s10.77-13.9,16.05-13.88c14.82,0.08,25.09,0.16,38.37,0.27c5.55,0.04,5.84,11.83,16.07,11.83c10.23,0,12.35-11.6,16.48-11.56
		C475.38,59.83,491.83,60.17,494.74,60.38z"/>
	<path class="st1" d="M426.06,185.99c2.34-2.68,5.15-2.38,14.49-2.06c9.38,0.31,39.12-37.97,41.7-40.6
		c5.15-5.25,0.44-50.34-3.57-53.68c-4.01-3.35-36.76-3.28-40.27,1.03c-3.53,4.33,5.53,19.97,0,22.52
		c-5.53,2.54-19.22,4.52-21.74-0.16c-2.52-4.67,3.19-22.06,0-23.4c-3.19-1.33-44.91-3.35-48.14,0c-3.21,3.35,2.55,20.71,0,23.06
		c-2.55,2.35-16.7,5.41-19.67-0.13c-2.95-5.54,2.29-20.25,0-22.93c-2.29-2.68-44.48-4.01-48.14,0c-3.66,4.01,2.33,19.13,0,22.61
		s-17.01,3.58-20.71-0.16c-3.69-3.72,3.02-19.78,0-22.46c-3.02-2.68-45.75-3.35-48.14,0c-2.38,3.35,3.06,19.5,0,22.12
		c-3.06,2.63-18.01,5.11-21.23-0.14c-3.23-5.25,3.89-17.25,0-20.95c-3.89-3.71-37.48-4.99-42.16,0c-2.65,2.84-3.42,30.24-3.42,55.61
		c0,8.02,35.43,35.79,37.1,36.8c3.87,2.33,14.27-2.25,17.39,2c3.12,4.25,0.67,107.43,0,116.8c-0.61,8.51-52.41,20.49-54.86,15.62
		c-1.79-3.57-2.81-15,0-18.29c2.81-3.29,23.18-7.34,25.64-10.78c2.47-3.42-1.08-79.99-1.82-83.53c-0.73-3.53-71.4-69.71-75.33-69.31
		c-6.69,0.67-74.93,65.53-77.39,70c-2.46,4.48-2.95,84.13,0.13,86.45c3.1,2.33,21.95,3.8,24.4,7.24
		c2.44,3.44-3.97,102.03-1.35,106.58c2.63,4.55,24.75,20.22,55.3,19.2c30.54-1.03,45.12-15.39,53.52-19.52
		c4.44-2.18,64.45,8.08,153.42,6.06c55.18-1.24,103.51-4.02,107.49-10.7C431.21,396.77,421.38,191.35,426.06,185.99z M128.14,297.05
		c-1.89,2.34-28.21,2.34-30.77,0s0-33.78,0-33.78c0-10.17,6.89-18.4,15.39-18.4s15.39,8.23,15.39,18.4
		C128.14,263.26,130.02,294.7,128.14,297.05z M361.61,379.12c-3.62,3.11-73.05,4.02-75.58,0.01c-2.54-4.01-1.93-66.38,0-73.11
		c1.93-6.73,16.57-23.85,37.27-24.83c21.74-1.05,38.37,18.19,38.31,24.83C361.69,295.9,365.09,376.12,361.61,379.12z"/>
</g>
<g>
</g>
<g>
</g>
<g>
</g>
<g>
</g>
<g>
</g>
<g>
</g>
</svg>
