<?xml version="1.0" encoding="utf-8"?>
<!-- Generator: Adobe Illustrator 25.4.1, SVG Export Plug-In . SVG Version: 6.00 Build 0)  -->
<svg version="1.1" id="레이어_1" xmlns="http://www.w3.org/2000/svg" xmlns:xlink="http://www.w3.org/1999/xlink" x="0px"
	 y="0px" viewBox="0 0 512 512" style="enable-background:new 0 0 512 512;" xml:space="preserve">
<style type="text/css">
	.st0{fill:#D4BB88;}
	.st1{fill:#33260E;}
	.st2{fill:#AA5630;}
	.st3{fill:#959535;}
</style>
<g>
	<path class="st0" d="M271.9,446.8c14.6-2.7,29.3-12.2,35.4-26.4c0.9-0.7,1.8-1.4,2.6-2.2c-0.7-21.1-3.9-43.8-19.8-57.9
		c-4.8-4.3-4-9.9-0.7-13.7c-1-3-2.1-5.9-3.1-8.6c4.8,0,9.6,0,14.7,0c14.6,0,64.8,13.3,64.8,13.3c6.2,1.4,14.1,10.4,25-0.1
		c2,1.6,38.2,19.6,57.5,33c7.4,5.1,16.9-0.1,21.1-6.5c3.4-5.2,35.2-73.6,35.2-73.6s17.7-37.5-13.7-51.3
		c-12.6-5.5-31.9-5.3-47.8,13.2l-21.5-19.4l-0.7-14.1l77.6-18c0,0,10.2-2.8,9.8-11.1c-0.4-8.3-1.6-92.5-29.4-112.1
		c-10.4-7.3-23-10-35.2-6.6c-20.5,5.8-33.7,22.4-36.6,45.4c-24.6,3.7-49,8.8-60.6,15.3c-1.1,0.6-30.9,16.8-47.4,26.7
		c-0.2,0.5-0.5,1-0.8,1.5c-2.4,4-6.7,6.5-11.4,6.6c-2.5,0.1-5.2-0.7-7.4-1.9c-0.5-0.3-1-0.6-1.4-0.9c-0.1-0.1-0.1-0.1-0.2-0.1
		c-4.7-1-8.7-5.5-8.5-10.4c0.1-2.5,1-4.8,2.5-6.6c0.2-0.5,0.4-1.2,0.7-2.1c5.2-15.3,8.7-27.7,10.5-34.5c1.1-4.2,2.6-9.6,4.1-16
		c0.4-3.7,0.3-9.2-2-15c-3-7.3-8.1-11.4-11.9-14.4c-4.9-3.9-9.6-6.1-12.9-7.4c-2.9-2-7.9-4.9-14.8-6.2c-11.6-2.1-20.9,1.9-24.2,3.5
		c-13.4,12.3-21.1,24.1-25.4,32c-12.9,23.7-11.1,39.9-25.8,52.7c-9.3,8.1-20.4,10.5-27.3,11.4c-1.3,1.2-3.2,2.9-5.9,4.3
		c-0.6,0.3-2.5,1.3-6.2,2.4c-2.6,0.8-6.4,1.7-11.1,2.2c-10.9-2.9-27.9-5.9-48.3-3.8c-14,1.5-25.5,5-34.1,8.3
		c-3.7,1.4-7.5,3.4-11.3,6.6c-2.9,2.4-4.8,4.9-6.1,6.6c-1.4,2.1-3.3,5.1-5.2,8.9c-0.6,1.3-1.6,3.5-4.9,12.2
		c-4.7,12.8-5.6,17.4-5.9,19.1c-0.1,0.5-0.4,2.5-0.8,5.6c-0.7,5.7-1.3,14.9-0.1,25.2c1,8.6,3.8,23,13,39.1
		c7.1,9,20.7,23.4,42.3,32.7c43.8,18.9,85.1,1.4,93-2.2c5.7,6.7,11.5,13.9,17.3,21.6c5.4,7.2,10.5,14.2,15.1,21.1
		c1.8,1.8,16.7,16.5,25.8,28.7c3.2,4.3,6.1,8.6,6.1,8.6c2.3,3.5,4.8,7.5,7.2,11.8c9.6,5.6,17,13.8,23.9,22.6
		C254.4,448.2,264,448.3,271.9,446.8z"/>
	<path class="st1" d="M253.1,413.2c-0.2-0.6-1.1-2.9-1.9-5.4c-0.4-1.4-0.9-2.7-1.4-4.1c-0.4-1.1-0.7-2.2-1.1-3.3
		c-0.6-1.7-1.2-3.4-1.8-5c-1.4-4-2.2-6-2.4-6.6c-2.4-6.6-9.1-15.5-10.1-16.7c-6.8-8.9-9.9-11.9-15.7-19.1c-5.9-7.3-7.4-10-13.8-18.6
		c-5.3-7.3-13.1-17.4-23.4-29.5c-6.6-0.5-10.6-1.2-11.4-2c-1.9-1.9-3.2-4-4.6-8.5c-4.7,1.2-8.6,1.9-11.5,2.2
		c-1.9,0.2-2.6,0.3-7.5,0.9c-3.9,0.4-5.7,0.7-9.3,1.1c-12.5,1.5-13.1,1.4-20.3,2.4c-6,0.8-6.9,1.2-10.7,1.7
		c-0.9,0.1-3.7,0.4-7.2,0.5c-3.1,0.1-3.5-0.1-9.1-0.1c-2.9,0-4.7,0.1-5.2,0.1c-1.6,0-1.7,0.1-3.1,0.1c-2.1,0-3.5,0.1-5.3,0
		c-0.8,0-1.6-0.1-3-0.3c-2.5-0.3-4.8-0.6-7.8-1.2c-1.5-0.3-5.9-1.2-11.5-3.1c-2.9-1-5.8-2.1-7.4-2.9c-9.3-4.2-17.1-14.7-20.5-25.4
		c-2.1-6.5-2.1-11.9-2.1-16.8c0,0,0.1-10,2.3-19.1c0.6-2.4,1.1-4.4,1.6-5.8c0.2-0.8,0.5-1.7,0.8-2.6c0.4-1.2,0.8-2.3,1.2-3.3
		c0.4-1.1,0.8-2,1.1-2.6c0.2-0.4,0.4-0.8,0.8-1.4c0.4-0.7,0.6-1.1,0.9-1.5c0.7-1.3,1.1-1.9,1.3-2.3c0,0,0.9-1.5,2.9-3.6
		c5.2-5.4,12.8-8.9,12.8-8.9c11.3-5.2,23.7-7,24.8-7.2c4-0.6,22-3,44.8,1.9c9.3,2,14,3,19.5,5.8c6.2,3.1,12.1,7.6,24.3,12.8
		c0.5,0.2,1,0.4,1.2,0.5c1.6-4.3,3.2-6.7,5.7-8.3c1.9-1.2,5.9-2.1,11.2-2.8c9.8-16.6,17.8-28.7,23.7-37.2c0,0,14.1-20.2,18.6-36
		c0,0,0.4-1.3,0.7-2.6c0.8-2.9,0.9-3.8,1.9-7.7c1-4.4,1.2-4.9,1.6-6.5s0.6-2.9,0.8-3.8c0.1-0.2,0.1-0.5,0.2-0.8
		c0.1-0.2,0.1-0.5,0.1-0.7c0.2-0.9,0.4-1.8,0.7-2.7c1.3-5.3,1.5-6.5,1.7-7.2c1.4-4.6,10.3-10.5,17.1-7c4.2,2.1,6.7,7.4,6.3,13
		c-0.4,2.3-0.8,4.4-1.1,5.9c-1,5.5-1.5,8.2-1.7,9.3c-0.8,4.8-0.9,4.7-0.9,5.1c0,0-0.2,1.5-0.6,3.2c-0.2,0.8-0.4,1.4-0.5,1.6
		c-0.1,0.2-0.2,0.4-0.2,0.5c-0.1,0.5-0.3,1.3-0.5,1.8c-0.1,0.6-0.4,1.5-0.7,2.7c-4.8,17.5-12.1,28-17.8,38.6
		c-3.5,6.5-8.1,16.1-12.2,28.8c14.8-0.2,51.2,0.2,87.4,0.7c20.2-13.1,49.2-28.4,56-32.1c14.3-8,78-15.3,78-15.3s-9.8-36.3,12.4-42.6
		c19.6-5.5,23.1,48.3,24.7,66.9c0.5,5.9-5.8,7.5-5.8,7.5l-82.4,19.1l3.1,54c20.8,14.5,54.1,39.5,54.1,39.5s9.4-26,29.9-24.4
		c20.3,1.6-8.8,53.5-20.8,67.8c-3.8,4.5-9.4,1.3-9.4,1.3l-60-36.2c-1.2,2.8-5,11.2-8.9,10.3c-19.4-4.4-56.3-13.3-75.9-13.2
		c-27.9,0.1-54.5,0-76.4-0.4c4.8,11.1,11.1,23.3,19.6,35.9c3,4.5,6.1,8.7,9.2,12.6c4.9,7.3,12.7,19.3,14.4,24.1
		c0,0.1,0.4,1.2,0.9,2.6c0.9,2.6,1.8,5.3,2.6,8c1.2,3.8,2.4,7.5,3.5,11.2c0.4,1.4,0.8,2.8,1.1,3.8c2.2,7.1-1.3,14.3-6.9,16.3
		C262,423.7,254.7,417.1,253.1,413.2z"/>
	<path class="st1" d="M249.7,136.6"/>
	<path class="st1" d="M251.7,132.7"/>
</g>
<path class="st2" d="M113.1,326.1c-2.2,1.2-5.1,0.3-19.9-7.1c-8.5-4.3-14.6-7.5-15.8-8.2c-18.5-9.7-28.4-2.5-40.6-8.4
	c-20-9.7-27.1-45.7-19.6-71.8c2.7-9.4,7.2-25.2,20.2-31.3c10.8-5,23.1-1.4,30.8-10.8c1.2-1.5,3.3-4.4,7.3-8.9c5-5.5,7.5-8.3,9.5-8.4
	c7.8-0.5,15.2,24.3,17.2,30.9c1.2,3.9,2.1,7.3,2.8,10.7c3.2,13.9,4.5,24.6,5.4,33c2.1,18.9,3.8,34,5.1,57
	C116.4,318,116.7,324.2,113.1,326.1z"/>
<path class="st3" d="M283.7,306.8c0.1,0,0.1,0,0.1,0c0.4,0.2,1.5,0.3,7.7,0.2c5.7-0.1,8.5-0.1,9-0.3c7.4-1.9,6.1-26.5,7.3-51.9
	c0.7-15.2,2.7-49.7-2.3-50.7c-0.1,0-1.8,0-5.2-0.1c-3.7,0-3.6,0-3.9-0.1c-3.9-0.1-5.8-0.2-6.8-0.3c-1.7-0.1-2.4-0.2-2.8,0.2
	c-1,1,0.2,3.5,0.4,4c2.5,6,2.2,31.8,2,45.4c-0.3,24.3-2.9,45.6-4.4,49.2C284.4,303.1,283,306.3,283.7,306.8z"/>
</svg>
